<?xml version="1.0" standalone="no"?>
<!DOCTYPE svg PUBLIC "-//W3C//DTD SVG 1.1//EN" "http://www.w3.org/Graphics/SVG/1.1/DTD/svg11.dtd" >
<svg>
<metadata>
Created by FontForge 20120731 at Mon Jul 11 23:58:15 2016
 By ,,,
Copyright (c) 2014 by Fontsmith Ltd. All rights reserved.
</metadata>
<defs>
<font id="JLREmericSemiBold" horiz-adv-x="651" >
  <font-face 
    font-family="JLR Emeric SemiBold"
    font-weight="600"
    font-stretch="normal"
    units-per-em="1000"
    panose-1="2 0 5 3 4 0 0 2 0 4"
    ascent="731"
    descent="-269"
    x-height="488"
    cap-height="663"
    bbox="-59 -294 1312 1106"
    underline-thickness="50"
    underline-position="-50"
    unicode-range="U+000D-FB04"
  />
<missing-glyph horiz-adv-x="597" 
d="M66 0v650h464v-650h-464zM299 367l157 237h-316zM326 325l158 -237v474zM140 47h316l-157 236zM113 562v-474l157 237z" />
    <glyph glyph-name="f_f" unicode="ff" horiz-adv-x="751" 
d="M215 488h231q-13 39 -13 72q0 70 52.5 114.5t135.5 44.5q89 0 173 -54l-30 -77l-40 9q-46 10 -79 10q-82 0 -82 -66q0 -31 10 -53h164v-101h-159v-387h-130v387h-228v-387h-129v387h-89v80l85 18q-12 31 -12 75q0 71 48.5 113.5t126.5 42.5q75 0 153 -46l-20 -76l-36 5
q-46 6 -65 6q-77 0 -77 -65q0 -22 10 -52z" />
    <glyph glyph-name="fi" unicode="fi" horiz-adv-x="622" 
d="M433 0v488h129v-488h-129zM2 387v80l86 18q-13 39 -13 75q0 70 52.5 114.5t135.5 44.5q89 0 173 -54l-30 -77l-40 9q-46 10 -79 10q-82 0 -82 -66q0 -31 10 -53h164v-101h-159v-387h-129v387h-89z" />
    <glyph glyph-name="fl" unicode="fl" horiz-adv-x="660" 
d="M396 674l-20 -78l-34 5q-48 7 -64 6q-75 0 -75 -63q0 -30 12 -56h164v-101h-159v-387h-129v387h-89v80l86 18q-15 39 -15 79q0 70 47.5 112.5t123.5 42.5q78 0 152 -45zM652 88v-68q-46 -23 -99 -23q-51 0 -82 31q-30 31 -30 88v593h129v-604z" />
    <glyph glyph-name="f_f_i" unicode="ffi" horiz-adv-x="980" 
d="M215 488h231q-13 39 -13 72q0 70 52.5 114.5t135.5 44.5q89 0 173 -54l-30 -77l-40 9q-46 10 -79 10q-82 0 -82 -66q0 -31 10 -53h164v-101h-159v-387h-130v387h-228v-387h-129v387h-89v80l85 18q-12 31 -12 75q0 71 48.5 113.5t126.5 42.5q75 0 153 -46l-20 -76l-36 5
q-46 6 -65 6q-77 0 -77 -65q0 -22 10 -52zM791 0v488h129v-488h-129z" />
    <glyph glyph-name="f_f_l" unicode="ffl" horiz-adv-x="1019" 
d="M215 488h228q-12 41 -12 75q0 70 47.5 113t124.5 43q78 0 152 -45l-20 -78l-34 5q-48 7 -64 6q-76 0 -76 -64q0 -27 11 -55h163v-101h-160v-387h-129v387h-226v-387h-129v387h-89v80l85 18q-12 31 -12 75q0 71 48.5 113.5t126.5 42.5q75 0 153 -46l-20 -76l-36 5
q-46 6 -65 6q-77 0 -77 -65q0 -22 10 -52zM1011 88v-68q-46 -23 -99 -23q-51 0 -82 31q-30 32 -30 88v593h129v-604z" />
    <glyph glyph-name="f_j" unicode="fj" horiz-adv-x="622" 
d="M2 387v80l86 18q-13 39 -13 75q0 70 52.5 114.5t135.5 44.5q89 0 173 -54l-30 -77l-40 9q-44 10 -79 10q-82 0 -82 -66q0 -31 10 -53h164v-101h-159v-387h-129v387h-89zM562 488v-544q0 -95 -33 -136t-123 -41q-49 0 -88 16v70l57 11q36 7 47 18.5t11 41.5v564h129z" />
    <glyph glyph-name="f_f_j" unicode="ffj" horiz-adv-x="980" 
d="M920 488v-544q0 -92 -38 -134.5t-117 -42.5q-50 0 -89 16v70l58 11q36 7 46.5 18.5t10.5 41.5v564h129zM215 488h231q-13 39 -13 72q0 70 52.5 114.5t135.5 44.5q89 0 173 -54l-30 -77l-40 9q-46 10 -79 10q-82 0 -82 -66q0 -31 10 -53h164v-101h-159v-387h-130v387h-228
v-387h-129v387h-89v80l85 18q-12 31 -12 75q0 71 48.5 113.5t126.5 42.5q75 0 153 -46l-20 -76l-36 5q-46 6 -65 6q-77 0 -77 -65q0 -22 10 -52z" />
    <glyph glyph-name="f_t" unicode="ft" horiz-adv-x="770" 
d="M428 387h-208v-387h-129v387h-89v80l82 18q-21 31 -21 78q0 73 51 114.5t124 41.5q78 0 146 -40l-19 -78l-34 3q-40 4 -60 4q-78 0 -78 -63q0 -33 20 -57h215v135h129v-135h162v-101h-162v-222q0 -32 13 -45q15 -15 44 -15q17 0 64 9l46 10l30 -72q-33 -26 -79 -43
t-87 -17q-73 0 -116 41q-44 43 -44 127v227z" />
    <glyph glyph-name="f_f_t" unicode="fft" horiz-adv-x="1126" 
d="M784 488v135h129v-135h162v-101h-162v-222q0 -32 13 -45q15 -15 44 -15q17 0 64 9l46 10l30 -72q-33 -26 -79 -43t-87 -17q-73 0 -116 41q-44 43 -44 127v227h-208v-387h-129v387h-227v-387h-129v387h-89v80l85 18q-12 31 -12 75q0 71 48.5 113.5t126.5 42.5
q75 0 153 -46l-20 -76l-36 5q-46 6 -65 6q-77 0 -77 -65q0 -22 10 -52h229q-10 28 -10 71q0 69 48 114.5t124 45.5q69 0 138 -40l-18 -78l-34 4q-30 3 -56 3q-71 0 -71 -65q0 -35 9 -55h210z" />
    <glyph glyph-name=".notdef" horiz-adv-x="597" 
d="M66 0v650h464v-650h-464zM299 367l157 237h-316zM326 325l158 -237v474zM140 47h316l-157 236zM113 562v-474l157 237z" />
    <glyph glyph-name=".null" horiz-adv-x="0" 
 />
    <glyph glyph-name=".null" horiz-adv-x="0" 
 />
    <glyph glyph-name="nonmarkingreturn" horiz-adv-x="333" 
 />
    <glyph glyph-name="CR" unicode="&#xd;" horiz-adv-x="228" 
 />
    <glyph glyph-name="space" unicode=" " horiz-adv-x="228" 
 />
    <glyph glyph-name="exclam" unicode="!" horiz-adv-x="280" 
d="M208 109v-109h-136v130h114q12 0 17 -5t5 -16zM98 195l-16 144q-8 80 -8 106v218h132v-218q0 -26 -8 -106l-16 -144h-84z" />
    <glyph glyph-name="quotedbl" unicode="&#x22;" horiz-adv-x="446" 
d="M58 663h137v-53q0 -44 -8 -108l-17 -130h-87l-17 130q-8 64 -8 108v53zM251 663h137v-53q0 -44 -8 -108l-17 -130h-87l-17 130q-8 64 -8 108v53z" />
    <glyph glyph-name="numbersign" unicode="#" 
d="M401 477l33 186h105l-33 -186h80v-98h-98l-17 -97h115v-97h-132l-32 -185h-105l32 185h-100l-32 -185h-105l32 185h-79v97h96l17 97h-113v98h131l33 186h105l-33 -186h100zM283 379l-17 -97h100l17 97h-100z" />
    <glyph glyph-name="dollar" unicode="$" 
d="M112 151l69 -16q56 -13 115 -21v181l-6 2q-106 31 -156 76t-50 119q0 79 58 125.5t154 53.5l15 120h72v-121q93 -8 177 -42l-21 -94l-53 6q-67 8 -103 10v-148q116 -34 162.5 -79.5t46.5 -121.5q0 -87 -55.5 -142.5t-153.5 -65.5l-15 -122h-72v121q-127 13 -219 70z
M461 194q0 27 -17.5 43.5t-60.5 31.5v-153q78 14 78 78zM214 493q0 -24 19.5 -38t62.5 -28v122q-82 -9 -82 -56z" />
    <glyph glyph-name="percent" unicode="%" horiz-adv-x="959" 
d="M149 499q0 -37 19.5 -56.5t55.5 -19.5t56 19.5t20 56.5t-19.5 57t-55.5 20t-56 -20t-20 -57zM403 499q0 -77 -53 -125t-125 -48q-73 0 -126 47.5t-53 125.5t53 126t125 48q73 0 126 -48t53 -126zM659 163q0 -37 19.5 -56.5t55.5 -19.5t56 19.5t20 56.5t-19.5 57t-55.5 20
t-56 -20t-20 -57zM913 163q0 -77 -53 -125t-125 -48q-73 0 -126 47.5t-53 125.5t53 126t125 48q73 0 126 -48t53 -126zM375 0h-119l327 663h120z" />
    <glyph glyph-name="ampersand" unicode="&#x26;" horiz-adv-x="762" 
d="M718 88v-66q-37 -25 -86 -25q-33 0 -55.5 12t-71.5 54q-92 -73 -202 -73t-188.5 64.5t-78.5 159.5q0 117 136 179q-34 53 -34 104q0 80 59 128t140 48t135 -47t54 -119q0 -100 -131 -181l110 -105q32 39 60 92l55 101l79 -30q-39 -131 -117 -237l48 -45zM428 136
l-203 194l-21 -21q-40 -40 -40 -83q0 -49 42.5 -85.5t112.5 -36.5q61 0 109 32zM337 382l24 25q54 57 54 95q0 32 -21.5 50t-56.5 18q-36 0 -59.5 -18.5t-23.5 -50.5q0 -27 19 -53.5t64 -65.5z" />
    <glyph glyph-name="quotesingle" unicode="'" horiz-adv-x="253" 
d="M58 663h137v-53q0 -44 -8 -108l-17 -130h-87l-17 130q-8 64 -8 108v53z" />
    <glyph glyph-name="parenleft" unicode="(" horiz-adv-x="356" 
d="M62 217q0 135 58.5 258t157.5 202l59 -50q-70 -100 -103.5 -196.5t-33.5 -213.5t33.5 -214t103.5 -197l-59 -49q-99 78 -157.5 201.5t-58.5 258.5z" />
    <glyph glyph-name="parenright" unicode=")" horiz-adv-x="356" 
d="M294 217q0 -135 -58.5 -258.5t-157.5 -201.5l-59 49q70 100 103.5 197t33.5 214t-33.5 213.5t-103.5 196.5l59 50q99 -79 157.5 -202t58.5 -258z" />
    <glyph glyph-name="asterisk" unicode="*" horiz-adv-x="466" 
d="M403 344l-77 -51q-14 -9 -22 5l-69 122l-78 -136l-77 51q-15 9 2 26l102 103l-144 29l30 73q8 19 26 10l106 -60l-23 147h95q15 0 14 -16l-21 -131l125 69l31 -76q7 -17 -14 -20l-123 -25z" />
    <glyph glyph-name="plus" unicode="+" horiz-adv-x="558" 
d="M333 191v-152h-110v152h-150v110h150v150h110v-150h151v-110h-151z" />
    <glyph glyph-name="comma" unicode="," horiz-adv-x="238" 
d="M21 -127l66 111q4 8 4 10q0 4 -9 10l-15 9q-12 8 -15 12.5t-3 18.5v93h111q27 0 27 -25v-67q0 -57 -21.5 -96.5t-99.5 -110.5z" />
    <glyph glyph-name="hyphen" unicode="-" horiz-adv-x="423" 
d="M374 189h-325v109h325v-109z" />
    <glyph glyph-name="period" unicode="." horiz-adv-x="239" 
d="M188 112v-112h-138v137h111q27 0 27 -25z" />
    <glyph glyph-name="slash" unicode="/" horiz-adv-x="476" 
d="M138 0h-135l335 663h135z" />
    <glyph glyph-name="zero" unicode="0" 
d="M606 337v-11q0 -156 -76 -246t-204 -90q-129 0 -205 89.5t-76 246.5v11q0 156 75.5 246t203.5 90q129 0 205.5 -89.5t76.5 -246.5zM465 326v11q0 108 -34 158t-105 50t-105.5 -50t-34.5 -158v-11q0 -108 34 -158t105 -50q72 0 106 49.5t34 158.5z" />
    <glyph glyph-name="one" unicode="1" 
d="M121 0v112h169v406h-1q-35 -15 -75 -28l-83 -26l-39 95l214 94q22 10 46 10h73v-551h139v-112h-443z" />
    <glyph glyph-name="two" unicode="2" 
d="M375 216l-118 -104h304v-112h-475v69q0 22 17 40l200 200q62 63 83 92.5t21 65.5q0 83 -99 83q-51 0 -131 -29l-62 -23l-42 82q130 93 249 93q97 0 161 -53t64 -146q0 -65 -36 -118t-136 -140z" />
    <glyph glyph-name="three" unicode="3" 
d="M248 388h125q22 0 29 11q17 26 17 66q0 85 -99 85q-57 0 -142 -30l-59 -21l-42 83q126 91 250 91q98 0 161.5 -49t63.5 -133q0 -74 -70 -141q92 -44 92 -147q0 -98 -68.5 -155.5t-180.5 -57.5q-161 0 -273 106l44 77l58 -22q106 -40 164 -40q53 0 84.5 25t31.5 71
q0 41 -19 57t-66 16h-83q-18 0 -18 15v93z" />
    <glyph glyph-name="four" unicode="4" 
d="M176 260h204v260q-17 -26 -50 -68l-98 -126q-43 -52 -56 -66zM57 281l287 362q16 20 38 20h132v-403h87v-111h-87v-149h-134v149h-339v91q0 21 16 41z" />
    <glyph glyph-name="five" unicode="5" 
d="M163 293l-37 21q-16 9 -20 16t-4 20v313h423v-116h-303v-73q0 -53 -4 -81q58 27 132 27q98 0 159.5 -55.5t61.5 -147.5q0 -98 -65.5 -162.5t-183.5 -64.5q-68 0 -138 27.5t-121 72.5l43 78l74 -27q83 -30 135 -30q55 0 86.5 28.5t31.5 79.5q0 48 -33.5 70.5t-86.5 22.5
t-114 -22q-19 -6 -36 3z" />
    <glyph glyph-name="six" unicode="6" 
d="M551 619l-34 -86q-92 22 -132 22q-79 0 -126.5 -44.5t-54.5 -132.5l22 10q79 36 148 36q93 0 154 -55.5t61 -150.5q0 -97 -69.5 -162.5t-176.5 -65.5q-133 0 -206.5 89.5t-73.5 226.5v5q0 164 88 263t220 99q97 0 180 -54zM202 263q0 -68 38.5 -111t99.5 -43
q53 0 85.5 30t32.5 81q0 96 -115 96q-59 0 -117 -24q-17 -7 -20.5 -12t-3.5 -17z" />
    <glyph glyph-name="seven" unicode="7" 
d="M324 0h-139q3 95 24 166.5t68 145.5q93 146 158 234h-363v117h513v-61q0 -30 -16 -58l-136 -218q-100 -160 -109 -326z" />
    <glyph glyph-name="eight" unicode="8" 
d="M54 199q0 91 99 154q-73 50 -73 133q0 81 68 134t175 53q110 0 178.5 -52t68.5 -130q0 -79 -81 -143q107 -51 107 -150q0 -87 -76 -147.5t-193 -60.5q-119 0 -196 57t-77 152zM210 488q0 -14 6.5 -24.5t14 -17.5t27.5 -15.5t33.5 -13t44.5 -14.5l41 -14q11 -4 15 -3
t14 10q40 38 40 78q0 39 -34.5 61.5t-90.5 22.5q-48 0 -79.5 -18t-31.5 -52zM185 212q0 -46 39.5 -75t102.5 -29q56 0 94.5 25t38.5 63q0 28 -25 42t-116 44l-63 21q-14 4 -18.5 2.5t-12.5 -8.5q-40 -37 -40 -85z" />
    <glyph glyph-name="nine" unicode="9" 
d="M306 345q53 0 110 20q23 8 27.5 13.5t4.5 20.5q0 70 -39 113t-101 43q-53 0 -85.5 -30t-32.5 -77q0 -51 31 -77t85 -26zM276 238q-95 0 -156.5 56.5t-61.5 152.5t70.5 161t177.5 65q133 0 206.5 -89.5t73.5 -227.5v-5q0 -163 -70.5 -262t-212.5 -99q-118 0 -205 65l35 80
l40 -10q76 -18 109 -18q83 0 122 43t42 135l-22 -11q-69 -34 -148 -36z" />
    <glyph glyph-name="colon" unicode=":" horiz-adv-x="239" 
d="M188 112v-112h-138v137h111q27 0 27 -25zM188 422v-112h-138v137h111q27 0 27 -25z" />
    <glyph glyph-name="semicolon" unicode=";" horiz-adv-x="238" 
d="M187 422v-112h-138v137h111q27 0 27 -25zM21 -127l66 111q4 8 4 10q0 4 -9 9q-7 5 -14.5 10t-10 6.5t-5 5t-3 7.5t-0.5 11v94h111q27 0 27 -25v-67q0 -57 -21.5 -96.5t-99.5 -110.5z" />
    <glyph glyph-name="less" unicode="&#x3c;" horiz-adv-x="558" 
d="M73 290l411 186v-127l-246 -104v-2l246 -101v-127l-411 185v90z" />
    <glyph glyph-name="equal" unicode="=" horiz-adv-x="558" 
d="M484 291h-411v110h411v-110zM484 90h-411v110h411v-110z" />
    <glyph glyph-name="greater" unicode="&#x3e;" horiz-adv-x="558" 
d="M73 476l411 -186v-90l-411 -185v127l246 101v2l-246 104v127z" />
    <glyph glyph-name="question" unicode="?" horiz-adv-x="528" 
d="M270 190h-86l-12 68q-5 26 -5 40q0 17 8 27.5t29 22.5l36 21q37 22 51 30.5t31.5 23.5t22.5 28t5 32q0 32 -24.5 50t-66.5 18q-55 0 -131 -28l-60 -22l-46 78q50 42 115.5 68t128.5 26q92 0 155.5 -51t63.5 -140q0 -137 -195 -204zM294 102v-102h-132v123h110
q12 0 17 -4.5t5 -16.5z" />
    <glyph glyph-name="at" unicode="@" horiz-adv-x="777" 
d="M668 56l31 -57q-51 -42 -134 -70t-168 -28q-157 0 -256 98t-99 244q0 153 104.5 247t250.5 94q143 0 237.5 -90.5t94.5 -217.5q0 -95 -49.5 -148t-122.5 -53q-64 0 -93 38l-24 -13q-42 -22 -81 -22q-52 0 -85 31.5t-33 77.5q0 44 31 67.5t83 23.5q48 0 84 -11v24
q0 19 -13.5 31t-38.5 12q-27 0 -68 -12l-33 -11l-27 49q68 53 140 53q60 0 96.5 -33.5t36.5 -96.5v-91q0 -42 38 -42q30 0 49.5 28t19.5 91q0 95 -66.5 159.5t-175.5 64.5t-180.5 -65.5t-71.5 -177.5q0 -120 71.5 -189t192.5 -69q81 0 178 35zM434 213h-83q-21 0 -21 -23
q0 -17 12 -27.5t34 -10.5q25 0 51 8q8 2 10 5t2 10v33q0 5 -5 5z" />
    <glyph glyph-name="A" unicode="A" horiz-adv-x="705" 
d="M542 12l-48 121h-292l-44 -121q-3 -8 -6 -10t-12 -2h-127l255 663h136q14 0 20 -13l268 -650h-131q-14 0 -19 12zM278 341l-35 -97h207l-46 119q-46 117 -61 167q-15 -50 -65 -189z" />
    <glyph glyph-name="B" unicode="B" horiz-adv-x="656" 
d="M68 663h280q107 0 167 -40.5t60 -123.5q0 -72 -62 -141q104 -56 104 -164q0 -194 -242 -194h-307v663zM206 279v-163h161q60 0 84.5 19.5t24.5 64.5q0 43 -20.5 61t-73.5 18h-176zM206 388h181q23 0 33 17q18 28 18 67q0 43 -22.5 59t-77.5 16h-132v-159z" />
    <glyph glyph-name="C" unicode="C" horiz-adv-x="682" 
d="M604 205l54 -70q-56 -64 -135 -104.5t-169 -40.5q-143 0 -230.5 96.5t-87.5 244.5q0 154 93.5 248t228.5 94q103 0 176 -52.5t108 -146.5l-89 -57l-61 56q-74 68 -144 68q-73 0 -120.5 -53.5t-47.5 -155.5q0 -96 49.5 -153t139.5 -57q63 0 134 34z" />
    <glyph glyph-name="D" unicode="D" horiz-adv-x="719" 
d="M289 0h-221v663h221q200 0 296 -83q98 -84 98 -249q0 -164 -98 -248q-96 -83 -296 -83zM206 120h79q148 0 204 55q51 50 51 157q0 106 -51 156q-56 55 -204 55h-79v-423z" />
    <glyph glyph-name="E" unicode="E" horiz-adv-x="611" 
d="M68 663h478v-116h-340v-151h307v-115h-307v-165h350v-116h-488v663z" />
    <glyph glyph-name="F" unicode="F" horiz-adv-x="574" 
d="M206 547v-162h296v-114h-296v-271h-138v663h469v-116h-331z" />
    <glyph glyph-name="G" unicode="G" horiz-adv-x="739" 
d="M544 247h-109v103h223q11 0 15.5 -3t4.5 -14v-333h-100l-21 60l-51 -28q-77 -42 -154 -42q-142 0 -229 96t-87 245q0 154 97 248t234 94q100 0 175 -46t112 -130l-87 -60l-75 56q-66 50 -132 50q-80 0 -130 -55t-50 -156q0 -102 50 -156.5t143 -54.5q88 0 153 25
q18 6 18 24v77z" />
    <glyph glyph-name="H" unicode="H" horiz-adv-x="723" 
d="M517 0v281h-311v-281h-138v663h138v-262h311v262h138v-663h-138z" />
    <glyph glyph-name="I" unicode="I" horiz-adv-x="280" 
d="M71 0v663h138v-663h-138z" />
    <glyph glyph-name="J" unicode="J" horiz-adv-x="513" 
d="M23 54l28 84l58 -11q72 -14 112 -14q52 0 72 23q18 22 18 74v453h138v-449q0 -110 -56 -167q-57 -57 -151 -57q-119 0 -219 64z" />
    <glyph glyph-name="K" unicode="K" horiz-adv-x="667" 
d="M492 13l-199 292q-36 -31 -87 -57v-248h-138v663h138v-293l348 301l78 -84l-238 -201l267 -386h-142q-18 0 -27 13z" />
    <glyph glyph-name="L" unicode="L" horiz-adv-x="568" 
d="M206 663v-547h327v-116h-465v663h138z" />
    <glyph glyph-name="M" unicode="M" horiz-adv-x="851" 
d="M673 663h110v-663h-134v454h-2l-172 -221h-82q-15 0 -24 11l-166 210h-2v-454h-133v663h111q16 0 27 -15l219 -274h6l215 274q11 15 27 15z" />
    <glyph glyph-name="N" unicode="N" horiz-adv-x="744" 
d="M543 211v452h133v-663h-103q-16 0 -26 12l-257 323q-37 47 -89 118v-453h-133v663h104q15 0 25 -12l237 -297q82 -102 109 -143z" />
    <glyph glyph-name="O" unicode="O" horiz-adv-x="740" 
d="M369 -10q-136 0 -234.5 94.5t-98.5 246.5t98 247t235 95h2q137 0 235 -95t98 -247t-98.5 -246.5t-234.5 -94.5h-2zM180 331q0 -98 50.5 -152.5t138.5 -54.5h2q88 0 138.5 54.5t50.5 152.5q0 99 -50 153t-139 54h-2q-89 0 -139 -54t-50 -153z" />
    <glyph glyph-name="P" unicode="P" horiz-adv-x="643" 
d="M206 211v-211h-138v663h259q156 0 222 -66q56 -58 56 -158q0 -110 -64 -171q-62 -57 -181 -57h-154zM206 326h190q30 0 42 18q26 36 26 95q0 55 -27 80q-28 27 -102 27h-129v-220z" />
    <glyph glyph-name="Q" unicode="Q" horiz-adv-x="740" 
d="M371 -10q-138 0 -236.5 94.5t-98.5 246.5t98 247t235 95h2q137 0 235 -95t98 -247q0 -100 -44.5 -176.5t-119.5 -120.5l109 -166l-135 -54l-94 180q-32 -4 -49 -4zM180 331q0 -98 50.5 -152.5t138.5 -54.5h2q88 0 138.5 54.5t50.5 152.5q0 99 -50 153t-139 54h-2
q-89 0 -139 -54t-50 -153z" />
    <glyph glyph-name="R" unicode="R" horiz-adv-x="671" 
d="M485 14l-114 196q-6 9 -10 11t-16 2h-139v-223h-138v663h261q139 0 209 -51t70 -165q0 -64 -29.5 -114.5t-80.5 -82.5l151 -250h-139q-11 0 -15 2t-10 12zM206 338h199q27 0 39 18q23 34 23 91q0 50 -24 73q-30 26 -110 26h-127v-208z" />
    <glyph glyph-name="S" unicode="S" horiz-adv-x="592" 
d="M37 60l35 90l68 -15q107 -24 171 -24q52 0 83 21.5t31 61.5q0 31 -22.5 47t-83.5 34l-68 20q-105 31 -156 76.5t-51 119.5q0 87 71 134.5t182 47.5q116 0 226 -45l-21 -93l-53 6q-93 11 -144 11q-132 0 -132 -60q0 -26 24.5 -42t81.5 -32l62 -18q119 -34 166.5 -79
t47.5 -121q0 -97 -66.5 -153.5t-185.5 -56.5q-64 0 -138 20t-128 50z" />
    <glyph glyph-name="T" unicode="T" horiz-adv-x="615" 
d="M376 547v-547h-138v547h-221v116h580v-116h-221z" />
    <glyph glyph-name="U" unicode="U" horiz-adv-x="707" 
d="M646 663v-390q0 -133 -71 -204q-77 -79 -222 -79q-142 0 -221 79q-71 71 -71 204v390h138v-378q0 -90 34 -124q41 -39 122 -39q83 0 122 39q34 34 34 124v378h135z" />
    <glyph glyph-name="V" unicode="V" horiz-adv-x="676" 
d="M537 663h131l-244 -663h-147q-17 0 -23 16l-246 647h135q11 0 16 -12l106 -284q47 -128 77 -244h2q45 157 87 275l90 253q5 12 16 12z" />
    <glyph glyph-name="W" unicode="W" horiz-adv-x="1016" 
d="M797 0h-141q-18 0 -22 14l-51 168q-60 194 -78 288q-11 -66 -76 -292l-51 -178h-142q-18 0 -22 14l-206 649h129q13 0 17 -12l87 -284q30 -96 62 -224q23 120 73 288l69 232h112q13 0 17 -12l89 -293q36 -119 56 -215q35 143 69 251l81 257q3 12 16 12h123z" />
    <glyph glyph-name="X" unicode="X" horiz-adv-x="682" 
d="M651 663l-233 -320l259 -343h-145q-16 0 -23 10l-176 237l-169 -238q-6 -9 -21 -9h-138l247 342l-244 321h145q15 0 24 -11l161 -215l155 215q9 11 23 11h135z" />
    <glyph glyph-name="Y" unicode="Y" horiz-adv-x="669" 
d="M669 663l-264 -452v-211h-138v211l-267 452h141q13 0 19 -11l87 -153q31 -55 91 -173q23 48 93 175l84 150q7 12 20 12h134z" />
    <glyph glyph-name="Z" unicode="Z" horiz-adv-x="616" 
d="M396 547h-351v116h520v-77q0 -15 -14 -35l-230 -303q-56 -75 -104 -132h352v-116h-521v76q0 17 13 36l230 303q27 36 105 132z" />
    <glyph glyph-name="bracketleft" unicode="[" horiz-adv-x="352" 
d="M74 -229v892h259v-116h-134v-660h134v-116h-259z" />
    <glyph glyph-name="backslash" unicode="\" horiz-adv-x="476" 
d="M473 0h-135l-335 663h135z" />
    <glyph glyph-name="bracketright" unicode="]" horiz-adv-x="352" 
d="M278 663v-892h-259v116h134v660h-134v116h259z" />
    <glyph glyph-name="asciicircum" unicode="^" horiz-adv-x="558" 
d="M234 673h91l175 -227l-94 -63l-126 161h-2l-126 -161l-93 63z" />
    <glyph glyph-name="underscore" unicode="_" horiz-adv-x="514" 
d="M491 -149h-468v105h468v-105z" />
    <glyph glyph-name="grave" unicode="`" horiz-adv-x="416" 
d="M300 542l-225 116l51 76q7 12 16 12q6 0 16 -7l183 -140z" />
    <glyph glyph-name="a" unicode="a" horiz-adv-x="551" 
d="M342 275v32q0 38 -18 56q-21 21 -72 21q-49 0 -119 -24l-41 -14l-40 70q104 80 215 80q103 0 156 -56q48 -50 48 -141v-198l67 -13v-69q-42 -21 -92 -21q-48 0 -86 43l-26 -14q-66 -35 -125 -35q-79 0 -129 47t-50 117q0 65 45.5 101.5t124.5 36.5h3q70 0 139 -19z
M342 133v57q0 10 -11 10h-140q-38 0 -38 -39q0 -29 20.5 -46.5t59.5 -17.5q51 0 96 19q13 5 13 17z" />
    <glyph glyph-name="b" unicode="b" horiz-adv-x="573" 
d="M215 24l-41 21l-18 -45h-98v709h129v-260l30 15q64 32 113 32q92 0 152.5 -70t60.5 -182q0 -114 -59.5 -183t-153.5 -69q-54 0 -115 32zM187 334v-183q0 -14 10 -19q46 -21 100 -21q58 0 86 30t28 103q0 71 -28 101t-86 30q-56 0 -100 -22q-10 -5 -10 -19z" />
    <glyph glyph-name="c" unicode="c" horiz-adv-x="516" 
d="M454 156l43 -70q-44 -41 -104.5 -67.5t-120.5 -26.5q-109 0 -175.5 69.5t-66.5 184.5q0 110 70.5 180t168.5 70q82 0 142 -46.5t79 -118.5l-85 -43l-45 44q-50 49 -97 49q-44 0 -72.5 -34.5t-28.5 -98.5q0 -73 30.5 -107t93.5 -34q45 0 110 26z" />
    <glyph glyph-name="d" unicode="d" horiz-adv-x="574" 
d="M387 450v259h129v-709h-97l-18 45l-37 -20q-60 -33 -115 -33q-97 0 -158 69.5t-61 181.5q0 110 62.5 181.5t156.5 71.5q62 0 138 -46zM387 151v185q0 14 -10 19q-42 21 -100 21t-86.5 -30.5t-28.5 -101.5q0 -73 28.5 -103t86.5 -30t100 21q10 5 10 19z" />
    <glyph glyph-name="e" unicode="e" horiz-adv-x="543" 
d="M511 263q0 -30 -5 -46q-4 -13 -21 -13h-323q5 -46 38 -72t91 -26q46 0 113 23l55 19l41 -72q-45 -38 -103.5 -61t-117.5 -23q-107 0 -178 70.5t-71 180.5q0 113 70.5 183t173.5 70t170 -67.5t67 -165.5zM162 295h221q-4 40 -33.5 64t-76.5 24q-48 0 -77 -24t-34 -64z" />
    <glyph glyph-name="f" unicode="f" horiz-adv-x="384" 
d="M2 387v80l86 18q-12 31 -12 76q0 69 48.5 113.5t130.5 44.5q89 0 172 -54l-30 -77l-47 10q-42 9 -71 9q-73 0 -73 -60q0 -34 10 -59h166v-101h-162v-387h-129v387h-89z" />
    <glyph glyph-name="g" unicode="g" horiz-adv-x="558" 
d="M399 456q53 50 95 50t66 -18v-73l-90 -15q-14 -2 -8 -14q20 -38 20 -84q0 -85 -62.5 -139.5t-155.5 -54.5q-21 0 -61 8q-11 2 -15 -8l-6 -14q-4 -9 -4 -14q0 -9 14 -9h143q182 0 182 -138q0 -82 -73 -133t-184 -51q-109 0 -179.5 46t-70.5 116q0 58 62 93q-20 23 -20 46
q0 29 34 68l32 37q-72 54 -72 147q0 85 62.5 139.5t155.5 54.5q78 0 135 -40zM361 302q0 43 -26.5 66t-70.5 23q-45 0 -71 -23t-26 -66t26 -66.5t71 -23.5t71 23.5t26 66.5zM335 -32h-171q-16 0 -23 -10q-9 -12 -9 -28q0 -33 33 -53t97 -20q61 0 97 19t36 54q0 21 -13 29.5
t-47 8.5z" />
    <glyph glyph-name="h" unicode="h" horiz-adv-x="562" 
d="M187 453l23 13q54 30 108 30q86 0 139 -50.5t53 -139.5v-306h-129v301q0 36 -16 52q-20 21 -75 21h-2q-56 0 -91 -14q-10 -4 -10 -19v-341h-129v709h129v-256z" />
    <glyph glyph-name="i" unicode="i" horiz-adv-x="249" 
d="M60 0v488h129v-488h-129zM60 566v127h102q15 0 21 -5.5t6 -19.5v-102h-129z" />
    <glyph glyph-name="j" unicode="j" horiz-adv-x="248" 
d="M188 488v-544q0 -95 -33 -136t-123 -41q-49 0 -88 16v70l57 11q36 7 47 18.5t11 41.5v564h129zM59 566v127h102q15 0 21 -5.5t6 -19.5v-102h-129z" />
    <glyph glyph-name="k" unicode="k" horiz-adv-x="552" 
d="M397 12l-134 212q-27 -19 -76 -43v-181h-129v709h129v-415l261 211l72 -82l-162 -130l192 -293h-128q-17 0 -25 12z" />
    <glyph glyph-name="l" unicode="l" horiz-adv-x="279" 
d="M271 88v-68q-46 -23 -99 -23q-51 0 -82 31q-30 31 -30 88v593h129v-604z" />
    <glyph glyph-name="m" unicode="m" horiz-adv-x="866" 
d="M684 0v307q0 36 -18 51q-20 16 -69 16h-2q-49 0 -84 -14q-10 -4 -10 -19v-341h-130v307q0 36 -18 51q-20 16 -69 16h-2q-49 0 -84 -14q-10 -4 -10 -19v-341h-129v488h98l16 -43l22 13q65 38 124 38q85 0 142 -64l36 20q79 44 136 44q81 0 134 -55q47 -50 47 -134v-307
h-130z" />
    <glyph glyph-name="n" unicode="n" horiz-adv-x="562" 
d="M381 0v301q0 36 -16 52q-20 21 -75 21h-2q-56 0 -91 -14q-10 -4 -10 -19v-341h-129v488h98l16 -43l38 21q53 30 108 30q86 0 139 -50.5t53 -139.5v-306h-129z" />
    <glyph glyph-name="o" unicode="o" horiz-adv-x="559" 
d="M529 244q0 -117 -72.5 -184.5t-175.5 -67.5h-3q-103 0 -175.5 67.5t-72.5 184.5q0 116 72.5 184t175.5 68h3q103 0 175.5 -68t72.5 -184zM397 244q0 131 -116 131h-3q-116 0 -116 -131q0 -132 116 -132h3q116 0 116 132z" />
    <glyph glyph-name="p" unicode="p" horiz-adv-x="573" 
d="M215 24l-28 14v-267h-129v717h98l18 -45l43 21q65 32 112 32q92 0 153 -70t61 -182q0 -114 -59.5 -183t-153.5 -69q-51 0 -115 32zM187 334v-183q0 -14 10 -19q46 -21 100 -21q58 0 86 30t28 103q0 71 -28 101t-86 30q-56 0 -100 -22q-10 -5 -10 -19z" />
    <glyph glyph-name="q" unicode="q" horiz-adv-x="575" 
d="M387 151v185q0 14 -10 19q-42 21 -100 21t-86.5 -30.5t-28.5 -101.5q0 -73 28.5 -103t86.5 -30t100 21q10 5 10 19zM400 441l19 47h98v-717h-130v266l-23 -12q-63 -33 -115 -33q-97 0 -158 69.5t-61 181.5q0 110 62.5 181.5t156.5 71.5q73 0 151 -55z" />
    <glyph glyph-name="r" unicode="r" horiz-adv-x="384" 
d="M379 391l-48 -9q-57 -10 -129 -33q-14 -5 -14 -18v-331h-129v488h97l20 -60q91 68 141 68q30 0 62 -17v-88z" />
    <glyph glyph-name="s" unicode="s" horiz-adv-x="478" 
d="M406 377l-48 5q-74 8 -113 8q-48 0 -69 -7t-21 -27q0 -10 8.5 -17t19.5 -11t34 -10l65 -16q89 -22 126 -53.5t37 -95.5q0 -73 -52 -117t-149 -44q-54 0 -112 15t-100 38l27 79l54 -10q84 -16 132 -16q82 0 82 47q0 19 -13 28t-52 18l-63 15q-81 20 -121 52.5t-40 93.5
q0 68 56.5 106t148.5 38q99 0 183 -38z" />
    <glyph glyph-name="t" unicode="t" horiz-adv-x="430" 
d="M384 124l30 -72q-33 -26 -79 -43t-87 -17q-73 0 -116 41q-44 43 -44 127v227h-88v80l88 19v143h129v-141h162v-101h-162v-222q0 -32 13 -45q15 -15 44 -15q17 0 64 9z" />
    <glyph glyph-name="u" unicode="u" horiz-adv-x="561" 
d="M181 488v-302q0 -36 16 -53q19 -20 76 -20q56 0 90 13q10 4 10 20v342h129v-488h-98l-17 42l-28 -15q-66 -35 -116 -35q-86 0 -138.5 50t-52.5 140v306h129z" />
    <glyph glyph-name="v" unicode="v" horiz-adv-x="531" 
d="M320 279l73 195q5 14 20 14h118l-196 -488h-118q-13 0 -18 11l-199 477h121q10 0 13 -2.5t7 -11.5l77 -191q41 -103 53 -149q19 66 49 145z" />
    <glyph glyph-name="w" unicode="w" horiz-adv-x="811" 
d="M813 488l-169 -488h-128q-16 0 -20 12l-50 161q-26 86 -42 149q-10 -45 -40 -149l-51 -173h-128q-15 0 -20 12l-166 476h120q14 0 19 -13l48 -149q31 -95 57 -193q17 71 53 195l47 160h108q10 0 14 -2.5t7 -11.5l47 -150q41 -134 55 -192q18 68 57 189l49 153q4 14 19 14
h114z" />
    <glyph glyph-name="x" unicode="x" horiz-adv-x="529" 
d="M526 0h-137q-14 0 -21 10l-110 155h-1l-102 -155q-7 -10 -21 -10h-131l176 252l-172 236h135q16 0 23 -11l99 -142l97 142q7 11 21 11h125l-165 -239z" />
    <glyph glyph-name="y" unicode="y" horiz-adv-x="531" 
d="M142 474l77 -191q41 -103 53 -149q19 66 49 145l73 195q6 14 20 14h118l-291 -724l-124 29l90 202l-207 493h122q14 0 20 -14z" />
    <glyph glyph-name="z" unicode="z" horiz-adv-x="485" 
d="M284 387h-244v101h409v-56q0 -14 -12 -30l-159 -203q-41 -54 -81 -98h257v-101h-420v60q0 16 11 31l175 222q29 37 64 74z" />
    <glyph glyph-name="braceleft" unicode="{" horiz-adv-x="381" 
d="M40 173v87q57 18 80.5 38.5t23.5 54.5q0 25 -12 95.5t-12 99.5q0 61 40 93t105 32q41 0 105 -16v-79l-104 -21q-19 -4 -19 -23q0 -12 11 -80t11 -101q0 -48 -27 -80t-97 -57q70 -24 97 -56t27 -81q0 -32 -11 -100.5t-11 -79.5q0 -19 19 -23l104 -22v-78q-57 -16 -105 -16
q-65 0 -105 31.5t-40 93.5q0 29 12 99t12 95q0 34 -23 54.5t-81 39.5z" />
    <glyph glyph-name="bar" unicode="|" horiz-adv-x="274" 
d="M76 -229v938h122v-938h-122z" />
    <glyph glyph-name="braceright" unicode="}" horiz-adv-x="381" 
d="M341 260v-87q-58 -19 -81 -39.5t-23 -54.5q0 -25 12 -95t12 -99q0 -62 -40 -93.5t-105 -31.5q-48 0 -105 16v78l104 22q19 4 19 23q0 11 -11 79.5t-11 100.5q0 49 27 81t97 56q-70 25 -97 57t-27 80q0 33 11 101t11 80q0 19 -19 23l-104 21v79q64 16 105 16q65 0 105 -32
t40 -93q0 -29 -12 -99.5t-12 -95.5q0 -34 23.5 -54.5t80.5 -38.5z" />
    <glyph glyph-name="asciitilde" unicode="~" horiz-adv-x="558" 
d="M356 278q-33 0 -86 23.5t-73 23.5q-37 0 -63 -48l-75 26q9 56 49.5 94t93.5 38q35 0 88 -23.5t72 -23.5q36 0 63 48l74 -25q-9 -56 -49.5 -94.5t-93.5 -38.5z" />
    <glyph glyph-name="nbspace" unicode="&#xa0;" horiz-adv-x="228" 
 />
    <glyph glyph-name="exclamdown" unicode="&#xa1;" horiz-adv-x="280" 
d="M67 379v109h136v-130h-114q-13 0 -17.5 5t-4.5 16zM177 293l16 -144q8 -80 8 -106v-218h-132v218q0 26 8 106l16 144h84z" />
    <glyph glyph-name="cent" unicode="&#xa2;" 
d="M522 158l42 -70q-78 -75 -177 -91l-15 -126h-72v124q-94 12 -148 79.5t-54 171.5q0 100 57.5 167.5t144.5 79.5l15 130h72v-132q62 -13 106 -55t60 -101l-82 -41l-45 43q-21 21 -39 32v-259q33 6 77 24zM228 248q0 -110 72 -135v266q-72 -24 -72 -131z" />
    <glyph glyph-name="sterling" unicode="&#xa3;" 
d="M589 112v-112h-497v68q0 21 15 38l29 35q27 33 29 64q0 17 -16 74h-92v67l69 17q-18 57 -18 101q0 92 65 150.5t169 58.5q85 0 150 -45.5t98 -113.5l-80 -55l-60 47q-57 44 -111 44q-46 0 -73 -24.5t-27 -63.5q0 -35 15 -88h193v-95h-165q13 -42 13 -66q0 -40 -36 -78
l-22 -23h352z" />
    <glyph glyph-name="currency" unicode="&#xa4;" 
d="M505 76l-75 74q-46 -25 -103 -25h-3q-58 0 -104 25l-74 -74l-83 82l75 75q-22 40 -22 98q0 57 22 98l-75 74l83 83l74 -74q46 25 104 25h3q57 0 103 -25l75 74l82 -83l-75 -74q22 -41 22 -98q0 -58 -22 -98l75 -75zM232 331q0 -48 23.5 -74t68.5 -26h3q91 0 91 100
q0 48 -23 74t-68 26h-3q-45 0 -68.5 -26t-23.5 -74z" />
    <glyph glyph-name="yen" unicode="&#xa5;" 
d="M506 663h132l-204 -376h102v-82h-140v-32h140v-82h-140v-91h-138v91h-138v82h138v32h-138v82h98l-206 376h139q13 0 19 -11l88 -167q38 -74 70 -151q28 68 71 151l88 167q5 11 19 11z" />
    <glyph glyph-name="brokenbar" unicode="&#xa6;" horiz-adv-x="274" 
d="M76 291v418h122v-418h-122zM76 -229v418h122v-418h-122z" />
    <glyph glyph-name="section" unicode="&#xa7;" horiz-adv-x="616" 
d="M488 72q53 -48 53 -125q0 -89 -70.5 -138t-168.5 -49q-111 0 -214 56l28 90l60 -11q72 -14 118 -14q54 0 83.5 18.5t29.5 51.5q0 28 -19.5 43.5t-66.5 28.5l-57 16q-98 27 -149.5 70t-51.5 123q0 71 64 128q-52 49 -52 126q0 88 71 137.5t168 49.5q112 0 214 -57l-28 -89
l-60 11q-79 14 -118 14q-54 0 -83 -19t-29 -52q0 -27 20 -43.5t65 -28.5l57 -16q99 -28 150 -70t51 -122q0 -69 -65 -129zM398 126q30 33 30 67q0 30 -22 46.5t-77 32.5l-59 17q-35 9 -53 18q-29 -32 -29 -66q0 -30 21.5 -46.5t76.5 -32.5l60 -17q29 -8 52 -19z" />
    <glyph glyph-name="dieresis" unicode="&#xa8;" horiz-adv-x="415" 
d="M168 670v-99h-126v121h102q14 0 19 -5t5 -17zM373 670v-99h-126v121h102q14 0 19 -5t5 -17z" />
    <glyph glyph-name="copyright" unicode="&#xa9;" horiz-adv-x="769" 
d="M486 298l29 -46q-24 -29 -60.5 -47t-73.5 -18q-61 0 -101 41.5t-40 106.5t41.5 105.5t101.5 40.5q41 0 74 -23.5t51 -66.5l-48 -34l-33 29q-25 22 -48 22q-26 0 -42 -18.5t-16 -55.5q0 -73 67 -73q23 0 51 14zM724 332q0 -144 -98.5 -243t-241.5 -99t-241.5 99t-98.5 243
t98.5 242.5t241.5 98.5t241.5 -98.5t98.5 -242.5zM625 332q0 111 -65.5 179.5t-175.5 68.5t-175.5 -68.5t-65.5 -179.5q0 -112 65.5 -180.5t175.5 -68.5t175.5 68.5t65.5 180.5z" />
    <glyph glyph-name="ordfeminine" unicode="&#xaa;" horiz-adv-x="490" 
d="M290 489v26q0 34 -17.5 47.5t-53.5 13.5q-30 0 -92 -19l-35 -11l-33 62q89 65 174 65q77 0 122 -40t45 -120v-158l46 -10v-60q-33 -20 -67 -20q-40 0 -73 33q-64 -40 -118 -40q-64 0 -105 38t-41 94q0 52 37 81.5t102 29.5h5q56 0 104 -12zM290 378v39q0 7 -7 7h-109
q-26 0 -26 -29q0 -20 15.5 -32.5t44.5 -12.5q40 0 68 12q14 6 14 16z" />
    <glyph glyph-name="guillemotleft" unicode="&#xab;" horiz-adv-x="641" 
d="M41 223v55l228 180l58 -58l-147 -155v-2l147 -154l-58 -59l-218 172q-10 8 -10 21zM312 223v55l228 180l58 -58l-147 -155v-2l147 -154l-58 -59l-218 172q-10 8 -10 21z" />
    <glyph glyph-name="logicalnot" unicode="&#xac;" horiz-adv-x="558" 
d="M484 401v-311h-110v201h-301v110h411z" />
    <glyph glyph-name="uni00AD" unicode="&#xad;" horiz-adv-x="423" 
d="M374 189h-325v109h325v-109z" />
    <glyph glyph-name="registered" unicode="&#xae;" horiz-adv-x="769" 
d="M431 200l-36 70q-5 10 -7 12t-6 2h-41v-94h-80v287h136q113 0 113 -92q0 -47 -49 -82l61 -113h-76q-11 0 -15 10zM724 332q0 -144 -98.5 -243t-241.5 -99t-241.5 99t-98.5 243t98.5 242.5t241.5 98.5t241.5 -98.5t98.5 -242.5zM625 332q0 111 -65.5 179.5t-175.5 68.5
t-175.5 -68.5t-65.5 -179.5q0 -112 65.5 -180.5t175.5 -68.5t175.5 68.5t65.5 180.5zM341 414v-69h68q8 0 13 6q9 12 9 30q0 15 -9 24t-35 9h-46z" />
    <glyph glyph-name="macron" unicode="&#xaf;" horiz-adv-x="415" 
d="M366 585h-317v97h317v-97z" />
    <glyph glyph-name="degree" unicode="&#xb0;" horiz-adv-x="460" 
d="M155 498q0 -37 19.5 -56.5t54.5 -19.5h2q35 0 54.5 19.5t19.5 56.5q0 36 -19.5 55.5t-54.5 19.5h-2q-35 0 -54.5 -19.5t-19.5 -55.5zM409 498q0 -80 -53.5 -127.5t-124.5 -47.5h-2q-71 0 -124.5 47.5t-53.5 127.5t53.5 127.5t124.5 47.5h2q71 0 124.5 -47.5t53.5 -127.5z
" />
    <glyph glyph-name="plusminus" unicode="&#xb1;" horiz-adv-x="558" 
d="M333 294v-117h-110v117h-150v110h150v116h110v-116h151v-110h-151zM484 0h-411v110h411v-110z" />
    <glyph glyph-name="twosuperior" unicode="&#xb2;" horiz-adv-x="398" 
d="M201 415h123v-79h-255v44q0 11 11 22l94 89q48 47 48 70q0 29 -36 29q-24 0 -65 -15l-38 -14l-29 56q64 56 139 56q56 0 90.5 -30t34.5 -74q0 -32 -16.5 -59t-61.5 -63z" />
    <glyph glyph-name="threesuperior" unicode="&#xb3;" horiz-adv-x="398" 
d="M149 534h71q5 0 9 6q5 9 5 23q0 29 -40 29q-25 0 -61 -10l-42 -12l-25 56q69 47 137 47q53 0 88 -26.5t35 -67.5q0 -40 -31 -68q40 -22 40 -70t-37 -80t-97 -32q-82 0 -145 56l27 51l56 -17q33 -9 56 -9q44 0 44 33q0 27 -37 27h-39q-14 0 -14 11v53z" />
    <glyph glyph-name="acute" unicode="&#xb4;" horiz-adv-x="416" 
d="M341 658l-225 -116l-41 57l183 140q10 7 16 7q8 0 16 -12z" />
    <glyph glyph-name="uni00B5" unicode="&#xb5;" horiz-adv-x="569" 
d="M58 -229v717h129v-302q0 -36 16 -53q19 -20 76 -20q56 0 90 13q10 4 10 20v342h129v-488h-98l-17 42l-28 -15q-66 -35 -116 -35q-35 0 -62 9v-230h-129z" />
    <glyph glyph-name="paragraph" unicode="&#xb6;" horiz-adv-x="589" 
d="M333 -229h-100v601h-106q-51 0 -68.5 17t-17.5 58v216h541v-96h-81v-796h-100v796h-68v-796z" />
    <glyph glyph-name="periodcentered" unicode="&#xb7;" horiz-adv-x="239" 
d="M188 321v-112h-138v137h111q27 0 27 -25z" />
    <glyph glyph-name="cedilla" unicode="&#xb8;" horiz-adv-x="417" 
d="M168 18l58 -13q-23 -28 -23 -42q0 -9 17 -16.5t37 -13.5t37 -23t17 -44q0 -48 -48.5 -78t-139.5 -30l-13 70l33 5q60 9 60 27q0 8 -24.5 16t-48.5 22t-24 36q0 19 15 37t47 47z" />
    <glyph glyph-name="onesuperior" unicode="&#xb9;" horiz-adv-x="398" 
d="M80 336v79h86v156q-20 -10 -47 -18l-30 -9l-27 69l120 52q9 4 24 4h56v-254h64v-79h-246z" />
    <glyph glyph-name="ordmasculine" unicode="&#xba;" horiz-adv-x="490" 
d="M450 466q0 -95 -59.5 -150.5t-145.5 -55.5t-145.5 55.5t-59.5 150.5t59.5 151t145.5 56t145.5 -56t59.5 -151zM337 466q0 48 -23.5 75t-68.5 27t-68.5 -27t-23.5 -75t23.5 -75t68.5 -27t68.5 27t23.5 75z" />
    <glyph glyph-name="guillemotright" unicode="&#xbb;" horiz-adv-x="641" 
d="M599 265v-55l-228 -180l-58 58l147 155v2l-147 154l58 59l218 -172q10 -8 10 -21zM328 265v-55l-228 -180l-58 58l147 155v2l-147 154l58 59l218 -172q10 -8 10 -21z" />
    <glyph glyph-name="onequarter" unicode="&#xbc;" horiz-adv-x="929" 
d="M638 144h72v91q-4 -7 -18 -25l-35 -45q-13 -16 -19 -21zM559 155l131 166q6 8 10 10t14 2h89v-189h52v-73h-52v-71h-93v71h-163v54q0 15 12 30zM371 0h-119l327 663h120zM98 336v79h86v156q-20 -10 -47 -18l-30 -9l-27 69l120 52q9 4 24 4h56v-254h64v-79h-246z" />
    <glyph glyph-name="onehalf" unicode="&#xbd;" horiz-adv-x="929" 
d="M371 0h-119l327 663h120zM98 336v79h86v156q-20 -10 -47 -18l-30 -9l-27 69l120 52q9 4 24 4h56v-254h64v-79h-246zM724 79h123v-79h-255v44q0 11 11 22l94 89q48 47 48 70q0 29 -36 29q-24 0 -65 -15l-38 -14l-29 56q64 56 139 56q56 0 90.5 -30t34.5 -74
q0 -32 -16.5 -59t-61.5 -63z" />
    <glyph glyph-name="threequarters" unicode="&#xbe;" horiz-adv-x="929" 
d="M638 144h72v91q-4 -7 -18 -25l-35 -45q-13 -16 -19 -21zM559 155l131 166q6 8 10 10t14 2h89v-189h52v-73h-52v-71h-93v71h-163v54q0 15 12 30zM371 0h-119l327 663h120zM179 534h71q5 0 9 6q5 9 5 23q0 29 -40 29q-25 0 -61 -10l-42 -12l-25 56q69 47 137 47
q53 0 88 -26.5t35 -67.5q0 -40 -31 -68q40 -22 40 -70t-37 -80t-97 -32q-82 0 -145 56l27 51l56 -17q33 -9 56 -9q44 0 44 33q0 27 -37 27h-39q-14 0 -14 11v53z" />
    <glyph glyph-name="questiondown" unicode="&#xbf;" horiz-adv-x="528" 
d="M262 298h86l12 -68q5 -26 5 -40q0 -17 -8 -27.5t-29 -22.5l-36 -21q-37 -22 -51 -30.5t-31.5 -23.5t-22.5 -28t-5 -32q0 -32 24.5 -50t66.5 -18q55 0 131 28l60 22l46 -78q-50 -42 -115.5 -68t-128.5 -26q-92 0 -155.5 51t-63.5 140q0 137 195 204zM238 386v102h132v-123
h-110q-12 0 -17 4.5t-5 16.5z" />
    <glyph glyph-name="Agrave" unicode="&#xc0;" horiz-adv-x="705" 
d="M542 12l-48 121h-292l-44 -121q-3 -8 -6 -10t-12 -2h-127l255 663h136q14 0 20 -13l268 -650h-131q-14 0 -19 12zM278 341l-35 -97h207l-46 119q-46 117 -61 167q-15 -50 -65 -189zM434 719l-225 116l51 76q8 12 16 12q6 0 16 -7l183 -140z" />
    <glyph glyph-name="Aacute" unicode="&#xc1;" horiz-adv-x="705" 
d="M542 12l-48 121h-292l-44 -121q-3 -8 -6 -10t-12 -2h-127l255 663h136q14 0 20 -13l268 -650h-131q-14 0 -19 12zM278 341l-35 -97h207l-46 119q-46 117 -61 167q-15 -50 -65 -189zM484 835l-225 -116l-41 57l183 140q10 7 16 7q9 0 16 -12z" />
    <glyph glyph-name="Acircumflex" unicode="&#xc2;" horiz-adv-x="705" 
d="M542 12l-48 121h-292l-44 -121q-3 -8 -6 -10t-12 -2h-127l255 663h136q14 0 20 -13l268 -650h-131q-14 0 -19 12zM278 341l-35 -97h207l-46 119q-46 117 -61 167q-15 -50 -65 -189zM471 719l-127 94l-128 -94l-52 50l128 127q13 13 31 13h41q18 0 31 -13l128 -127z" />
    <glyph glyph-name="Atilde" unicode="&#xc3;" horiz-adv-x="705" 
d="M542 12l-48 121h-292l-44 -121q-3 -8 -6 -10t-12 -2h-127l255 663h136q14 0 20 -13l268 -650h-131q-14 0 -19 12zM278 341l-35 -97h207l-46 119q-46 117 -61 167q-15 -50 -65 -189zM458 880l69 -19q-8 -53 -38 -88t-78 -35q-31 0 -73 23t-56 23q-15 0 -26.5 -11.5
t-25.5 -37.5l-69 19q7 53 37.5 88t77.5 35q31 0 73 -23t57 -23q24 0 52 49z" />
    <glyph glyph-name="Adieresis" unicode="&#xc4;" horiz-adv-x="705" 
d="M542 12l-48 121h-292l-44 -121q-3 -8 -6 -10t-12 -2h-127l255 663h136q14 0 20 -13l268 -650h-131q-14 0 -19 12zM278 341l-35 -97h207l-46 119q-46 117 -61 167q-15 -50 -65 -189zM305 847v-99h-126v121h102q14 0 19 -5t5 -17zM510 847v-99h-126v121h102q14 0 19 -5
t5 -17z" />
    <glyph glyph-name="Aring" unicode="&#xc5;" horiz-adv-x="705" 
d="M344 713q53 0 53 51t-53 51q-54 0 -54 -51t54 -51zM13 0l254 661q-53 34 -53 103q0 56 37 90.5t93 34.5t93 -34.5t37 -90.5q0 -67 -55 -103l273 -661h-131q-14 0 -19 12l-48 121h-292l-44 -121q-3 -8 -6 -10t-12 -2h-127zM278 341l-35 -97h207l-46 119q-46 117 -61 167
q-15 -50 -65 -189z" />
    <glyph glyph-name="AE" unicode="&#xc6;" horiz-adv-x="1016" 
d="M238 133l-75 -121q-7 -12 -24 -12h-139l423 663h528v-116h-340v-151h307v-115h-307v-165h350v-116h-488v133h-235zM369 347l-62 -103h166v280q-20 -38 -104 -177z" />
    <glyph glyph-name="Ccedilla" unicode="&#xc7;" horiz-adv-x="682" 
d="M604 205l54 -70q-52 -59 -123.5 -98.5t-152.5 -45.5q-12 -16 -12 -28q0 -9 17 -16.5t37 -13.5t37 -23t17 -44q0 -48 -48.5 -78t-139.5 -30l-13 70l33 5q60 9 60 27q0 7 -15 13.5t-33.5 12t-33.5 18t-15 30.5q0 26 35 59q-124 16 -198 109.5t-74 228.5q0 154 93.5 248
t228.5 94q103 0 176 -52.5t108 -146.5l-89 -57l-61 56q-74 68 -144 68q-73 0 -120.5 -53.5t-47.5 -155.5q0 -96 49.5 -153t139.5 -57q63 0 134 34z" />
    <glyph glyph-name="Egrave" unicode="&#xc8;" horiz-adv-x="611" 
d="M68 663h478v-116h-340v-151h307v-115h-307v-165h350v-116h-488v663zM405 719l-225 116l51 76q7 12 16 12q6 0 16 -7l183 -140z" />
    <glyph glyph-name="Eacute" unicode="&#xc9;" horiz-adv-x="611" 
d="M68 663h478v-116h-340v-151h307v-115h-307v-165h350v-116h-488v663zM446 835l-225 -116l-41 57l183 140q10 7 16 7q9 0 16 -12z" />
    <glyph glyph-name="Ecircumflex" unicode="&#xca;" horiz-adv-x="611" 
d="M68 663h478v-116h-340v-151h307v-115h-307v-165h350v-116h-488v663zM434 719l-127 94l-128 -94l-52 50l128 127q13 13 31 13h41q18 0 31 -13l128 -127z" />
    <glyph glyph-name="Edieresis" unicode="&#xcb;" horiz-adv-x="611" 
d="M68 663h478v-116h-340v-151h307v-115h-307v-165h350v-116h-488v663zM267 847v-99h-126v121h102q14 0 19 -5t5 -17zM472 847v-99h-126v121h102q14 0 19 -5t5 -17z" />
    <glyph glyph-name="Igrave" unicode="&#xcc;" horiz-adv-x="280" 
d="M71 0v663h138v-663h-138zM232 719l-225 116l51 76q7 12 16 12q6 0 16 -7l183 -140z" />
    <glyph glyph-name="Iacute" unicode="&#xcd;" horiz-adv-x="280" 
d="M71 0v663h138v-663h-138zM273 835l-225 -116l-41 57l183 140q10 7 16 7q8 0 16 -12z" />
    <glyph glyph-name="Icircumflex" unicode="&#xce;" horiz-adv-x="280" 
d="M71 0v663h138v-663h-138zM268 719l-127 94l-128 -94l-52 50l128 127q13 13 31 13h41q18 0 31 -13l128 -127z" />
    <glyph glyph-name="Idieresis" unicode="&#xcf;" horiz-adv-x="280" 
d="M71 0v663h138v-663h-138zM100 847v-99h-126v121h102q14 0 19 -5t5 -17zM305 847v-99h-126v121h102q14 0 19 -5t5 -17z" />
    <glyph glyph-name="Eth" unicode="&#xd0;" horiz-adv-x="741" 
d="M311 0h-221v286h-80v104h80v273h221q200 0 296 -83q98 -84 98 -249q0 -164 -98 -248q-96 -83 -296 -83zM228 120h79q148 0 204 55q51 50 51 157q0 106 -51 156q-56 55 -204 55h-79v-153h140v-104h-140v-166z" />
    <glyph glyph-name="Ntilde" unicode="&#xd1;" horiz-adv-x="738" 
d="M540 211v452h133v-663h-103q-16 0 -26 12l-257 323q-37 47 -89 118v-453h-133v663h104q15 0 25 -12l237 -297q82 -102 109 -143zM484 880l69 -19q-8 -53 -38 -88t-78 -35q-31 0 -73 23t-56 23q-15 0 -26.5 -11.5t-25.5 -37.5l-69 19q7 53 37.5 88t77.5 35q31 0 73 -23
t57 -23q24 0 52 49z" />
    <glyph glyph-name="Ograve" unicode="&#xd2;" horiz-adv-x="740" 
d="M369 -10q-136 0 -234.5 94.5t-98.5 246.5t98 247t235 95h2q137 0 235 -95t98 -247t-98.5 -246.5t-234.5 -94.5h-2zM180 331q0 -98 50.5 -152.5t138.5 -54.5h2q88 0 138.5 54.5t50.5 152.5q0 99 -50 153t-139 54h-2q-89 0 -139 -54t-50 -153zM462 719l-225 116l51 76
q8 12 16 12q6 0 16 -7l183 -140z" />
    <glyph glyph-name="Oacute" unicode="&#xd3;" horiz-adv-x="740" 
d="M369 -10q-136 0 -234.5 94.5t-98.5 246.5t98 247t235 95h2q137 0 235 -95t98 -247t-98.5 -246.5t-234.5 -94.5h-2zM180 331q0 -98 50.5 -152.5t138.5 -54.5h2q88 0 138.5 54.5t50.5 152.5q0 99 -50 153t-139 54h-2q-89 0 -139 -54t-50 -153zM507 835l-225 -116l-41 57
l183 140q10 7 16 7q9 0 16 -12z" />
    <glyph glyph-name="Ocircumflex" unicode="&#xd4;" horiz-adv-x="740" 
d="M369 -10q-136 0 -234.5 94.5t-98.5 246.5t98 247t235 95h2q137 0 235 -95t98 -247t-98.5 -246.5t-234.5 -94.5h-2zM180 331q0 -98 50.5 -152.5t138.5 -54.5h2q88 0 138.5 54.5t50.5 152.5q0 99 -50 153t-139 54h-2q-89 0 -139 -54t-50 -153zM497 719l-127 94l-128 -94
l-52 50l128 127q13 13 31 13h41q18 0 31 -13l128 -127z" />
    <glyph glyph-name="Otilde" unicode="&#xd5;" horiz-adv-x="740" 
d="M369 -10q-136 0 -234.5 94.5t-98.5 246.5t98 247t235 95h2q137 0 235 -95t98 -247t-98.5 -246.5t-234.5 -94.5h-2zM180 331q0 -98 50.5 -152.5t138.5 -54.5h2q88 0 138.5 54.5t50.5 152.5q0 99 -50 153t-139 54h-2q-89 0 -139 -54t-50 -153zM484 880l69 -19
q-8 -53 -38 -88t-78 -35q-31 0 -73 23t-56 23q-15 0 -26.5 -11.5t-25.5 -37.5l-69 19q7 53 37.5 88t77.5 35q31 0 73 -23t57 -23q24 0 52 49z" />
    <glyph glyph-name="Odieresis" unicode="&#xd6;" horiz-adv-x="740" 
d="M369 -10q-136 0 -234.5 94.5t-98.5 246.5t98 247t235 95h2q137 0 235 -95t98 -247t-98.5 -246.5t-234.5 -94.5h-2zM180 331q0 -98 50.5 -152.5t138.5 -54.5h2q88 0 138.5 54.5t50.5 152.5q0 99 -50 153t-139 54h-2q-89 0 -139 -54t-50 -153zM330 847v-99h-126v121h102
q14 0 19 -5t5 -17zM535 847v-99h-126v121h102q14 0 19 -5t5 -17z" />
    <glyph glyph-name="multiply" unicode="&#xd7;" horiz-adv-x="558" 
d="M356 245l107 -107l-78 -78l-107 107l-106 -106l-78 78l106 106l-106 106l78 78l106 -106l107 107l78 -78z" />
    <glyph glyph-name="Oslash" unicode="&#xd8;" horiz-adv-x="740" 
d="M371 -10q-100 0 -178 48l-66 -86l-76 55l70 91q-85 95 -85 233q0 152 98 247t235 95h2q87 0 161 -41l65 84l76 -55l-66 -85q97 -97 97 -245q0 -152 -98.5 -246.5t-234.5 -94.5zM560 331q0 86 -37 136l-248 -322q39 -21 94 -21h2q88 0 138.5 54.5t50.5 152.5zM180 331
q0 -70 27 -121l242 315q-32 13 -78 13h-2q-89 0 -139 -54t-50 -153z" />
    <glyph glyph-name="Ugrave" unicode="&#xd9;" horiz-adv-x="707" 
d="M646 663v-390q0 -133 -71 -204q-77 -79 -222 -79q-142 0 -221 79q-71 71 -71 204v390h138v-378q0 -90 34 -124q41 -39 122 -39q83 0 122 39q34 34 34 124v378h135zM441 719l-225 116l51 76q7 12 16 12q6 0 16 -7l183 -140z" />
    <glyph glyph-name="Uacute" unicode="&#xda;" horiz-adv-x="707" 
d="M646 663v-390q0 -133 -71 -204q-77 -79 -222 -79q-142 0 -221 79q-71 71 -71 204v390h138v-378q0 -90 34 -124q41 -39 122 -39q83 0 122 39q34 34 34 124v378h135zM493 835l-225 -116l-41 57l183 140q10 7 16 7q8 0 16 -12z" />
    <glyph glyph-name="Ucircumflex" unicode="&#xdb;" horiz-adv-x="707" 
d="M646 663v-390q0 -133 -71 -204q-77 -79 -222 -79q-142 0 -221 79q-71 71 -71 204v390h138v-378q0 -90 34 -124q41 -39 122 -39q83 0 122 39q34 34 34 124v378h135zM482 719l-127 94l-128 -94l-52 50l128 127q13 13 31 13h41q18 0 31 -13l128 -127z" />
    <glyph glyph-name="Udieresis" unicode="&#xdc;" horiz-adv-x="707" 
d="M646 663v-390q0 -133 -71 -204q-77 -79 -222 -79q-142 0 -221 79q-71 71 -71 204v390h138v-378q0 -90 34 -124q41 -39 122 -39q83 0 122 39q34 34 34 124v378h135zM313 847v-99h-126v121h102q14 0 19 -5t5 -17zM518 847v-99h-126v121h102q14 0 19 -5t5 -17z" />
    <glyph glyph-name="Yacute" unicode="&#xdd;" horiz-adv-x="669" 
d="M669 663l-264 -452v-211h-138v211l-267 452h141q13 0 19 -11l87 -153q31 -55 91 -173q23 48 93 175l84 150q7 12 20 12h134zM479 835l-225 -116l-41 57l183 140q10 7 16 7q8 0 16 -12z" />
    <glyph glyph-name="Thorn" unicode="&#xde;" horiz-adv-x="643" 
d="M206 107v-107h-138v663h138v-104h121q156 0 222 -66q56 -58 56 -158q0 -110 -64 -171q-62 -57 -181 -57h-154zM206 221h190q30 0 42 18q26 36 26 95q0 55 -27 80q-28 27 -102 27h-129v-220z" />
    <glyph glyph-name="germandbls" unicode="&#xdf;" horiz-adv-x="679" 
d="M270 47l32 77l44 -12q60 -16 102 -16q35 0 57 14t22 37q0 18 -13.5 29t-53.5 25l-55 20q-68 24 -97.5 52t-29.5 71q0 55 58 102l71 57q26 21 33.5 30t7.5 21q0 24 -26 39.5t-74 15.5q-128 0 -128 -125v-484h-129v387h-89v80l87 17q20 235 261 235q100 0 160.5 -46.5
t60.5 -115.5q0 -41 -22 -71t-72 -61l-41 -26q-21 -14 -28.5 -20.5t-7.5 -15.5t12 -16.5t49 -20.5l30 -11q79 -29 118 -65t39 -96q0 -73 -53 -118t-137 -45q-108 0 -188 56z" />
    <glyph glyph-name="agrave" unicode="&#xe0;" horiz-adv-x="551" 
d="M342 275v32q0 38 -18 56q-21 21 -72 21q-49 0 -119 -24l-41 -14l-40 70q104 80 215 80q103 0 156 -56q48 -50 48 -141v-198l67 -13v-69q-42 -21 -92 -21q-48 0 -86 43l-26 -14q-66 -35 -125 -35q-79 0 -129 47t-50 117q0 65 45.5 101.5t124.5 36.5h3q70 0 139 -19z
M342 133v57q0 10 -11 10h-140q-38 0 -38 -39q0 -29 20.5 -46.5t59.5 -17.5q51 0 96 19q13 5 13 17zM365 542l-225 116l51 76q7 12 16 12q6 0 16 -7l183 -140z" />
    <glyph glyph-name="aacute" unicode="&#xe1;" horiz-adv-x="551" 
d="M342 275v32q0 38 -18 56q-21 21 -72 21q-49 0 -119 -24l-41 -14l-40 70q104 80 215 80q103 0 156 -56q48 -50 48 -141v-198l67 -13v-69q-42 -21 -92 -21q-48 0 -86 43l-26 -14q-66 -35 -125 -35q-79 0 -129 47t-50 117q0 65 45.5 101.5t124.5 36.5h3q70 0 139 -19z
M342 133v57q0 10 -11 10h-140q-38 0 -38 -39q0 -29 20.5 -46.5t59.5 -17.5q51 0 96 19q13 5 13 17zM410 658l-225 -116l-41 57l183 140q10 7 16 7q9 0 16 -12z" />
    <glyph glyph-name="acircumflex" unicode="&#xe2;" horiz-adv-x="551" 
d="M342 275v32q0 38 -18 56q-21 21 -72 21q-49 0 -119 -24l-41 -14l-40 70q104 80 215 80q103 0 156 -56q48 -50 48 -141v-198l67 -13v-69q-42 -21 -92 -21q-48 0 -86 43l-26 -14q-66 -35 -125 -35q-79 0 -129 47t-50 117q0 65 45.5 101.5t124.5 36.5h3q70 0 139 -19z
M342 133v57q0 10 -11 10h-140q-38 0 -38 -39q0 -29 20.5 -46.5t59.5 -17.5q51 0 96 19q13 5 13 17zM400 542l-127 94l-128 -94l-52 50l128 127q13 13 31 13h41q18 0 31 -13l128 -127z" />
    <glyph glyph-name="atilde" unicode="&#xe3;" horiz-adv-x="551" 
d="M342 275v32q0 38 -18 56q-21 21 -72 21q-49 0 -119 -24l-41 -14l-40 70q104 80 215 80q103 0 156 -56q48 -50 48 -141v-198l67 -13v-69q-42 -21 -92 -21q-48 0 -86 43l-26 -14q-66 -35 -125 -35q-79 0 -129 47t-50 117q0 65 45.5 101.5t124.5 36.5h3q70 0 139 -19z
M342 133v57q0 10 -11 10h-140q-38 0 -38 -39q0 -29 20.5 -46.5t59.5 -17.5q51 0 96 19q13 5 13 17zM387 703l69 -19q-8 -53 -38 -88t-78 -35q-31 0 -73 23t-56 23q-15 0 -26.5 -11.5t-25.5 -37.5l-69 19q7 53 37.5 88t77.5 35q31 0 73 -23t57 -23q24 0 52 49z" />
    <glyph glyph-name="adieresis" unicode="&#xe4;" horiz-adv-x="551" 
d="M342 275v32q0 38 -18 56q-21 21 -72 21q-49 0 -119 -24l-41 -14l-40 70q104 80 215 80q103 0 156 -56q48 -50 48 -141v-198l67 -13v-69q-42 -21 -92 -21q-48 0 -86 43l-26 -14q-66 -35 -125 -35q-79 0 -129 47t-50 117q0 65 45.5 101.5t124.5 36.5h3q70 0 139 -19z
M342 133v57q0 10 -11 10h-140q-38 0 -38 -39q0 -29 20.5 -46.5t59.5 -17.5q51 0 96 19q13 5 13 17zM234 670v-99h-126v121h102q14 0 19 -5t5 -17zM439 670v-99h-126v121h102q14 0 19 -5t5 -17z" />
    <glyph glyph-name="aring" unicode="&#xe5;" horiz-adv-x="551" 
d="M342 275v32q0 38 -18 56q-21 21 -72 21q-49 0 -119 -24l-41 -14l-40 70q104 80 215 80q103 0 156 -56q48 -50 48 -141v-198l67 -13v-69q-42 -21 -92 -21q-48 0 -86 43l-26 -14q-66 -35 -125 -35q-79 0 -129 47t-50 117q0 65 45.5 101.5t124.5 36.5h3q70 0 139 -19z
M342 133v57q0 10 -11 10h-140q-38 0 -38 -39q0 -29 20.5 -46.5t59.5 -17.5q51 0 96 19q13 5 13 17zM272 795q56 0 93 -34.5t37 -90.5t-37 -90.5t-93 -34.5t-93 34.5t-37 90.5t37 90.5t93 34.5zM272 619q53 0 53 51t-53 51q-54 0 -54 -51t54 -51z" />
    <glyph glyph-name="ae" unicode="&#xe6;" horiz-adv-x="853" 
d="M243 96q63 0 120 31q-16 36 -21 77h-143q-44 0 -44 -41q0 -28 23.5 -47.5t64.5 -19.5zM796 204h-324q5 -45 39 -71.5t92 -26.5q42 0 105 21l61 21l41 -71q-97 -85 -221 -85q-107 0 -173 66l-38 -22q-75 -44 -155 -44t-135.5 46.5t-55.5 119.5q0 67 47 104t123 37h5
q72 0 134 -18v29q0 41 -22 57t-66 16q-52 0 -119 -23l-41 -14l-39 70q104 80 212 80q93 0 154 -61q67 61 161 61q103 0 171.5 -68t68.5 -167q0 -27 -5 -43q-5 -14 -20 -14zM472 295h221q-4 40 -33.5 64t-77.5 24t-76.5 -23.5t-33.5 -64.5z" />
    <glyph glyph-name="ccedilla" unicode="&#xe7;" horiz-adv-x="516" 
d="M454 156l43 -70q-39 -36 -91.5 -61.5t-105.5 -30.5q-14 -20 -14 -31q0 -9 17 -16.5t37 -13.5t37 -23t17 -44q0 -48 -48.5 -78t-139.5 -30l-13 70l33 5q60 9 60 27q0 8 -24.5 16t-48.5 22t-24 36q0 25 37 62q-90 14 -143 81t-53 169q0 110 70.5 180t168.5 70
q82 0 142 -46.5t79 -118.5l-85 -43l-45 44q-50 49 -97 49q-44 0 -72.5 -34.5t-28.5 -98.5q0 -73 30.5 -107t93.5 -34q45 0 110 26z" />
    <glyph glyph-name="egrave" unicode="&#xe8;" horiz-adv-x="543" 
d="M511 263q0 -30 -5 -46q-4 -13 -21 -13h-323q5 -46 38 -72t91 -26q46 0 113 23l55 19l41 -72q-45 -38 -103.5 -61t-117.5 -23q-107 0 -178 70.5t-71 180.5q0 113 70.5 183t173.5 70t170 -67.5t67 -165.5zM162 295h221q-4 40 -33.5 64t-76.5 24q-48 0 -77 -24t-34 -64z
M369 542l-225 116l51 76q7 12 16 12q6 0 16 -7l183 -140z" />
    <glyph glyph-name="eacute" unicode="&#xe9;" horiz-adv-x="543" 
d="M511 263q0 -30 -5 -46q-4 -13 -21 -13h-323q5 -46 38 -72t91 -26q46 0 113 23l55 19l41 -72q-45 -38 -103.5 -61t-117.5 -23q-107 0 -178 70.5t-71 180.5q0 113 70.5 183t173.5 70t170 -67.5t67 -165.5zM162 295h221q-4 40 -33.5 64t-76.5 24q-48 0 -77 -24t-34 -64z
M408 658l-225 -116l-41 57l183 140q10 7 16 7q9 0 16 -12z" />
    <glyph glyph-name="ecircumflex" unicode="&#xea;" horiz-adv-x="543" 
d="M511 263q0 -30 -5 -46q-4 -13 -21 -13h-323q5 -46 38 -72t91 -26q46 0 113 23l55 19l41 -72q-45 -38 -103.5 -61t-117.5 -23q-107 0 -178 70.5t-71 180.5q0 113 70.5 183t173.5 70t170 -67.5t67 -165.5zM162 295h221q-4 40 -33.5 64t-76.5 24q-48 0 -77 -24t-34 -64z
M400 542l-127 94l-128 -94l-52 50l128 127q13 13 31 13h41q18 0 31 -13l128 -127z" />
    <glyph glyph-name="edieresis" unicode="&#xeb;" horiz-adv-x="543" 
d="M511 263q0 -30 -5 -46q-4 -13 -21 -13h-323q5 -46 38 -72t91 -26q46 0 113 23l55 19l41 -72q-45 -38 -103.5 -61t-117.5 -23q-107 0 -178 70.5t-71 180.5q0 113 70.5 183t173.5 70t170 -67.5t67 -165.5zM162 295h221q-4 40 -33.5 64t-76.5 24q-48 0 -77 -24t-34 -64z
M232 670v-99h-126v121h102q14 0 19 -5t5 -17zM437 670v-99h-126v121h102q14 0 19 -5t5 -17z" />
    <glyph glyph-name="igrave" unicode="&#xec;" horiz-adv-x="249" 
d="M216 542l-225 116l51 76q8 12 16 12q6 0 16 -7l183 -140zM60 0v488h129v-488h-129z" />
    <glyph glyph-name="iacute" unicode="&#xed;" horiz-adv-x="249" 
d="M257 658l-225 -116l-41 57l183 140q10 7 16 7q8 0 16 -12zM60 0v488h129v-488h-129z" />
    <glyph glyph-name="icircumflex" unicode="&#xee;" horiz-adv-x="249" 
d="M60 0v488h129v-488h-129zM252 542l-127 94l-128 -94l-52 50l128 127q13 13 31 13h41q18 0 31 -13l128 -127z" />
    <glyph glyph-name="idieresis" unicode="&#xef;" horiz-adv-x="249" 
d="M85 670v-99h-126v121h102q14 0 19 -5t5 -17zM290 670v-99h-126v121h102q14 0 19 -5t5 -17zM60 0v488h129v-488h-129z" />
    <glyph glyph-name="eth" unicode="&#xf0;" horiz-adv-x="565" 
d="M156 499l-45 76l92 45l-73 41l39 68q85 -26 138 -58l128 63l45 -77l-92 -45q142 -132 142 -339q0 -132 -69 -207t-186 -75h-3q-108 0 -175 69.5t-67 174.5t65 168.5t159 63.5q59 0 113 -26q-25 73 -83 120zM399 263q0 38 -5 64q-2 12 -17 19q-36 16 -93 16h-4
q-119 0 -119 -127q0 -58 30.5 -93t88.5 -35q119 0 119 156z" />
    <glyph glyph-name="ntilde" unicode="&#xf1;" horiz-adv-x="563" 
d="M382 0v301q0 36 -16 52q-20 21 -75 21h-2q-56 0 -91 -14q-10 -4 -10 -19v-341h-129v488h98l16 -43l38 21q53 30 108 30q86 0 139 -50.5t53 -139.5v-306h-129zM405 703l69 -19q-8 -53 -38 -88t-78 -35q-31 0 -73 23t-56 23q-15 0 -26.5 -11.5t-25.5 -37.5l-69 19
q7 53 37.5 88t77.5 35q31 0 73 -23t57 -23q24 0 52 49z" />
    <glyph glyph-name="ograve" unicode="&#xf2;" horiz-adv-x="559" 
d="M529 244q0 -117 -72.5 -184.5t-175.5 -67.5h-3q-103 0 -175.5 67.5t-72.5 184.5q0 116 72.5 184t175.5 68h3q103 0 175.5 -68t72.5 -184zM397 244q0 131 -116 131h-3q-116 0 -116 -131q0 -132 116 -132h3q116 0 116 132zM371 542l-225 116l51 76q7 12 16 12q6 0 16 -7
l183 -140z" />
    <glyph glyph-name="oacute" unicode="&#xf3;" horiz-adv-x="559" 
d="M529 244q0 -117 -72.5 -184.5t-175.5 -67.5h-3q-103 0 -175.5 67.5t-72.5 184.5q0 116 72.5 184t175.5 68h3q103 0 175.5 -68t72.5 -184zM397 244q0 131 -116 131h-3q-116 0 -116 -131q0 -132 116 -132h3q116 0 116 132zM416 658l-225 -116l-41 57l183 140q10 7 16 7
q9 0 16 -12z" />
    <glyph glyph-name="ocircumflex" unicode="&#xf4;" horiz-adv-x="559" 
d="M529 244q0 -117 -72.5 -184.5t-175.5 -67.5h-3q-103 0 -175.5 67.5t-72.5 184.5q0 116 72.5 184t175.5 68h3q103 0 175.5 -68t72.5 -184zM397 244q0 131 -116 131h-3q-116 0 -116 -131q0 -132 116 -132h3q116 0 116 132zM406 542l-127 94l-128 -94l-52 50l128 127
q13 13 31 13h41q18 0 31 -13l128 -127z" />
    <glyph glyph-name="otilde" unicode="&#xf5;" horiz-adv-x="559" 
d="M529 244q0 -117 -72.5 -184.5t-175.5 -67.5h-3q-103 0 -175.5 67.5t-72.5 184.5q0 116 72.5 184t175.5 68h3q103 0 175.5 -68t72.5 -184zM397 244q0 131 -116 131h-3q-116 0 -116 -131q0 -132 116 -132h3q116 0 116 132zM393 703l69 -19q-8 -53 -38 -88t-78 -35
q-31 0 -73 23t-56 23q-15 0 -26.5 -11.5t-25.5 -37.5l-69 19q7 53 37.5 88t77.5 35q31 0 73 -23t57 -23q24 0 52 49z" />
    <glyph glyph-name="odieresis" unicode="&#xf6;" horiz-adv-x="559" 
d="M529 244q0 -117 -72.5 -184.5t-175.5 -67.5h-3q-103 0 -175.5 67.5t-72.5 184.5q0 116 72.5 184t175.5 68h3q103 0 175.5 -68t72.5 -184zM397 244q0 131 -116 131h-3q-116 0 -116 -131q0 -132 116 -132h3q116 0 116 132zM239 670v-99h-126v121h102q14 0 19 -5t5 -17z
M444 670v-99h-126v121h102q14 0 19 -5t5 -17z" />
    <glyph glyph-name="divide" unicode="&#xf7;" horiz-adv-x="558" 
d="M484 196h-411v110h411v-110zM341 121v-100h-126v122h103q14 0 18.5 -5t4.5 -17zM341 458v-100h-126v122h103q14 0 18.5 -5t4.5 -17z" />
    <glyph glyph-name="oslash" unicode="&#xf8;" horiz-adv-x="559" 
d="M529 244q0 -117 -72.5 -184.5t-175.5 -67.5h-3q-58 0 -110 23l-61 -88l-62 40l62 88q-77 70 -77 189q0 116 72.5 184t175.5 68h3q60 0 113 -25l60 85l62 -40l-61 -87q74 -71 74 -185zM162 244q0 -50 17 -84l145 209q-19 6 -43 6h-3q-116 0 -116 -131zM397 244
q0 48 -15 79q-27 -40 -77.5 -112t-65.5 -94q20 -5 39 -5h3q116 0 116 132z" />
    <glyph glyph-name="ugrave" unicode="&#xf9;" horiz-adv-x="561" 
d="M181 488v-302q0 -36 16 -53q19 -20 76 -20q56 0 90 13q10 4 10 20v342h129v-488h-98l-17 42l-28 -15q-66 -35 -116 -35q-86 0 -138.5 50t-52.5 140v306h129zM367 542l-225 116l51 76q8 12 16 12q6 0 16 -7l183 -140z" />
    <glyph glyph-name="uacute" unicode="&#xfa;" horiz-adv-x="561" 
d="M181 488v-302q0 -36 16 -53q19 -20 76 -20q56 0 90 13q10 4 10 20v342h129v-488h-98l-17 42l-28 -15q-66 -35 -116 -35q-86 0 -138.5 50t-52.5 140v306h129zM423 658l-225 -116l-41 57l183 140q10 7 16 7q8 0 16 -12z" />
    <glyph glyph-name="ucircumflex" unicode="&#xfb;" horiz-adv-x="561" 
d="M181 488v-302q0 -36 16 -53q19 -20 76 -20q56 0 90 13q10 4 10 20v342h129v-488h-98l-17 42l-28 -15q-66 -35 -116 -35q-86 0 -138.5 50t-52.5 140v306h129zM407 542l-127 94l-128 -94l-52 50l128 127q13 13 31 13h41q18 0 31 -13l128 -127z" />
    <glyph glyph-name="udieresis" unicode="&#xfc;" horiz-adv-x="561" 
d="M181 488v-302q0 -36 16 -53q19 -20 76 -20q56 0 90 13q10 4 10 20v342h129v-488h-98l-17 42l-28 -15q-66 -35 -116 -35q-86 0 -138.5 50t-52.5 140v306h129zM240 670v-99h-126v121h102q14 0 19 -5t5 -17zM445 670v-99h-126v121h102q14 0 19 -5t5 -17z" />
    <glyph glyph-name="yacute" unicode="&#xfd;" horiz-adv-x="531" 
d="M142 474l77 -191q41 -103 53 -149q19 66 49 145l73 195q6 14 20 14h118l-291 -724l-124 29l90 202l-207 493h122q14 0 20 -14zM414 658l-225 -116l-41 57l183 140q10 7 16 7q9 0 16 -12z" />
    <glyph glyph-name="thorn" unicode="&#xfe;" horiz-adv-x="573" 
d="M215 24l-28 14v-267h-129v938h129v-260l30 15q64 32 112 32q92 0 153 -70t61 -182q0 -114 -59.5 -183t-153.5 -69q-51 0 -115 32zM187 334v-183q0 -14 10 -19q46 -21 100 -21q58 0 86 30t28 103q0 71 -28 101t-86 30q-56 0 -100 -22q-10 -5 -10 -19z" />
    <glyph glyph-name="ydieresis" unicode="&#xff;" horiz-adv-x="531" 
d="M142 474l77 -191q41 -103 53 -149q19 66 49 145l73 195q6 14 20 14h118l-291 -724l-124 29l90 202l-207 493h122q14 0 20 -14zM226 670v-99h-126v121h102q14 0 19 -5t5 -17zM431 670v-99h-126v121h102q14 0 19 -5t5 -17z" />
    <glyph glyph-name="Amacron" unicode="&#x100;" horiz-adv-x="705" 
d="M542 12l-48 121h-292l-44 -121q-3 -8 -6 -10t-12 -2h-127l255 663h136q14 0 20 -13l268 -650h-131q-14 0 -19 12zM278 341l-35 -97h207l-46 119q-46 117 -61 167q-15 -50 -65 -189zM502 762h-317v97h317v-97z" />
    <glyph glyph-name="amacron" unicode="&#x101;" horiz-adv-x="551" 
d="M342 275v32q0 38 -18 56q-21 21 -72 21q-49 0 -119 -24l-41 -14l-40 70q104 80 215 80q103 0 156 -56q48 -50 48 -141v-198l67 -13v-69q-42 -21 -92 -21q-48 0 -86 43l-26 -14q-66 -35 -125 -35q-79 0 -129 47t-50 117q0 65 45.5 101.5t124.5 36.5h3q70 0 139 -19z
M342 133v57q0 10 -11 10h-140q-38 0 -38 -39q0 -29 20.5 -46.5t59.5 -17.5q51 0 96 19q13 5 13 17zM432 585h-317v97h317v-97z" />
    <glyph glyph-name="Abreve" unicode="&#x102;" horiz-adv-x="705" 
d="M542 12l-48 121h-292l-44 -121q-3 -8 -6 -10t-12 -2h-127l255 663h136q14 0 20 -13l268 -650h-131q-14 0 -19 12zM278 341l-35 -97h207l-46 119q-46 117 -61 167q-15 -50 -65 -189zM344 732q-71 0 -115 41t-53 108l81 13q26 -69 87 -69t86 69l82 -13q-9 -67 -53 -108
t-115 -41z" />
    <glyph glyph-name="abreve" unicode="&#x103;" horiz-adv-x="551" 
d="M342 275v32q0 38 -18 56q-21 21 -72 21q-49 0 -119 -24l-41 -14l-40 70q104 80 215 80q103 0 156 -56q48 -50 48 -141v-198l67 -13v-69q-42 -21 -92 -21q-48 0 -86 43l-26 -14q-66 -35 -125 -35q-79 0 -129 47t-50 117q0 65 45.5 101.5t124.5 36.5h3q70 0 139 -19z
M342 133v57q0 10 -11 10h-140q-38 0 -38 -39q0 -29 20.5 -46.5t59.5 -17.5q51 0 96 19q13 5 13 17zM274 555q-71 0 -115 41t-53 108l81 13q26 -69 87 -69t86 69l82 -13q-9 -67 -53 -108t-115 -41z" />
    <glyph glyph-name="Aogonek" unicode="&#x104;" horiz-adv-x="705" 
d="M538 21l-44 112h-292l-44 -121q-3 -8 -6 -10t-12 -2h-127l255 663h136q14 0 20 -13l268 -650h-61q-21 0 -38 -16q-37 -35 -37 -71q0 -47 61 -47q31 0 60 7l20 -67q-54 -27 -107 -27q-61 0 -98.5 30t-37.5 76q0 76 84 136zM278 341l-35 -97h207l-46 119q-46 117 -61 167
q-15 -50 -65 -189z" />
    <glyph glyph-name="aogonek" unicode="&#x105;" horiz-adv-x="551" 
d="M395 13q-20 8 -35 28l-26 -14q-66 -35 -125 -35q-79 0 -129 47t-50 117q0 65 45.5 101.5t124.5 36.5h3q70 0 139 -19v35q0 35 -16 51q-22 22 -73 22q-52 0 -119 -23l-41 -14l-39 70q104 80 213 80q90 0 147 -47t57 -146v-202l67 -13v-69q-148 -47 -148 -109q0 -47 63 -47
q23 0 58 7l21 -66q-54 -27 -108 -27q-61 0 -98 31t-37 78q0 41 29.5 74t76.5 53zM342 133v57q0 10 -11 10h-140q-38 0 -38 -39q0 -29 20.5 -46.5t59.5 -17.5q51 0 96 19q13 5 13 17z" />
    <glyph glyph-name="Cacute" unicode="&#x106;" horiz-adv-x="682" 
d="M604 205l54 -70q-56 -64 -135 -104.5t-169 -40.5q-143 0 -230.5 96.5t-87.5 244.5q0 154 93.5 248t228.5 94q103 0 176 -52.5t108 -146.5l-89 -57l-61 56q-74 68 -144 68q-73 0 -120.5 -53.5t-47.5 -155.5q0 -96 49.5 -153t139.5 -57q63 0 134 34zM489 835l-225 -116
l-41 57l183 140q10 7 16 7q8 0 16 -12z" />
    <glyph glyph-name="cacute" unicode="&#x107;" horiz-adv-x="516" 
d="M454 156l43 -70q-44 -41 -104.5 -67.5t-120.5 -26.5q-109 0 -175.5 69.5t-66.5 184.5q0 110 70.5 180t168.5 70q82 0 142 -46.5t79 -118.5l-85 -43l-45 44q-50 49 -97 49q-44 0 -72.5 -34.5t-28.5 -98.5q0 -73 30.5 -107t93.5 -34q45 0 110 26zM405 658l-225 -116l-41 57
l183 140q10 7 16 7q8 0 16 -12z" />
    <glyph glyph-name="Ccircumflex" unicode="&#x108;" horiz-adv-x="682" 
d="M604 205l54 -70q-56 -64 -135 -104.5t-169 -40.5q-143 0 -230.5 96.5t-87.5 244.5q0 154 93.5 248t228.5 94q103 0 176 -52.5t108 -146.5l-89 -57l-61 56q-74 68 -144 68q-73 0 -120.5 -53.5t-47.5 -155.5q0 -96 49.5 -153t139.5 -57q63 0 134 34zM478 719l-127 94
l-128 -94l-52 50l128 127q13 13 31 13h41q18 0 31 -13l128 -127z" />
    <glyph glyph-name="ccircumflex" unicode="&#x109;" horiz-adv-x="516" 
d="M454 156l43 -70q-44 -41 -104.5 -67.5t-120.5 -26.5q-109 0 -175.5 69.5t-66.5 184.5q0 110 70.5 180t168.5 70q82 0 142 -46.5t79 -118.5l-85 -43l-45 44q-50 49 -97 49q-44 0 -72.5 -34.5t-28.5 -98.5q0 -73 30.5 -107t93.5 -34q45 0 110 26zM394 542l-127 94l-128 -94
l-52 50l128 127q13 13 31 13h41q18 0 31 -13l128 -127z" />
    <glyph glyph-name="Cdotaccent" unicode="&#x10a;" horiz-adv-x="682" 
d="M604 205l54 -70q-56 -64 -135 -104.5t-169 -40.5q-143 0 -230.5 96.5t-87.5 244.5q0 154 93.5 248t228.5 94q103 0 176 -52.5t108 -146.5l-89 -57l-61 56q-74 68 -144 68q-73 0 -120.5 -53.5t-47.5 -155.5q0 -96 49.5 -153t139.5 -57q63 0 134 34zM417 834v-102h-131v125
h106q15 0 20 -5t5 -18z" />
    <glyph glyph-name="cdotaccent" unicode="&#x10b;" horiz-adv-x="516" 
d="M454 156l43 -70q-44 -41 -104.5 -67.5t-120.5 -26.5q-109 0 -175.5 69.5t-66.5 184.5q0 110 70.5 180t168.5 70q82 0 142 -46.5t79 -118.5l-85 -43l-45 44q-50 49 -97 49q-44 0 -72.5 -34.5t-28.5 -98.5q0 -73 30.5 -107t93.5 -34q45 0 110 26zM332 657v-102h-131v125
h106q15 0 20 -5t5 -18z" />
    <glyph glyph-name="Ccaron" unicode="&#x10c;" horiz-adv-x="682" 
d="M604 205l54 -70q-56 -64 -135 -104.5t-169 -40.5q-143 0 -230.5 96.5t-87.5 244.5q0 154 93.5 248t228.5 94q103 0 176 -52.5t108 -146.5l-89 -57l-61 56q-74 68 -144 68q-73 0 -120.5 -53.5t-47.5 -155.5q0 -96 49.5 -153t139.5 -57q63 0 134 34zM353 826l127 94l52 -50
l-128 -127q-13 -13 -31 -13h-41q-18 0 -31 13l-128 127l52 50z" />
    <glyph glyph-name="ccaron" unicode="&#x10d;" horiz-adv-x="516" 
d="M454 156l43 -70q-44 -41 -104.5 -67.5t-120.5 -26.5q-109 0 -175.5 69.5t-66.5 184.5q0 110 70.5 180t168.5 70q82 0 142 -46.5t79 -118.5l-85 -43l-45 44q-50 49 -97 49q-44 0 -72.5 -34.5t-28.5 -98.5q0 -73 30.5 -107t93.5 -34q45 0 110 26zM268 649l127 94l52 -50
l-128 -127q-13 -13 -31 -13h-41q-18 0 -31 13l-128 127l52 50z" />
    <glyph glyph-name="Dcaron" unicode="&#x10e;" horiz-adv-x="719" 
d="M289 0h-221v663h221q200 0 296 -83q98 -84 98 -249q0 -164 -98 -248q-96 -83 -296 -83zM206 120h79q148 0 204 55q51 50 51 157q0 106 -51 156q-56 55 -204 55h-79v-423zM362 826l127 94l52 -50l-128 -127q-13 -13 -31 -13h-41q-18 0 -31 13l-128 127l52 50z" />
    <glyph glyph-name="dcaron" unicode="&#x10f;" horiz-adv-x="718" 
d="M387 450v259h129v-709h-97l-18 45l-37 -20q-60 -33 -115 -33q-97 0 -158 69.5t-61 181.5q0 110 62.5 181.5t156.5 71.5q62 0 138 -46zM387 151v185q0 14 -10 19q-42 21 -100 21t-86.5 -30.5t-28.5 -101.5q0 -73 28.5 -103t86.5 -30t100 21q10 5 10 19zM634 473l-60 13
l20 223h81q17 0 25.5 -20t8.5 -38v-5q-1 -23 -32 -86z" />
    <glyph glyph-name="Dcroat" unicode="&#x110;" horiz-adv-x="741" 
d="M311 0h-221v286h-80v104h80v273h221q200 0 296 -83q98 -84 98 -249q0 -164 -98 -248q-96 -83 -296 -83zM228 120h79q148 0 204 55q51 50 51 157q0 106 -51 156q-56 55 -204 55h-79v-153h140v-104h-140v-166z" />
    <glyph glyph-name="dcroat" unicode="&#x111;" horiz-adv-x="577" 
d="M387 450v106h-155v81h155v72h129v-72l74 -13v-68h-74v-556h-97l-18 45l-37 -20q-60 -33 -115 -33q-97 0 -158 69.5t-61 181.5q0 110 62.5 181.5t156.5 71.5q62 0 138 -46zM387 151v185q0 14 -10 19q-42 21 -100 21t-86.5 -30.5t-28.5 -101.5q0 -73 28.5 -103t86.5 -30
t100 21q10 5 10 19z" />
    <glyph glyph-name="Emacron" unicode="&#x112;" horiz-adv-x="611" 
d="M68 663h478v-116h-340v-151h307v-115h-307v-165h350v-116h-488v663zM463 762h-317v97h317v-97z" />
    <glyph glyph-name="emacron" unicode="&#x113;" horiz-adv-x="543" 
d="M511 263q0 -30 -5 -46q-4 -13 -21 -13h-323q5 -46 38 -72t91 -26q46 0 113 23l55 19l41 -72q-45 -38 -103.5 -61t-117.5 -23q-107 0 -178 70.5t-71 180.5q0 113 70.5 183t173.5 70t170 -67.5t67 -165.5zM162 295h221q-4 40 -33.5 64t-76.5 24q-48 0 -77 -24t-34 -64z
M430 585h-317v97h317v-97z" />
    <glyph glyph-name="Ebreve" unicode="&#x114;" horiz-adv-x="611" 
d="M68 663h478v-116h-340v-151h307v-115h-307v-165h350v-116h-488v663zM304 732q-71 0 -115 41t-53 108l81 13q26 -69 87 -69t86 69l82 -13q-9 -67 -53 -108t-115 -41z" />
    <glyph glyph-name="ebreve" unicode="&#x115;" horiz-adv-x="543" 
d="M511 263q0 -30 -5 -46q-4 -13 -21 -13h-323q5 -46 38 -72t91 -26q46 0 113 23l55 19l41 -72q-45 -38 -103.5 -61t-117.5 -23q-107 0 -178 70.5t-71 180.5q0 113 70.5 183t173.5 70t170 -67.5t67 -165.5zM162 295h221q-4 40 -33.5 64t-76.5 24q-48 0 -77 -24t-34 -64z
M272 555q-71 0 -115 41t-53 108l81 13q26 -69 87 -69t86 69l82 -13q-9 -67 -53 -108t-115 -41z" />
    <glyph glyph-name="Edotaccent" unicode="&#x116;" horiz-adv-x="611" 
d="M68 663h478v-116h-340v-151h307v-115h-307v-165h350v-116h-488v663zM370 834v-102h-131v125h106q15 0 20 -5t5 -18z" />
    <glyph glyph-name="edotaccent" unicode="&#x117;" horiz-adv-x="543" 
d="M511 263q0 -30 -5 -46q-4 -13 -21 -13h-323q5 -46 38 -72t91 -26q46 0 113 23l55 19l41 -72q-45 -38 -103.5 -61t-117.5 -23q-107 0 -178 70.5t-71 180.5q0 113 70.5 183t173.5 70t170 -67.5t67 -165.5zM162 295h221q-4 40 -33.5 64t-76.5 24q-48 0 -77 -24t-34 -64z
M338 657v-102h-131v125h106q15 0 20 -5t5 -18z" />
    <glyph glyph-name="Eogonek" unicode="&#x118;" horiz-adv-x="611" 
d="M556 0h-73q-21 0 -38 -16q-37 -35 -37 -71q0 -47 61 -47q31 0 60 7l20 -67q-53 -27 -107 -27q-61 0 -98.5 30t-37.5 76q0 59 59 115h-297v663h478v-116h-340v-151h307v-115h-307v-165h350v-116z" />
    <glyph glyph-name="eogonek" unicode="&#x119;" horiz-adv-x="543" 
d="M162 295h221q-4 40 -33.5 64t-76.5 24q-48 0 -77 -24t-34 -64zM280 -8h-1q-107 0 -178 70.5t-71 180.5q0 113 70.5 183t173.5 70t170 -67.5t67 -165.5q0 -30 -5 -46q-4 -13 -21 -13h-323q5 -46 38 -72t91 -26q46 0 113 23l55 19l41 -72q-146 -99 -146 -168q0 -45 58 -45
q34 0 63 7l20 -67q-54 -27 -107 -27q-62 0 -99 29.5t-37 72.5q0 65 76 122q-22 -8 -48 -8z" />
    <glyph glyph-name="Ecaron" unicode="&#x11a;" horiz-adv-x="611" 
d="M68 663h478v-116h-340v-151h307v-115h-307v-165h350v-116h-488v663zM310 826l127 94l52 -50l-128 -127q-13 -13 -31 -13h-41q-18 0 -31 13l-128 127l52 50z" />
    <glyph glyph-name="ecaron" unicode="&#x11b;" horiz-adv-x="543" 
d="M511 263q0 -30 -5 -46q-4 -13 -21 -13h-323q5 -46 38 -72t91 -26q46 0 113 23l55 19l41 -72q-45 -38 -103.5 -61t-117.5 -23q-107 0 -178 70.5t-71 180.5q0 113 70.5 183t173.5 70t170 -67.5t67 -165.5zM162 295h221q-4 40 -33.5 64t-76.5 24q-48 0 -77 -24t-34 -64z
M273 649l127 94l52 -50l-128 -127q-13 -13 -31 -13h-41q-18 0 -31 13l-128 127l52 50z" />
    <glyph glyph-name="Gcircumflex" unicode="&#x11c;" horiz-adv-x="739" 
d="M544 247h-109v103h223q11 0 15.5 -3t4.5 -14v-333h-100l-21 60l-51 -28q-77 -42 -154 -42q-142 0 -229 96t-87 245q0 154 97 248t234 94q100 0 175 -46t112 -130l-87 -60l-75 56q-66 50 -132 50q-80 0 -130 -55t-50 -156q0 -102 50 -156.5t143 -54.5q88 0 153 25
q18 6 18 24v77zM499 719l-127 94l-128 -94l-52 50l128 127q13 13 31 13h41q18 0 31 -13l128 -127z" />
    <glyph glyph-name="gcircumflex" unicode="&#x11d;" horiz-adv-x="555" 
d="M399 456q53 50 95 50t66 -18v-73l-90 -15q-14 -2 -8 -14q20 -38 20 -84q0 -85 -62.5 -139.5t-155.5 -54.5q-21 0 -61 8q-11 2 -15 -8l-6 -14q-4 -9 -4 -14q0 -9 14 -9h143q182 0 182 -138q0 -82 -73 -133t-184 -51q-109 0 -179.5 46t-70.5 116q0 58 62 93q-20 23 -20 46
q0 29 34 68l32 37q-72 54 -72 147q0 85 62.5 139.5t155.5 54.5q78 0 135 -40zM361 302q0 43 -26.5 66t-70.5 23q-45 0 -71 -23t-26 -66t26 -66.5t71 -23.5t71 23.5t26 66.5zM335 -32h-171q-16 0 -23 -10q-9 -12 -9 -28q0 -33 33 -53t97 -20q61 0 97 19t36 54q0 21 -13 29.5
t-47 8.5zM391 542l-127 94l-128 -94l-52 50l128 127q13 13 31 13h41q18 0 31 -13l128 -127z" />
    <glyph glyph-name="Gbreve" unicode="&#x11e;" horiz-adv-x="739" 
d="M544 247h-109v103h223q11 0 15.5 -3t4.5 -14v-333h-100l-21 60l-51 -28q-77 -42 -154 -42q-142 0 -229 96t-87 245q0 154 97 248t234 94q100 0 175 -46t112 -130l-87 -60l-75 56q-66 50 -132 50q-80 0 -130 -55t-50 -156q0 -102 50 -156.5t143 -54.5q88 0 153 25
q18 6 18 24v77zM372 732q-71 0 -115 41t-53 108l81 13q26 -69 87 -69t86 69l82 -13q-9 -67 -53 -108t-115 -41z" />
    <glyph glyph-name="gbreve" unicode="&#x11f;" horiz-adv-x="555" 
d="M399 456q53 50 95 50t66 -18v-73l-90 -15q-14 -2 -8 -14q20 -38 20 -84q0 -85 -62.5 -139.5t-155.5 -54.5q-21 0 -61 8q-11 2 -15 -8l-6 -14q-4 -9 -4 -14q0 -9 14 -9h143q182 0 182 -138q0 -82 -73 -133t-184 -51q-109 0 -179.5 46t-70.5 116q0 58 62 93q-20 23 -20 46
q0 29 34 68l32 37q-72 54 -72 147q0 85 62.5 139.5t155.5 54.5q78 0 135 -40zM361 302q0 43 -26.5 66t-70.5 23q-45 0 -71 -23t-26 -66t26 -66.5t71 -23.5t71 23.5t26 66.5zM335 -32h-171q-16 0 -23 -10q-9 -12 -9 -28q0 -33 33 -53t97 -20q61 0 97 19t36 54q0 21 -13 29.5
t-47 8.5zM265 555q-71 0 -115 41t-53 108l81 13q26 -69 87 -69t86 69l82 -13q-9 -67 -53 -108t-115 -41z" />
    <glyph glyph-name="Gdotaccent" unicode="&#x120;" horiz-adv-x="739" 
d="M544 247h-109v103h223q11 0 15.5 -3t4.5 -14v-333h-100l-21 60l-51 -28q-77 -42 -154 -42q-142 0 -229 96t-87 245q0 154 97 248t234 94q100 0 175 -46t112 -130l-87 -60l-75 56q-66 50 -132 50q-80 0 -130 -55t-50 -156q0 -102 50 -156.5t143 -54.5q88 0 153 25
q18 6 18 24v77zM433 834v-102h-131v125h106q15 0 20 -5t5 -18z" />
    <glyph glyph-name="gdotaccent" unicode="&#x121;" horiz-adv-x="555" 
d="M399 456q53 50 95 50t66 -18v-73l-90 -15q-14 -2 -8 -14q20 -38 20 -84q0 -85 -62.5 -139.5t-155.5 -54.5q-21 0 -61 8q-11 2 -15 -8l-6 -14q-4 -9 -4 -14q0 -9 14 -9h143q182 0 182 -138q0 -82 -73 -133t-184 -51q-109 0 -179.5 46t-70.5 116q0 58 62 93q-20 23 -20 46
q0 29 34 68l32 37q-72 54 -72 147q0 85 62.5 139.5t155.5 54.5q78 0 135 -40zM361 302q0 43 -26.5 66t-70.5 23q-45 0 -71 -23t-26 -66t26 -66.5t71 -23.5t71 23.5t26 66.5zM335 -32h-171q-16 0 -23 -10q-9 -12 -9 -28q0 -33 33 -53t97 -20q61 0 97 19t36 54q0 21 -13 29.5
t-47 8.5zM339 657v-102h-131v125h106q15 0 20 -5t5 -18z" />
    <glyph glyph-name="Gcommaaccent" unicode="&#x122;" horiz-adv-x="739" 
d="M544 247h-109v103h223q11 0 15.5 -3t4.5 -14v-333h-100l-21 60l-51 -28q-77 -42 -154 -42q-142 0 -229 96t-87 245q0 154 97 248t234 94q100 0 175 -46t112 -130l-87 -60l-75 56q-66 50 -132 50q-80 0 -130 -55t-50 -156q0 -102 50 -156.5t143 -54.5q88 0 153 25
q18 6 18 24v77zM363 -294l-60 13l20 223h81q17 0 25.5 -20t8.5 -38v-5q-1 -23 -32 -86z" />
    <glyph glyph-name="gcommaaccent" unicode="&#x123;" horiz-adv-x="555" 
d="M399 456q53 50 95 50t66 -18v-73l-90 -15q-14 -2 -8 -14q20 -38 20 -84q0 -85 -62.5 -139.5t-155.5 -54.5q-21 0 -61 8q-11 2 -15 -8l-6 -14q-4 -9 -4 -14q0 -9 14 -9h143q182 0 182 -138q0 -82 -73 -133t-184 -51q-109 0 -179.5 46t-70.5 116q0 58 62 93q-20 23 -20 46
q0 29 34 68l32 37q-72 54 -72 147q0 85 62.5 139.5t155.5 54.5q78 0 135 -40zM361 302q0 43 -26.5 66t-70.5 23q-45 0 -71 -23t-26 -66t26 -66.5t71 -23.5t71 23.5t26 66.5zM335 -32h-171q-16 0 -23 -10q-9 -12 -9 -28q0 -33 33 -53t97 -20q61 0 97 19t36 54q0 21 -13 29.5
t-47 8.5zM280 780l60 -13l-20 -223h-81q-17 0 -25.5 20t-8.5 38v5q1 23 32 86z" />
    <glyph glyph-name="Hcircumflex" unicode="&#x124;" horiz-adv-x="723" 
d="M517 0v281h-311v-281h-138v663h138v-262h311v262h138v-663h-138zM486 719l-127 94l-128 -94l-52 50l128 127q13 13 31 13h41q18 0 31 -13l128 -127z" />
    <glyph glyph-name="hcircumflex" unicode="&#x125;" horiz-adv-x="562" 
d="M187 453l23 13q54 30 108 30q86 0 139 -50.5t53 -139.5v-306h-129v301q0 36 -16 52q-20 21 -75 21h-2q-56 0 -91 -14q-10 -4 -10 -19v-341h-129v709h129v-256zM250 721l-127 94l-128 -94l-52 50l128 127q13 13 31 13h41q18 0 31 -13l128 -127z" />
    <glyph glyph-name="Hbar" unicode="&#x126;" horiz-adv-x="762" 
d="M536 0v281h-311v-281h-138v488h-73v93h73v82h138v-82h311v82h138v-82h74v-93h-74v-488h-138zM225 401h311v87h-311v-87z" />
    <glyph glyph-name="hbar" unicode="&#x127;" horiz-adv-x="562" 
d="M187 453l23 13q54 30 108 30q86 0 139 -50.5t53 -139.5v-306h-129v301q0 36 -16 52q-20 21 -75 21h-2q-56 0 -91 -14q-10 -4 -10 -19v-341h-129v556h-74v68l74 13v72h129v-72h154v-81h-154v-103z" />
    <glyph glyph-name="Itilde" unicode="&#x128;" horiz-adv-x="280" 
d="M71 0v663h138v-663h-138zM254 880l69 -19q-8 -53 -38 -88t-78 -35q-31 0 -73 23t-56 23q-15 0 -26.5 -11.5t-25.5 -37.5l-69 19q7 53 37.5 88t77.5 35q31 0 73 -23t57 -23q24 0 52 49z" />
    <glyph glyph-name="itilde" unicode="&#x129;" horiz-adv-x="249" 
d="M238 703l69 -19q-8 -53 -38 -88t-78 -35q-31 0 -73 23t-56 23q-15 0 -26.5 -11.5t-25.5 -37.5l-69 19q7 53 37.5 88t77.5 35q31 0 73 -23t57 -23q24 0 52 49zM60 0v488h129v-488h-129z" />
    <glyph glyph-name="Imacron" unicode="&#x12a;" horiz-adv-x="280" 
d="M71 0v663h138v-663h-138zM298 762h-317v97h317v-97z" />
    <glyph glyph-name="imacron" unicode="&#x12b;" horiz-adv-x="249" 
d="M283 585h-317v97h317v-97zM60 0v488h129v-488h-129z" />
    <glyph glyph-name="Ibreve" unicode="&#x12c;" horiz-adv-x="280" 
d="M71 0v663h138v-663h-138zM140 732q-71 0 -115 41t-53 108l81 13q26 -69 87 -69t86 69l82 -13q-9 -67 -53 -108t-115 -41z" />
    <glyph glyph-name="ibreve" unicode="&#x12d;" horiz-adv-x="249" 
d="M124 555q-71 0 -115 41t-53 108l81 13q26 -69 87 -69t86 69l82 -13q-9 -67 -53 -108t-115 -41zM60 0v488h129v-488h-129z" />
    <glyph glyph-name="Iogonek" unicode="&#x12e;" horiz-adv-x="280" 
d="M209 0h-19q-21 0 -38 -16q-37 -35 -37 -71q0 -47 61 -47q31 0 60 7l20 -67q-52 -27 -107 -27q-61 0 -98.5 30t-37.5 76q0 62 58 117v661h138v-663z" />
    <glyph glyph-name="iogonek" unicode="&#x12f;" horiz-adv-x="249" 
d="M189 0h-26q-16 0 -29 -13q-30 -30 -30 -78q0 -44 58 -46q17 0 35 3l28 4l21 -66q-54 -27 -108 -27q-61 0 -98.5 30t-37.5 76q0 61 58 119v486h129v-488zM60 566v127h102q15 0 21 -5.5t6 -19.5v-102h-129z" />
    <glyph glyph-name="Idotaccent" unicode="&#x130;" horiz-adv-x="280" 
d="M71 0v663h138v-663h-138zM208 834v-102h-131v125h106q15 0 20 -5t5 -18z" />
    <glyph glyph-name="dotlessi" unicode="&#x131;" horiz-adv-x="249" 
d="M60 0v488h129v-488h-129z" />
    <glyph glyph-name="IJ" unicode="&#x132;" horiz-adv-x="790" 
d="M71 0v663h138v-663h-138zM300 54l28 84l58 -11q72 -14 112 -14q52 0 72 23q18 22 18 74v453h138v-449q0 -110 -56 -167q-57 -57 -151 -57q-119 0 -219 64z" />
    <glyph glyph-name="ij" unicode="&#x133;" horiz-adv-x="494" 
d="M60 0v488h129v-488h-129zM60 566v127h102q15 0 21 -5.5t6 -19.5v-102h-129zM434 488v-544q0 -95 -33 -136t-123 -41q-49 0 -88 16v70l57 11q36 7 47 18.5t11 41.5v564h129zM305 566v127h102q15 0 21 -5.5t6 -19.5v-102h-129z" />
    <glyph glyph-name="Jcircumflex" unicode="&#x134;" horiz-adv-x="513" 
d="M23 54l28 84l58 -11q72 -14 112 -14q52 0 72 23q18 22 18 74v453h138v-449q0 -110 -56 -167q-57 -57 -151 -57q-119 0 -219 64zM508 719l-127 94l-128 -94l-52 50l128 127q13 13 31 13h41q18 0 31 -13l128 -127z" />
    <glyph glyph-name="jcircumflex" unicode="&#x135;" horiz-adv-x="248" 
d="M189 488v-544q0 -95 -33 -136t-123 -41q-49 0 -88 16v70l57 11q36 7 47 18.5t11 41.5v564h129zM251 542l-127 94l-128 -94l-52 50l128 127q13 13 31 13h41q18 0 31 -13l128 -127z" />
    <glyph glyph-name="Kcommaaccent" unicode="&#x136;" horiz-adv-x="667" 
d="M492 13l-199 292q-36 -31 -87 -57v-248h-138v663h138v-293l348 301l78 -84l-238 -201l267 -386h-142q-18 0 -27 13zM313 -294l-60 13l20 223h81q17 0 25.5 -20t8.5 -38v-5q-1 -23 -32 -86z" />
    <glyph glyph-name="kcommaaccent" unicode="&#x137;" horiz-adv-x="552" 
d="M397 12l-134 212q-27 -19 -76 -43v-181h-129v709h129v-415l261 211l72 -82l-162 -130l192 -293h-128q-17 0 -25 12zM265 -294l-60 13l20 223h81q17 0 25.5 -20t8.5 -38v-5q-1 -23 -32 -86z" />
    <glyph glyph-name="kgreenlandic" unicode="&#x138;" horiz-adv-x="552" 
d="M397 12l-134 202q-27 -19 -76 -43v-171h-129v488h129v-204l261 221l72 -82l-161 -138l191 -285h-128q-17 0 -25 12z" />
    <glyph glyph-name="Lacute" unicode="&#x139;" horiz-adv-x="568" 
d="M206 663v-547h327v-116h-465v663h138zM278 835l-225 -116l-41 57l183 140q10 7 16 7q9 0 16 -12z" />
    <glyph glyph-name="lacute" unicode="&#x13a;" horiz-adv-x="279" 
d="M271 88v-68q-46 -23 -99 -23q-51 0 -82 31q-30 31 -30 88v593h129v-604zM264 870l-225 -116l-41 57l183 140q10 7 16 7q9 0 16 -12z" />
    <glyph glyph-name="Lcommaaccent" unicode="&#x13b;" horiz-adv-x="568" 
d="M206 663v-547h327v-116h-465v663h138zM281 -294l-60 13l20 223h81q17 0 25.5 -20t8.5 -38v-5q-1 -23 -32 -86z" />
    <glyph glyph-name="lcommaaccent" unicode="&#x13c;" horiz-adv-x="279" 
d="M271 88v-68q-46 -23 -99 -23q-51 0 -82 31q-30 31 -30 88v593h129v-604zM146 -294l-60 13l20 223h81q17 0 25.5 -20t8.5 -38v-5q-1 -23 -32 -86z" />
    <glyph glyph-name="Lcaron" unicode="&#x13d;" horiz-adv-x="568" 
d="M206 663v-547h327v-116h-465v663h138zM366 427l-60 13l20 223h81q17 0 25.5 -20t8.5 -38v-5q-1 -23 -32 -86z" />
    <glyph glyph-name="lcaron" unicode="&#x13e;" horiz-adv-x="389" 
d="M271 88v-68q-46 -23 -99 -23q-51 0 -82 31q-30 31 -30 88v593h129v-604zM307 473l-60 13l20 223h81q17 0 25.5 -20t8.5 -38v-5q-1 -23 -32 -86z" />
    <glyph glyph-name="Ldot" unicode="&#x13f;" horiz-adv-x="568" 
d="M206 663v-547h327v-116h-465v663h138zM469 400v-102h-131v125h106q15 0 20 -5t5 -18z" />
    <glyph glyph-name="ldot" unicode="&#x140;" horiz-adv-x="425" 
d="M271 88v-68q-46 -23 -99 -23q-51 0 -82 31q-30 31 -30 88v593h129v-604zM397 427v-102h-131v125h106q15 0 20 -5t5 -18z" />
    <glyph glyph-name="Lslash" unicode="&#x141;" horiz-adv-x="630" 
d="M130 237l-71 -46l-62 90l133 87v295h138v-214l141 92l62 -90l-203 -133v-202h327v-116h-465v237z" />
    <glyph glyph-name="lslash" unicode="&#x142;" horiz-adv-x="388" 
d="M336 88v-68q-46 -23 -99 -23q-51 0 -82 31q-30 32 -30 88v124l-64 -42l-53 81l117 78v352h129v-276l85 56l53 -81l-138 -91v-212z" />
    <glyph glyph-name="Nacute" unicode="&#x143;" horiz-adv-x="738" 
d="M540 211v452h133v-663h-103q-16 0 -26 12l-257 323q-37 47 -89 118v-453h-133v663h104q15 0 25 -12l237 -297q82 -102 109 -143zM509 835l-225 -116l-41 57l183 140q10 7 16 7q8 0 16 -12z" />
    <glyph glyph-name="nacute" unicode="&#x144;" horiz-adv-x="563" 
d="M382 0v301q0 36 -16 52q-20 21 -75 21h-2q-56 0 -91 -14q-10 -4 -10 -19v-341h-129v488h98l16 -43l38 21q53 30 108 30q86 0 139 -50.5t53 -139.5v-306h-129zM436 658l-225 -116l-41 57l183 140q10 7 16 7q9 0 16 -12z" />
    <glyph glyph-name="Ncommaaccent" unicode="&#x145;" horiz-adv-x="738" 
d="M540 211v452h133v-663h-103q-16 0 -26 12l-257 323q-37 47 -89 118v-453h-133v663h104q15 0 25 -12l237 -297q82 -102 109 -143zM358 -294l-60 13l20 223h81q17 0 25.5 -20t8.5 -38v-5q-1 -23 -32 -86z" />
    <glyph glyph-name="ncommaaccent" unicode="&#x146;" horiz-adv-x="563" 
d="M382 0v301q0 36 -16 52q-20 21 -75 21h-2q-56 0 -91 -14q-10 -4 -10 -19v-341h-129v488h98l16 -43l38 21q53 30 108 30q86 0 139 -50.5t53 -139.5v-306h-129zM274 -294l-60 13l20 223h81q17 0 25.5 -20t8.5 -38v-5q-1 -23 -32 -86z" />
    <glyph glyph-name="Ncaron" unicode="&#x147;" horiz-adv-x="738" 
d="M540 211v452h133v-663h-103q-16 0 -26 12l-257 323q-37 47 -89 118v-453h-133v663h104q15 0 25 -12l237 -297q82 -102 109 -143zM369 826l127 94l52 -50l-128 -127q-13 -13 -31 -13h-41q-18 0 -31 13l-128 127l52 50z" />
    <glyph glyph-name="ncaron" unicode="&#x148;" horiz-adv-x="563" 
d="M382 0v301q0 36 -16 52q-20 21 -75 21h-2q-56 0 -91 -14q-10 -4 -10 -19v-341h-129v488h98l16 -43l38 21q53 30 108 30q86 0 139 -50.5t53 -139.5v-306h-129zM296 649l127 94l52 -50l-128 -127q-13 -13 -31 -13h-41q-18 0 -31 13l-128 127l52 50z" />
    <glyph glyph-name="napostrophe" unicode="&#x149;" horiz-adv-x="725" 
d="M544 0v301q0 36 -16 52q-20 21 -75 21h-2q-56 0 -91 -14q-10 -4 -10 -19v-341h-129v488h98l16 -43l38 21q53 30 108 30q86 0 139 -50.5t53 -139.5v-306h-129zM24 399l66 111q4 8 4 10q0 4 -9 10l-15 9q-12 8 -15 12.5t-3 18.5v93h111q27 0 27 -25v-67q0 -57 -21.5 -96.5
t-99.5 -110.5z" />
    <glyph glyph-name="Eng" unicode="&#x14a;" horiz-adv-x="738" 
d="M670 663v-691q0 -101 -48.5 -155.5t-146.5 -54.5q-33 0 -73 12t-65 28l22 86q63 -9 98 -9q43 0 63 19.5t20 64.5v54l-253 317q-37 47 -89 118v-452h-130v663h101q15 0 25 -12l237 -296q82 -103 109 -143v451h130z" />
    <glyph glyph-name="eng" unicode="&#x14b;" horiz-adv-x="563" 
d="M511 306v-342q0 -95 -33 -136t-123 -41q-49 0 -88 16v70l57 11q36 7 47 18.5t11 41.5v357q0 36 -16 52q-20 21 -75 21h-2q-56 0 -91 -14q-10 -4 -10 -19v-341h-129v488h98l16 -43l38 21q53 30 108 30q86 0 139 -50.5t53 -139.5z" />
    <glyph glyph-name="Omacron" unicode="&#x14c;" horiz-adv-x="740" 
d="M369 -10q-136 0 -234.5 94.5t-98.5 246.5t98 247t235 95h2q137 0 235 -95t98 -247t-98.5 -246.5t-234.5 -94.5h-2zM180 331q0 -98 50.5 -152.5t138.5 -54.5h2q88 0 138.5 54.5t50.5 152.5q0 99 -50 153t-139 54h-2q-89 0 -139 -54t-50 -153zM528 762h-317v97h317v-97z
" />
    <glyph glyph-name="omacron" unicode="&#x14d;" horiz-adv-x="559" 
d="M529 244q0 -117 -72.5 -184.5t-175.5 -67.5h-3q-103 0 -175.5 67.5t-72.5 184.5q0 116 72.5 184t175.5 68h3q103 0 175.5 -68t72.5 -184zM397 244q0 131 -116 131h-3q-116 0 -116 -131q0 -132 116 -132h3q116 0 116 132zM437 585h-317v97h317v-97z" />
    <glyph glyph-name="Obreve" unicode="&#x14e;" horiz-adv-x="740" 
d="M369 -10q-136 0 -234.5 94.5t-98.5 246.5t98 247t235 95h2q137 0 235 -95t98 -247t-98.5 -246.5t-234.5 -94.5h-2zM180 331q0 -98 50.5 -152.5t138.5 -54.5h2q88 0 138.5 54.5t50.5 152.5q0 99 -50 153t-139 54h-2q-89 0 -139 -54t-50 -153zM370 732q-71 0 -115 41
t-53 108l81 13q26 -69 87 -69t86 69l82 -13q-9 -67 -53 -108t-115 -41z" />
    <glyph glyph-name="obreve" unicode="&#x14f;" horiz-adv-x="559" 
d="M529 244q0 -117 -72.5 -184.5t-175.5 -67.5h-3q-103 0 -175.5 67.5t-72.5 184.5q0 116 72.5 184t175.5 68h3q103 0 175.5 -68t72.5 -184zM397 244q0 131 -116 131h-3q-116 0 -116 -131q0 -132 116 -132h3q116 0 116 132zM279 555q-71 0 -115 41t-53 108l81 13
q26 -69 87 -69t86 69l82 -13q-9 -67 -53 -108t-115 -41z" />
    <glyph glyph-name="Ohungarumlaut" unicode="&#x150;" horiz-adv-x="740" 
d="M369 -10q-136 0 -234.5 94.5t-98.5 246.5t98 247t235 95h2q137 0 235 -95t98 -247t-98.5 -246.5t-234.5 -94.5h-2zM180 331q0 -98 50.5 -152.5t138.5 -54.5h2q88 0 138.5 54.5t50.5 152.5q0 99 -50 153t-139 54h-2q-89 0 -139 -54t-50 -153zM398 895l-176 -161l-58 48
l135 171q8 11 15 11q8 0 15 -7zM596 895l-176 -161l-58 48l135 171q8 11 15 11q8 0 15 -7z" />
    <glyph glyph-name="ohungarumlaut" unicode="&#x151;" horiz-adv-x="559" 
d="M529 244q0 -117 -72.5 -184.5t-175.5 -67.5h-3q-103 0 -175.5 67.5t-72.5 184.5q0 116 72.5 184t175.5 68h3q103 0 175.5 -68t72.5 -184zM397 244q0 131 -116 131h-3q-116 0 -116 -131q0 -132 116 -132h3q116 0 116 132zM304 718l-176 -161l-58 48l135 171q8 11 15 11
q8 0 15 -7zM502 718l-176 -161l-58 48l135 171q8 11 15 11q8 0 15 -7z" />
    <glyph glyph-name="OE" unicode="&#x152;" horiz-adv-x="1099" 
d="M556 663h478v-116h-340v-151h307v-115h-307v-165h350v-116h-488v77q-75 -87 -198 -87q-133 0 -227.5 95t-94.5 246q0 152 94.5 247t227.5 95q123 0 198 -87v77zM180 331q0 -98 50.5 -152.5t138.5 -54.5h2q88 0 138.5 54.5t50.5 152.5q0 99 -50 153t-139 54h-2
q-89 0 -139 -54t-50 -153z" />
    <glyph glyph-name="oe" unicode="&#x153;" horiz-adv-x="910" 
d="M877 263q0 -30 -5 -46q-4 -13 -21 -13h-320q5 -45 36.5 -72t85.5 -27q51 0 117 23l55 19l41 -71q-45 -38 -103.5 -61t-117.5 -23q-113 0 -182 74q-71 -74 -182 -74h-3q-103 0 -175.5 67.5t-72.5 184.5q0 116 72.5 184t175.5 68h3q111 0 183 -75q70 75 178 75
q103 0 169 -67.5t66 -165.5zM397 244q0 131 -116 131h-3q-116 0 -116 -131q0 -132 116 -132h3q116 0 116 132zM532 295h217q-4 39 -32.5 64t-75.5 25t-75.5 -24.5t-33.5 -64.5z" />
    <glyph glyph-name="Racute" unicode="&#x154;" horiz-adv-x="671" 
d="M485 14l-114 196q-6 9 -10 11t-16 2h-139v-223h-138v663h261q139 0 209 -51t70 -165q0 -64 -29.5 -114.5t-80.5 -82.5l151 -250h-139q-11 0 -15 2t-10 12zM206 338h199q27 0 39 18q23 34 23 91q0 50 -24 73q-30 26 -110 26h-127v-208zM474 835l-225 -116l-41 57l183 140
q10 7 16 7q9 0 16 -12z" />
    <glyph glyph-name="racute" unicode="&#x155;" horiz-adv-x="384" 
d="M379 391l-48 -9q-57 -10 -129 -33q-14 -5 -14 -18v-331h-129v488h97l20 -60q91 68 141 68q30 0 62 -17v-88zM351 658l-225 -116l-41 57l183 140q10 7 16 7q8 0 16 -12z" />
    <glyph glyph-name="Rcommaaccent" unicode="&#x156;" horiz-adv-x="671" 
d="M485 14l-114 196q-6 9 -10 11t-16 2h-139v-223h-138v663h261q139 0 209 -51t70 -165q0 -64 -29.5 -114.5t-80.5 -82.5l151 -250h-139q-11 0 -15 2t-10 12zM206 338h199q27 0 39 18q23 34 23 91q0 50 -24 73q-30 26 -110 26h-127v-208zM317 -294l-60 13l20 223h81
q17 0 25.5 -20t8.5 -38v-5q-1 -23 -32 -86z" />
    <glyph glyph-name="rcommaaccent" unicode="&#x157;" horiz-adv-x="384" 
d="M379 391l-48 -9q-57 -10 -129 -33q-14 -5 -14 -18v-331h-129v488h97l20 -60q91 68 141 68q30 0 62 -17v-88zM113 -294l-60 13l20 223h81q17 0 25.5 -20t8.5 -38v-5q-1 -23 -32 -86z" />
    <glyph glyph-name="Rcaron" unicode="&#x158;" horiz-adv-x="671" 
d="M485 14l-114 196q-6 9 -10 11t-16 2h-139v-223h-138v663h261q139 0 209 -51t70 -165q0 -64 -29.5 -114.5t-80.5 -82.5l151 -250h-139q-11 0 -15 2t-10 12zM206 338h199q27 0 39 18q23 34 23 91q0 50 -24 73q-30 26 -110 26h-127v-208zM337 826l127 94l52 -50l-128 -127
q-13 -13 -31 -13h-41q-18 0 -31 13l-128 127l52 50z" />
    <glyph glyph-name="rcaron" unicode="&#x159;" horiz-adv-x="384" 
d="M379 391l-48 -9q-57 -10 -129 -33q-14 -5 -14 -18v-331h-129v488h97l20 -60q91 68 141 68q30 0 62 -17v-88zM218 649l127 94l52 -50l-128 -127q-13 -13 -31 -13h-41q-18 0 -31 13l-128 127l52 50z" />
    <glyph glyph-name="Sacute" unicode="&#x15a;" horiz-adv-x="592" 
d="M37 60l35 90l68 -15q107 -24 171 -24q52 0 83 21.5t31 61.5q0 31 -22.5 47t-83.5 34l-68 20q-105 31 -156 76.5t-51 119.5q0 87 71 134.5t182 47.5q116 0 226 -45l-21 -93l-53 6q-93 11 -144 11q-132 0 -132 -60q0 -26 24.5 -42t81.5 -32l62 -18q119 -34 166.5 -79
t47.5 -121q0 -97 -66.5 -153.5t-185.5 -56.5q-64 0 -138 20t-128 50zM433 835l-225 -116l-41 57l183 140q10 7 16 7q8 0 16 -12z" />
    <glyph glyph-name="sacute" unicode="&#x15b;" horiz-adv-x="478" 
d="M406 377l-48 5q-74 8 -113 8q-48 0 -69 -7t-21 -27q0 -10 8.5 -17t19.5 -11t34 -10l65 -16q89 -22 126 -53.5t37 -95.5q0 -73 -52 -117t-149 -44q-54 0 -112 15t-100 38l27 79l54 -10q84 -16 132 -16q82 0 82 47q0 19 -13 28t-52 18l-63 15q-81 20 -121 52.5t-40 93.5
q0 68 56.5 106t148.5 38q99 0 183 -38zM384 658l-225 -116l-41 57l183 140q10 7 16 7q9 0 16 -12z" />
    <glyph glyph-name="Scircumflex" unicode="&#x15c;" horiz-adv-x="592" 
d="M37 60l35 90l68 -15q107 -24 171 -24q52 0 83 21.5t31 61.5q0 31 -22.5 47t-83.5 34l-68 20q-105 31 -156 76.5t-51 119.5q0 87 71 134.5t182 47.5q116 0 226 -45l-21 -93l-53 6q-93 11 -144 11q-132 0 -132 -60q0 -26 24.5 -42t81.5 -32l62 -18q119 -34 166.5 -79
t47.5 -121q0 -97 -66.5 -153.5t-185.5 -56.5q-64 0 -138 20t-128 50zM429 719l-127 94l-128 -94l-52 50l128 127q13 13 31 13h41q18 0 31 -13l128 -127z" />
    <glyph glyph-name="scircumflex" unicode="&#x15d;" horiz-adv-x="478" 
d="M406 377l-48 5q-74 8 -113 8q-48 0 -69 -7t-21 -27q0 -10 8.5 -17t19.5 -11t34 -10l65 -16q89 -22 126 -53.5t37 -95.5q0 -73 -52 -117t-149 -44q-54 0 -112 15t-100 38l27 79l54 -10q84 -16 132 -16q82 0 82 47q0 19 -13 28t-52 18l-63 15q-81 20 -121 52.5t-40 93.5
q0 68 56.5 106t148.5 38q99 0 183 -38zM372 542l-127 94l-128 -94l-52 50l128 127q13 13 31 13h41q18 0 31 -13l128 -127z" />
    <glyph glyph-name="Scedilla" unicode="&#x15e;" horiz-adv-x="592" 
d="M37 60l35 90l68 -15q107 -24 171 -24q52 0 83 21.5t31 61.5q0 31 -22.5 47t-83.5 34l-68 20q-105 31 -156 76.5t-51 119.5q0 87 71 134.5t182 47.5q116 0 226 -45l-21 -93l-53 6q-93 11 -144 11q-132 0 -132 -60q0 -26 24.5 -42t81.5 -32l62 -18q119 -34 166.5 -79
t47.5 -121q0 -91 -59 -146.5t-166 -62.5q-12 -16 -12 -28q0 -9 17 -16.5t37 -13.5t37 -23t17 -44q0 -48 -48.5 -78t-139.5 -30l-13 70l33 5q60 9 60 27q0 7 -15 13.5t-33.5 12t-33.5 18t-15 30.5q0 25 34 59q-121 13 -218 67z" />
    <glyph glyph-name="scedilla" unicode="&#x15f;" horiz-adv-x="478" 
d="M406 377l-48 5q-74 8 -113 8q-48 0 -69 -7t-21 -27q0 -10 8.5 -17t19.5 -11t34 -10l65 -16q89 -22 126 -53.5t37 -95.5q0 -68 -45.5 -111t-130.5 -49q-13 -17 -13 -30q0 -9 17 -16.5t37 -13.5t37 -23t17 -44q0 -48 -48.5 -78t-139.5 -30l-13 70l33 5q60 9 60 27
q0 7 -15 13.5t-33.5 12t-33.5 18t-15 30.5q0 27 36 61q-95 11 -163 50l27 79l54 -10q84 -16 132 -16q82 0 82 47q0 19 -13 28t-52 18l-63 15q-81 20 -121 52.5t-40 93.5q0 68 56.5 106t148.5 38q99 0 183 -38z" />
    <glyph glyph-name="Scaron" unicode="&#x160;" horiz-adv-x="592" 
d="M37 60l35 90l68 -15q107 -24 171 -24q52 0 83 21.5t31 61.5q0 31 -22.5 47t-83.5 34l-68 20q-105 31 -156 76.5t-51 119.5q0 87 71 134.5t182 47.5q116 0 226 -45l-21 -93l-53 6q-93 11 -144 11q-132 0 -132 -60q0 -26 24.5 -42t81.5 -32l62 -18q119 -34 166.5 -79
t47.5 -121q0 -97 -66.5 -153.5t-185.5 -56.5q-64 0 -138 20t-128 50zM301 826l127 94l52 -50l-128 -127q-13 -13 -31 -13h-41q-18 0 -31 13l-128 127l52 50z" />
    <glyph glyph-name="scaron" unicode="&#x161;" horiz-adv-x="478" 
d="M406 377l-48 5q-74 8 -113 8q-48 0 -69 -7t-21 -27q0 -10 8.5 -17t19.5 -11t34 -10l65 -16q89 -22 126 -53.5t37 -95.5q0 -73 -52 -117t-149 -44q-54 0 -112 15t-100 38l27 79l54 -10q84 -16 132 -16q82 0 82 47q0 19 -13 28t-52 18l-63 15q-81 20 -121 52.5t-40 93.5
q0 68 56.5 106t148.5 38q99 0 183 -38zM247 649l127 94l52 -50l-128 -127q-13 -13 -31 -13h-41q-18 0 -31 13l-128 127l52 50z" />
    <glyph glyph-name="Tcommaaccent" unicode="&#x162;" horiz-adv-x="615" 
d="M376 547v-547h-138v547h-221v116h580v-116h-221zM296 -294l-60 13l20 223h81q17 0 25.5 -20t8.5 -38v-5q-1 -23 -32 -86z" />
    <glyph glyph-name="tcommaaccent" unicode="&#x163;" horiz-adv-x="430" 
d="M384 124l30 -72q-33 -26 -79 -43t-87 -17q-73 0 -116 41q-44 43 -44 127v227h-88v80l88 19v143h129v-141h162v-101h-162v-222q0 -32 13 -45q15 -15 44 -15q17 0 64 9zM219 -294l-60 13l20 223h81q17 0 25.5 -20t8.5 -38v-5q-1 -23 -32 -86z" />
    <glyph glyph-name="Tcaron" unicode="&#x164;" horiz-adv-x="615" 
d="M376 547v-547h-138v547h-221v116h580v-116h-221zM308 826l127 94l52 -50l-128 -127q-13 -13 -31 -13h-41q-18 0 -31 13l-128 127l52 50z" />
    <glyph glyph-name="tcaron" unicode="&#x165;" horiz-adv-x="430" 
d="M384 124l30 -72q-33 -26 -79 -43t-87 -17q-73 0 -116 41q-44 43 -44 127v227h-88v80l88 19v143h129v-141h162v-101h-162v-222q0 -32 13 -45q15 -15 44 -15q17 0 64 9zM344 571l-60 13l20 223h81q17 0 25.5 -20t8.5 -38v-5q-1 -23 -32 -86z" />
    <glyph glyph-name="Tbar" unicode="&#x166;" horiz-adv-x="615" 
d="M238 277h-136v99h136v171h-221v116h580v-116h-221v-171h136v-99h-136v-277h-138v277z" />
    <glyph glyph-name="tbar" unicode="&#x167;" horiz-adv-x="430" 
d="M384 124l30 -72q-33 -26 -79 -43t-87 -17q-73 0 -116 41q-44 43 -44 127v47h-69v74l69 12v94h-88v80l88 19v143h129v-141h162v-101h-162v-93h130v-87h-130v-42q0 -32 13 -45q15 -15 44 -15q17 0 64 9z" />
    <glyph glyph-name="Utilde" unicode="&#x168;" horiz-adv-x="707" 
d="M646 663v-390q0 -133 -71 -204q-77 -79 -222 -79q-142 0 -221 79q-71 71 -71 204v390h138v-378q0 -90 34 -124q41 -39 122 -39q83 0 122 39q34 34 34 124v378h135zM469 880l69 -19q-8 -53 -38 -88t-78 -35q-31 0 -73 23t-56 23q-15 0 -26.5 -11.5t-25.5 -37.5l-69 19
q7 53 37.5 88t77.5 35q31 0 73 -23t57 -23q24 0 52 49z" />
    <glyph glyph-name="utilde" unicode="&#x169;" horiz-adv-x="561" 
d="M181 488v-302q0 -36 16 -53q19 -20 76 -20q56 0 90 13q10 4 10 20v342h129v-488h-98l-17 42l-28 -15q-66 -35 -116 -35q-86 0 -138.5 50t-52.5 140v306h129zM394 703l69 -19q-8 -53 -38 -88t-78 -35q-31 0 -73 23t-56 23q-15 0 -26.5 -11.5t-25.5 -37.5l-69 19
q7 53 37.5 88t77.5 35q31 0 73 -23t57 -23q24 0 52 49z" />
    <glyph glyph-name="Umacron" unicode="&#x16a;" horiz-adv-x="707" 
d="M646 663v-390q0 -133 -71 -204q-77 -79 -222 -79q-142 0 -221 79q-71 71 -71 204v390h138v-378q0 -90 34 -124q41 -39 122 -39q83 0 122 39q34 34 34 124v378h135zM511 762h-317v97h317v-97z" />
    <glyph glyph-name="umacron" unicode="&#x16b;" horiz-adv-x="561" 
d="M181 488v-302q0 -36 16 -53q19 -20 76 -20q56 0 90 13q10 4 10 20v342h129v-488h-98l-17 42l-28 -15q-66 -35 -116 -35q-86 0 -138.5 50t-52.5 140v306h129zM438 585h-317v97h317v-97z" />
    <glyph glyph-name="Ubreve" unicode="&#x16c;" horiz-adv-x="707" 
d="M646 663v-390q0 -133 -71 -204q-77 -79 -222 -79q-142 0 -221 79q-71 71 -71 204v390h138v-378q0 -90 34 -124q41 -39 122 -39q83 0 122 39q34 34 34 124v378h135zM353 726q-71 0 -115 41t-53 108l81 13q26 -69 87 -69t86 69l82 -13q-9 -67 -53 -108t-115 -41z" />
    <glyph glyph-name="ubreve" unicode="&#x16d;" horiz-adv-x="561" 
d="M181 488v-302q0 -36 16 -53q19 -20 76 -20q56 0 90 13q10 4 10 20v342h129v-488h-98l-17 42l-28 -15q-66 -35 -116 -35q-86 0 -138.5 50t-52.5 140v306h129zM280 555q-71 0 -115 41t-53 108l81 13q26 -69 87 -69t86 69l82 -13q-9 -67 -53 -108t-115 -41z" />
    <glyph glyph-name="Uring" unicode="&#x16e;" horiz-adv-x="707" 
d="M646 663v-390q0 -133 -71 -204q-77 -79 -222 -79q-142 0 -221 79q-71 71 -71 204v390h138v-378q0 -90 34 -124q41 -39 122 -39q83 0 122 39q34 34 34 124v378h135zM353 966q56 0 93 -34.5t37 -90.5t-37 -90.5t-93 -34.5t-93 34.5t-37 90.5t37 90.5t93 34.5zM353 790
q53 0 53 51t-53 51q-54 0 -54 -51t54 -51z" />
    <glyph glyph-name="uring" unicode="&#x16f;" horiz-adv-x="561" 
d="M181 488v-302q0 -36 16 -53q19 -20 76 -20q56 0 90 13q10 4 10 20v342h129v-488h-98l-17 42l-28 -15q-66 -35 -116 -35q-86 0 -138.5 50t-52.5 140v306h129zM280 795q56 0 93 -34.5t37 -90.5t-37 -90.5t-93 -34.5t-93 34.5t-37 90.5t37 90.5t93 34.5zM280 619q53 0 53 51
t-53 51q-54 0 -54 -51t54 -51z" />
    <glyph glyph-name="Uhungarumlaut" unicode="&#x170;" horiz-adv-x="707" 
d="M646 663v-390q0 -133 -71 -204q-77 -79 -222 -79q-142 0 -221 79q-71 71 -71 204v390h138v-378q0 -90 34 -124q41 -39 122 -39q83 0 122 39q34 34 34 124v378h135zM394 895l-176 -161l-58 48l135 171q8 11 15 11q8 0 15 -7zM592 895l-176 -161l-58 48l135 171q8 11 15 11
q8 0 15 -7z" />
    <glyph glyph-name="uhungarumlaut" unicode="&#x171;" horiz-adv-x="561" 
d="M181 488v-302q0 -36 16 -53q19 -20 76 -20q56 0 90 13q10 4 10 20v342h129v-488h-98l-17 42l-28 -15q-66 -35 -116 -35q-86 0 -138.5 50t-52.5 140v306h129zM308 718l-176 -161l-58 48l135 171q8 11 15 11q8 0 15 -7zM506 718l-176 -161l-58 48l135 171q8 11 15 11
q8 0 15 -7z" />
    <glyph glyph-name="Uogonek" unicode="&#x172;" horiz-adv-x="707" 
d="M199 663v-378q0 -90 34 -124q41 -39 122 -39q83 0 122 39q34 34 34 124v378h135v-390q0 -99 -36 -156t-108 -97q-16 -9 -49 -25t-45 -23t-23.5 -23t-11.5 -36q0 -47 58 -47q31 0 63 7l20 -67q-52 -27 -107 -27q-61 0 -98.5 30t-37.5 76q0 62 57 106q-126 6 -196 78
q-71 71 -71 204v390h138z" />
    <glyph glyph-name="uogonek" unicode="&#x173;" horiz-adv-x="561" 
d="M400 11l-13 31l-28 -15q-66 -35 -116 -35q-86 0 -138.5 50t-52.5 140v306h129v-302q0 -36 16 -53q19 -20 76 -20q56 0 90 13q10 4 10 20v342h129v-488q-46 -11 -72 -36t-26 -56q0 -46 59 -46q26 0 56 7l21 -67q-47 -26 -103 -26q-62 0 -98 31t-36 76q0 44 28 77t69 51z
" />
    <glyph glyph-name="Wcircumflex" unicode="&#x174;" horiz-adv-x="1016" 
d="M797 0h-141q-18 0 -22 14l-51 168q-60 194 -78 288q-11 -66 -76 -292l-51 -178h-142q-18 0 -22 14l-206 649h129q13 0 17 -12l87 -284q30 -96 62 -224q23 120 73 288l69 232h112q13 0 17 -12l89 -293q36 -119 56 -215q35 143 69 251l81 257q3 12 16 12h123zM632 719
l-127 94l-128 -94l-52 50l128 127q13 13 31 13h41q18 0 31 -13l128 -127z" />
    <glyph glyph-name="wcircumflex" unicode="&#x175;" horiz-adv-x="811" 
d="M813 488l-169 -488h-128q-16 0 -20 12l-50 161q-26 86 -42 149q-10 -45 -40 -149l-51 -173h-128q-15 0 -20 12l-166 476h120q14 0 19 -13l48 -149q31 -95 57 -193q17 71 53 195l47 160h108q10 0 14 -2.5t7 -11.5l47 -150q41 -134 55 -192q18 68 57 189l49 153q4 14 19 14
h114zM533 542l-127 94l-128 -94l-52 50l128 127q13 13 31 13h41q18 0 31 -13l128 -127z" />
    <glyph glyph-name="Ycircumflex" unicode="&#x176;" horiz-adv-x="669" 
d="M669 663l-264 -452v-211h-138v211l-267 452h141q13 0 19 -11l87 -153q31 -55 91 -173q23 48 93 175l84 150q7 12 20 12h134zM462 719l-127 94l-128 -94l-52 50l128 127q13 13 31 13h41q18 0 31 -13l128 -127z" />
    <glyph glyph-name="ycircumflex" unicode="&#x177;" horiz-adv-x="531" 
d="M142 474l77 -191q41 -103 53 -149q19 66 49 145l73 195q6 14 20 14h118l-291 -724l-124 29l90 202l-207 493h122q14 0 20 -14zM392 542l-127 94l-128 -94l-52 50l128 127q13 13 31 13h41q18 0 31 -13l128 -127z" />
    <glyph glyph-name="Ydieresis" unicode="&#x178;" horiz-adv-x="669" 
d="M669 663l-264 -452v-211h-138v211l-267 452h141q13 0 19 -11l87 -153q31 -55 91 -173q23 48 93 175l84 150q7 12 20 12h134zM294 847v-99h-126v121h102q14 0 19 -5t5 -17zM499 847v-99h-126v121h102q14 0 19 -5t5 -17z" />
    <glyph glyph-name="Zacute" unicode="&#x179;" horiz-adv-x="616" 
d="M396 547h-351v116h520v-77q0 -15 -14 -35l-230 -303q-56 -75 -104 -132h352v-116h-521v76q0 17 13 36l230 303q27 36 105 132zM446 835l-225 -116l-41 57l183 140q10 7 16 7q9 0 16 -12z" />
    <glyph glyph-name="zacute" unicode="&#x17a;" horiz-adv-x="485" 
d="M284 387h-244v101h409v-56q0 -14 -12 -30l-159 -203q-41 -54 -81 -98h257v-101h-420v60q0 16 11 31l175 222q29 37 64 74zM377 658l-225 -116l-41 57l183 140q10 7 16 7q9 0 16 -12z" />
    <glyph glyph-name="Zdotaccent" unicode="&#x17b;" horiz-adv-x="616" 
d="M396 547h-351v116h520v-77q0 -15 -14 -35l-230 -303q-56 -75 -104 -132h352v-116h-521v76q0 17 13 36l230 303q27 36 105 132zM374 834v-102h-131v125h106q15 0 20 -5t5 -18z" />
    <glyph glyph-name="zdotaccent" unicode="&#x17c;" horiz-adv-x="485" 
d="M284 387h-244v101h409v-56q0 -14 -12 -30l-159 -203q-41 -54 -81 -98h257v-101h-420v60q0 16 11 31l175 222q29 37 64 74zM308 657v-102h-131v125h106q15 0 20 -5t5 -18z" />
    <glyph glyph-name="Zcaron" unicode="&#x17d;" horiz-adv-x="616" 
d="M396 547h-351v116h520v-77q0 -15 -14 -35l-230 -303q-56 -75 -104 -132h352v-116h-521v76q0 17 13 36l230 303q27 36 105 132zM310 826l127 94l52 -50l-128 -127q-13 -13 -31 -13h-41q-18 0 -31 13l-128 127l52 50z" />
    <glyph glyph-name="zcaron" unicode="&#x17e;" horiz-adv-x="485" 
d="M284 387h-244v101h409v-56q0 -14 -12 -30l-159 -203q-41 -54 -81 -98h257v-101h-420v60q0 16 11 31l175 222q29 37 64 74zM244 649l127 94l52 -50l-128 -127q-13 -13 -31 -13h-41q-18 0 -31 13l-128 127l52 50z" />
    <glyph glyph-name="longs" unicode="&#x17f;" horiz-adv-x="352" 
d="M206 545q0 -20 7 -63.5t7 -79.5v-402h-129v387h-89v80l86 18q-12 31 -12 76q0 69 48.5 113.5t130.5 44.5q89 0 171 -55l-29 -74l-44 9q-45 10 -74 10q-73 0 -73 -64z" />
    <glyph glyph-name="florin" unicode="&#x192;" 
d="M136 314l119 20v143q0 95 51.5 145.5t142.5 50.5q68 0 135 -35l-23 -76l-36 4q-44 4 -60 4q-41 0 -62.5 -19t-21.5 -65v-150h151v-97h-151v-283q0 -94 -52 -144.5t-143 -50.5q-70 0 -134 35l22 76q52 -9 97 -9q41 0 62.5 19.5t21.5 65.5v291h-119v75z" />
    <glyph glyph-name="Acaron" unicode="&#x1cd;" horiz-adv-x="705" 
d="M542 12l-48 121h-292l-44 -121q-3 -8 -6 -10t-12 -2h-127l255 663h136q14 0 20 -13l268 -650h-131q-14 0 -19 12zM278 341l-35 -97h207l-46 119q-46 117 -61 167q-15 -50 -65 -189zM345 826l127 94l52 -50l-128 -127q-13 -13 -31 -13h-41q-18 0 -31 13l-128 127l52 50z
" />
    <glyph glyph-name="acaron" unicode="&#x1ce;" horiz-adv-x="551" 
d="M342 275v32q0 38 -18 56q-21 21 -72 21q-49 0 -119 -24l-41 -14l-40 70q104 80 215 80q103 0 156 -56q48 -50 48 -141v-198l67 -13v-69q-42 -21 -92 -21q-48 0 -86 43l-26 -14q-66 -35 -125 -35q-79 0 -129 47t-50 117q0 65 45.5 101.5t124.5 36.5h3q70 0 139 -19z
M342 133v57q0 10 -11 10h-140q-38 0 -38 -39q0 -29 20.5 -46.5t59.5 -17.5q51 0 96 19q13 5 13 17zM273 649l127 94l52 -50l-128 -127q-13 -13 -31 -13h-41q-18 0 -31 13l-128 127l52 50z" />
    <glyph glyph-name="Aringacute" unicode="&#x1fa;" horiz-adv-x="705" 
d="M344 713q53 0 53 51t-53 51q-54 0 -54 -51t54 -51zM13 0l254 661q-53 34 -53 103q0 56 37 90.5t93 34.5t93 -34.5t37 -90.5q0 -67 -55 -103l273 -661h-131q-14 0 -19 12l-48 121h-292l-44 -121q-3 -8 -6 -10t-12 -2h-127zM278 341l-35 -97h207l-46 119q-46 117 -61 167
q-15 -50 -65 -189zM476 1018l-225 -116l-41 57l183 140q10 7 16 7q9 0 16 -12z" />
    <glyph glyph-name="aringacute" unicode="&#x1fb;" horiz-adv-x="551" 
d="M342 275v32q0 38 -18 56q-21 21 -72 21q-49 0 -119 -24l-41 -14l-40 70q104 80 215 80q103 0 156 -56q48 -50 48 -141v-198l67 -13v-69q-42 -21 -92 -21q-48 0 -86 43l-26 -14q-66 -35 -125 -35q-79 0 -129 47t-50 117q0 65 45.5 101.5t124.5 36.5h3q70 0 139 -19z
M342 133v57q0 10 -11 10h-140q-38 0 -38 -39q0 -29 20.5 -46.5t59.5 -17.5q51 0 96 19q13 5 13 17zM273 772q56 0 93 -34.5t37 -90.5t-37 -90.5t-93 -34.5t-93 34.5t-37 90.5t37 90.5t93 34.5zM273 596q53 0 53 51t-53 51q-54 0 -54 -51t54 -51zM407 900l-225 -116l-41 57
l183 140q10 7 16 7q9 0 16 -12z" />
    <glyph glyph-name="AEacute" unicode="&#x1fc;" horiz-adv-x="1016" 
d="M238 133l-75 -121q-7 -12 -24 -12h-139l423 663h528v-116h-340v-151h307v-115h-307v-165h350v-116h-488v133h-235zM369 347l-62 -103h166v280q-20 -38 -104 -177zM769 835l-225 -116l-41 57l183 140q10 7 16 7q8 0 16 -12z" />
    <glyph glyph-name="aeacute" unicode="&#x1fd;" horiz-adv-x="853" 
d="M243 96q63 0 120 31q-16 36 -21 77h-143q-44 0 -44 -41q0 -28 23.5 -47.5t64.5 -19.5zM796 204h-324q5 -45 39 -71.5t92 -26.5q42 0 105 21l61 21l41 -71q-97 -85 -221 -85q-107 0 -173 66l-38 -22q-75 -44 -155 -44t-135.5 46.5t-55.5 119.5q0 67 47 104t123 37h5
q72 0 134 -18v29q0 41 -22 57t-66 16q-52 0 -119 -23l-41 -14l-39 70q104 80 212 80q93 0 154 -61q67 61 161 61q103 0 171.5 -68t68.5 -167q0 -27 -5 -43q-5 -14 -20 -14zM472 295h221q-4 40 -33.5 64t-77.5 24t-76.5 -23.5t-33.5 -64.5zM593 658l-225 -116l-41 57l183 140
q10 7 16 7q8 0 16 -12z" />
    <glyph glyph-name="Oslashacute" unicode="&#x1fe;" horiz-adv-x="740" 
d="M371 -10q-100 0 -178 48l-66 -86l-76 55l70 91q-85 95 -85 233q0 152 98 247t235 95h2q87 0 161 -41l65 84l76 -55l-66 -85q97 -97 97 -245q0 -152 -98.5 -246.5t-234.5 -94.5zM560 331q0 86 -37 136l-248 -322q39 -21 94 -21h2q88 0 138.5 54.5t50.5 152.5zM180 331
q0 -70 27 -121l242 315q-32 13 -78 13h-2q-89 0 -139 -54t-50 -153zM507 835l-225 -116l-41 57l183 140q10 7 16 7q9 0 16 -12z" />
    <glyph glyph-name="oslashacute" unicode="&#x1ff;" horiz-adv-x="559" 
d="M416 658l-225 -116l-41 57l183 140q10 7 16 7q9 0 16 -12zM529 244q0 -117 -72.5 -184.5t-175.5 -67.5h-3q-58 0 -110 23l-61 -88l-62 40l62 88q-77 70 -77 189q0 116 72.5 184t175.5 68h3q60 0 113 -25l60 85l62 -40l-61 -87q74 -71 74 -185zM162 244q0 -50 17 -84
l145 209q-19 6 -43 6h-3q-116 0 -116 -131zM397 244q0 48 -15 79q-27 -40 -77.5 -112t-65.5 -94q20 -5 39 -5h3q116 0 116 132z" />
    <glyph glyph-name="Scommaaccent" unicode="&#x218;" horiz-adv-x="592" 
d="M37 60l35 90l68 -15q107 -24 171 -24q52 0 83 21.5t31 61.5q0 31 -22.5 47t-83.5 34l-68 20q-105 31 -156 76.5t-51 119.5q0 87 71 134.5t182 47.5q116 0 226 -45l-21 -93l-53 6q-93 11 -144 11q-132 0 -132 -60q0 -26 24.5 -42t81.5 -32l62 -18q119 -34 166.5 -79
t47.5 -121q0 -97 -66.5 -153.5t-185.5 -56.5q-64 0 -138 20t-128 50zM286 -294l-60 13l20 223h81q17 0 25.5 -20t8.5 -38v-5q-1 -23 -32 -86z" />
    <glyph glyph-name="scommaaccent" unicode="&#x219;" horiz-adv-x="478" 
d="M406 377l-48 5q-74 8 -113 8q-48 0 -69 -7t-21 -27q0 -10 8.5 -17t19.5 -11t34 -10l65 -16q89 -22 126 -53.5t37 -95.5q0 -73 -52 -117t-149 -44q-54 0 -112 15t-100 38l27 79l54 -10q84 -16 132 -16q82 0 82 47q0 19 -13 28t-52 18l-63 15q-81 20 -121 52.5t-40 93.5
q0 68 56.5 106t148.5 38q99 0 183 -38zM231 -294l-60 13l20 223h81q17 0 25.5 -20t8.5 -38v-5q-1 -23 -32 -86z" />
    <glyph glyph-name="uni021A" unicode="&#x21a;" horiz-adv-x="615" 
d="M376 547v-547h-138v547h-221v116h580v-116h-221zM296 -294l-60 13l20 223h81q17 0 25.5 -20t8.5 -38v-5q-1 -23 -32 -86z" />
    <glyph glyph-name="uni021B" unicode="&#x21b;" horiz-adv-x="430" 
d="M384 124l30 -72q-33 -26 -79 -43t-87 -17q-73 0 -116 41q-44 43 -44 127v227h-88v80l88 19v143h129v-141h162v-101h-162v-222q0 -32 13 -45q15 -15 44 -15q17 0 64 9zM219 -294l-60 13l20 223h81q17 0 25.5 -20t8.5 -38v-5q-1 -23 -32 -86z" />
    <glyph glyph-name="circumflex" unicode="&#x2c6;" horiz-adv-x="414" 
d="M334 542l-127 94l-128 -94l-52 50l128 127q13 13 31 13h41q18 0 31 -13l128 -127z" />
    <glyph glyph-name="caron" unicode="&#x2c7;" horiz-adv-x="414" 
d="M207 649l127 94l52 -50l-128 -127q-13 -13 -31 -13h-41q-18 0 -31 13l-128 127l52 50z" />
    <glyph glyph-name="breve" unicode="&#x2d8;" horiz-adv-x="415" 
d="M208 555q-71 0 -115 41t-53 108l81 13q26 -69 87 -69t86 69l82 -13q-9 -67 -53 -108t-115 -41z" />
    <glyph glyph-name="dotaccent" unicode="&#x2d9;" horiz-adv-x="418" 
d="M274 657v-102h-131v125h106q15 0 20 -5t5 -18z" />
    <glyph glyph-name="ring" unicode="&#x2da;" horiz-adv-x="416" 
d="M208 795q56 0 93 -34.5t37 -90.5t-37 -90.5t-93 -34.5t-93 34.5t-37 90.5t37 90.5t93 34.5zM208 619q53 0 53 51t-53 51q-54 0 -54 -51t54 -51z" />
    <glyph glyph-name="ogonek" unicode="&#x2db;" horiz-adv-x="416" 
d="M229 68l58 -29q-39 -24 -69 -59.5t-30 -68.5q0 -45 62 -45q22 0 37 3l22 4l20 -67q-53 -27 -107 -27q-61 0 -98.5 30t-37.5 76q0 95 143 183z" />
    <glyph glyph-name="tilde" unicode="&#x2dc;" horiz-adv-x="414" 
d="M321 703l69 -19q-8 -53 -38 -88t-78 -35q-31 0 -73 23t-56 23q-15 0 -26.5 -11.5t-25.5 -37.5l-69 19q7 53 37.5 88t77.5 35q31 0 73 -23t57 -23q24 0 52 49z" />
    <glyph glyph-name="hungarumlaut" unicode="&#x2dd;" horiz-adv-x="414" 
d="M225 718l-176 -161l-58 48l135 171q8 11 15 11q8 0 15 -7zM423 718l-176 -161l-58 48l135 171q8 11 15 11q8 0 15 -7z" />
    <glyph glyph-name="uni0374" unicode="&#x374;" horiz-adv-x="416" 
d="M299 778l-91 -237l-72 19l42 223q4 20 17 20q5 0 21 -4z" />
    <glyph glyph-name="uni0375" unicode="&#x375;" horiz-adv-x="416" 
d="M122 -236l91 237l72 -19l-42 -223q-4 -20 -17 -20q-5 0 -21 4z" />
    <glyph glyph-name="uni037E" unicode="&#x37e;" horiz-adv-x="238" 
d="M187 422v-112h-138v137h111q27 0 27 -25zM21 -127l66 111q4 8 4 10q0 4 -9 9q-7 5 -14.5 10t-10 6.5t-5 5t-3 7.5t-0.5 11v94h111q27 0 27 -25v-67q0 -57 -21.5 -96.5t-99.5 -110.5z" />
    <glyph glyph-name="tonos" unicode="&#x384;" horiz-adv-x="416" 
d="M299 778l-91 -237l-72 19l42 223q4 20 17 20q5 0 21 -4z" />
    <glyph glyph-name="dieresistonos" unicode="&#x385;" horiz-adv-x="420" 
d="M110 670v-99h-126v121h102q14 0 19 -5t5 -17zM436 670v-99h-126v121h102q14 0 19 -5t5 -17zM310 778l-91 -237l-72 19l42 223q4 20 17 20q5 0 21 -4z" />
    <glyph glyph-name="Alphatonos" unicode="&#x386;" horiz-adv-x="705" 
d="M542 12l-48 121h-292l-44 -121q-3 -8 -6 -10t-12 -2h-127l255 663h136q14 0 20 -13l268 -650h-131q-14 0 -19 12zM278 341l-35 -97h207l-46 119q-46 117 -61 167q-15 -50 -65 -189zM182 661l-91 -237l-75 20l42 223q4 20 17 20q5 0 21 -4z" />
    <glyph glyph-name="anoteleia" unicode="&#x387;" horiz-adv-x="239" 
d="M188 321v-112h-138v137h111q27 0 27 -25z" />
    <glyph glyph-name="Epsilontonos" unicode="&#x388;" horiz-adv-x="770" 
d="M227 663h478v-116h-340v-151h307v-115h-307v-165h350v-116h-488v663zM176 661l-91 -237l-75 20l42 223q4 20 17 20q5 0 21 -4z" />
    <glyph glyph-name="Etatonos" unicode="&#x389;" horiz-adv-x="882" 
d="M676 0v281h-311v-281h-138v663h138v-262h311v262h138v-663h-138zM176 661l-91 -237l-75 20l42 223q4 20 17 20q5 0 21 -4z" />
    <glyph glyph-name="Iotatonos" unicode="&#x38a;" horiz-adv-x="439" 
d="M230 0v663h138v-663h-138zM176 661l-91 -237l-75 20l42 223q4 20 17 20q5 0 21 -4z" />
    <glyph glyph-name="Omicrontonos" unicode="&#x38c;" horiz-adv-x="859" 
d="M488 -10q-136 0 -234.5 94.5t-98.5 246.5t98 247t235 95h2q137 0 235 -95t98 -247t-98.5 -246.5t-234.5 -94.5h-2zM299 331q0 -98 50.5 -152.5t138.5 -54.5h2q88 0 138.5 54.5t50.5 152.5q0 99 -50 153t-139 54h-2q-89 0 -139 -54t-50 -153zM176 661l-91 -237l-75 20
l42 223q4 20 17 20q5 0 21 -4z" />
    <glyph glyph-name="Upsilontonos" unicode="&#x38e;" horiz-adv-x="848" 
d="M176 661l-91 -237l-75 20l42 223q4 20 17 20q5 0 21 -4zM848 663l-264 -452v-211h-138v211l-267 452h141q13 0 19 -11l87 -153q31 -55 91 -173q23 48 93 175l84 150q7 12 20 12h134z" />
    <glyph glyph-name="Omegatonos" unicode="&#x38f;" horiz-adv-x="867" 
d="M453 73v-73h-279v111h131q-142 115 -142 259q0 123 97.5 213t232.5 90t232 -90t97 -213q0 -70 -32 -130t-109 -129h130v-111h-279v73q0 17 1.5 21t10.5 14l57 65q78 89 78 187q0 86 -53 132t-133 46q-82 0 -134.5 -47t-52.5 -131q0 -48 22 -98.5t56 -88.5l57 -65
q9 -11 10.5 -15t1.5 -20zM176 661l-91 -237l-75 20l42 223q4 20 17 20q5 0 21 -4z" />
    <glyph glyph-name="iotadieresistonos" unicode="&#x390;" horiz-adv-x="416" 
d="M358 88v-68q-46 -23 -99 -23q-51 0 -82 31q-30 32 -30 88v372h129v-383zM110 670v-99h-126v121h102q14 0 19 -5t5 -17zM436 670v-99h-126v121h102q14 0 19 -5t5 -17zM310 778l-91 -237l-72 19l42 223q4 20 17 20q5 0 21 -4z" />
    <glyph glyph-name="Alpha" unicode="&#x391;" horiz-adv-x="705" 
d="M542 12l-48 121h-292l-44 -121q-3 -8 -6 -10t-12 -2h-127l255 663h136q14 0 20 -13l268 -650h-131q-14 0 -19 12zM278 341l-35 -97h207l-46 119q-46 117 -61 167q-15 -50 -65 -189z" />
    <glyph glyph-name="Beta" unicode="&#x392;" horiz-adv-x="656" 
d="M68 663h280q107 0 167 -40.5t60 -123.5q0 -72 -62 -141q104 -56 104 -164q0 -194 -242 -194h-307v663zM206 279v-163h161q60 0 84.5 19.5t24.5 64.5q0 43 -20.5 61t-73.5 18h-176zM206 388h181q23 0 33 17q18 28 18 67q0 43 -22.5 59t-77.5 16h-132v-159z" />
    <glyph glyph-name="Gamma" unicode="&#x393;" horiz-adv-x="574" 
d="M206 547v-547h-138v663h469v-116h-331z" />
    <glyph glyph-name="Delta" unicode="&#x394;" horiz-adv-x="684" 
d="M38 0v80v7t0.5 5.5t1 5t2.5 7t4 9.5t6 14.5t8 20.5l199 514h137q14 0 19 -13l204 -491q5 -11 10 -23.5l7 -17.5t4.5 -11.5t3.5 -8t1.5 -5.5t0.5 -6v-7v-80h-608zM254 116h170q42 0 74 -3q-20 39 -58 134l-57 142q-30 74 -49 140q-11 -40 -48 -141l-52 -141
q-45 -116 -54 -134q31 3 74 3z" />
    <glyph glyph-name="Epsilon" unicode="&#x395;" horiz-adv-x="611" 
d="M68 663h478v-116h-340v-151h307v-115h-307v-165h350v-116h-488v663z" />
    <glyph glyph-name="Zeta" unicode="&#x396;" horiz-adv-x="616" 
d="M396 547h-351v116h520v-77q0 -15 -14 -35l-230 -303q-56 -75 -104 -132h352v-116h-521v76q0 17 13 36l230 303q27 36 105 132z" />
    <glyph glyph-name="Eta" unicode="&#x397;" horiz-adv-x="723" 
d="M517 0v281h-311v-281h-138v663h138v-262h311v262h138v-663h-138z" />
    <glyph glyph-name="Theta" unicode="&#x398;" horiz-adv-x="740" 
d="M477 284h-214v103h214v-103zM369 -10q-136 0 -234.5 94.5t-98.5 246.5t98 247t235 95h2q137 0 235 -95t98 -247t-98.5 -246.5t-234.5 -94.5h-2zM180 331q0 -98 50.5 -152.5t138.5 -54.5h2q88 0 138.5 54.5t50.5 152.5q0 99 -50 153t-139 54h-2q-89 0 -139 -54t-50 -153z
" />
    <glyph glyph-name="Iota" unicode="&#x399;" horiz-adv-x="280" 
d="M71 0v663h138v-663h-138z" />
    <glyph glyph-name="Kappa" unicode="&#x39a;" horiz-adv-x="667" 
d="M492 13l-199 292q-36 -31 -87 -57v-248h-138v663h138v-293l348 301l78 -84l-238 -201l267 -386h-142q-18 0 -27 13z" />
    <glyph glyph-name="Lambda" unicode="&#x39b;" horiz-adv-x="685" 
d="M522 12l-132 351q-37 101 -57 167q-29 -99 -61 -189l-114 -329q-3 -8 -6 -10t-12 -2h-127l243 663h136q14 0 20 -13l260 -650h-131q-15 0 -19 12z" />
    <glyph glyph-name="Mu" unicode="&#x39c;" horiz-adv-x="851" 
d="M673 663h110v-663h-134v454h-2l-172 -221h-82q-15 0 -24 11l-166 210h-2v-454h-133v663h111q16 0 27 -15l219 -274h6l215 274q11 15 27 15z" />
    <glyph glyph-name="Nu" unicode="&#x39d;" horiz-adv-x="744" 
d="M543 211v452h133v-663h-103q-16 0 -26 12l-257 323q-37 47 -89 118v-453h-133v663h104q15 0 25 -12l237 -297q82 -102 109 -143z" />
    <glyph glyph-name="Xi" unicode="&#x39e;" horiz-adv-x="618" 
d="M563 0h-508v116h508v-116zM520 281h-423v115h423v-115zM65 663h488v-116h-488v116z" />
    <glyph glyph-name="Omicron" unicode="&#x39f;" horiz-adv-x="740" 
d="M369 -10q-136 0 -234.5 94.5t-98.5 246.5t98 247t235 95h2q137 0 235 -95t98 -247t-98.5 -246.5t-234.5 -94.5h-2zM180 331q0 -98 50.5 -152.5t138.5 -54.5h2q88 0 138.5 54.5t50.5 152.5q0 99 -50 153t-139 54h-2q-89 0 -139 -54t-50 -153z" />
    <glyph glyph-name="Pi" unicode="&#x3a0;" horiz-adv-x="703" 
d="M497 0v543h-291v-543h-138v663h567v-663h-138z" />
    <glyph glyph-name="Rho" unicode="&#x3a1;" horiz-adv-x="643" 
d="M206 211v-211h-138v663h259q156 0 222 -66q56 -58 56 -158q0 -110 -64 -171q-62 -57 -181 -57h-154zM206 326h190q30 0 42 18q26 36 26 95q0 55 -27 80q-28 27 -102 27h-129v-220z" />
    <glyph glyph-name="Sigma" unicode="&#x3a3;" horiz-adv-x="623" 
d="M235 547l180 -169q12 -12 15 -18.5t3 -21.5v-28l-195 -194h330v-116h-521v72q0 23 14 37l229 228l-231 216q-15 14 -15 37v73h520v-116h-329z" />
    <glyph glyph-name="Tau" unicode="&#x3a4;" horiz-adv-x="615" 
d="M376 547v-547h-138v547h-221v116h580v-116h-221z" />
    <glyph glyph-name="Upsilon" unicode="&#x3a5;" horiz-adv-x="669" 
d="M669 663l-264 -452v-211h-138v211l-267 452h141q13 0 19 -11l87 -153q31 -55 91 -173q23 48 93 175l84 150q7 12 20 12h134z" />
    <glyph glyph-name="Phi" unicode="&#x3a6;" horiz-adv-x="780" 
d="M326 -39v74q-290 23 -290 296q0 80 24.5 138t67.5 90t91 47.5t107 19.5v73h128v-73q290 -21 290 -295t-290 -296v-74h-128zM600 331q0 169 -146 184v-368q67 8 106.5 49t39.5 135zM180 331q0 -167 146 -184v368q-146 -14 -146 -184z" />
    <glyph glyph-name="Chi" unicode="&#x3a7;" horiz-adv-x="682" 
d="M651 663l-233 -320l259 -343h-145q-16 0 -23 10l-176 237l-169 -238q-6 -9 -21 -9h-138l247 342l-244 321h145q15 0 24 -11l161 -215l155 215q9 11 23 11h135z" />
    <glyph glyph-name="Psi" unicode="&#x3a8;" horiz-adv-x="760" 
d="M446 663v-355q45 4 74 18t42.5 38t18 47t4.5 55v197h134v-199q0 -132 -72.5 -200.5t-200.5 -77.5v-186h-132v186q-129 8 -201 76.5t-72 201.5v199h135v-197q0 -33 4.5 -55.5t17.5 -47t42 -38.5t74 -17v355h132z" />
    <glyph glyph-name="Omega" unicode="&#x3a9;" horiz-adv-x="748" 
d="M334 73v-73h-279v111h131q-142 115 -142 259q0 123 97.5 213t232.5 90t232 -90t97 -213q0 -70 -32 -130t-109 -129h130v-111h-279v73q0 17 1.5 21t10.5 14l57 65q78 89 78 187q0 86 -53 132t-133 46q-82 0 -134.5 -47t-52.5 -131q0 -48 22 -98.5t56 -88.5l57 -65
q9 -11 10.5 -15t1.5 -20z" />
    <glyph glyph-name="Iotadieresis" unicode="&#x3aa;" horiz-adv-x="280" 
d="M71 0v663h138v-663h-138zM100 847v-99h-126v121h102q14 0 19 -5t5 -17zM305 847v-99h-126v121h102q14 0 19 -5t5 -17z" />
    <glyph glyph-name="Upsilondieresis" unicode="&#x3ab;" horiz-adv-x="669" 
d="M294 847v-99h-126v121h102q14 0 19 -5t5 -17zM499 847v-99h-126v121h102q14 0 19 -5t5 -17zM669 663l-264 -452v-211h-138v211l-267 452h141q13 0 19 -11l87 -153q31 -55 91 -173q23 48 93 175l84 150q7 12 20 12h134z" />
    <glyph glyph-name="alphatonos" unicode="&#x3ac;" horiz-adv-x="626" 
d="M420 379l23 95q3 14 20 14h100l-61 -244l43 -149l68 -11v-69q-37 -17 -82 -17q-84 0 -115 106q-11 -22 -22 -37.5t-31 -34.5t-50 -29.5t-68 -10.5q-97 0 -156 69t-59 182q0 114 64 183.5t155 69.5q121 0 171 -117zM372 275q-45 101 -110 101q-52 0 -76 -37t-24 -95
q0 -133 100 -133q72 0 110 98q10 26 10 34.5t-10 31.5zM401 778l-91 -237l-72 19l42 223q4 20 17 20q5 0 21 -4z" />
    <glyph glyph-name="epsilontonos" unicode="&#x3ad;" horiz-adv-x="516" 
d="M454 156l43 -70q-44 -41 -104.5 -67.5t-120.5 -26.5q-109 0 -175.5 69.5t-66.5 184.5q0 110 70.5 180t168.5 70q82 0 142 -46.5t79 -118.5l-85 -43l-45 44q-50 49 -97 49q-44 0 -72.5 -34.5t-28.5 -98.5q0 -73 30.5 -107t93.5 -34q45 0 110 26zM396 778l-91 -237l-72 19
l42 223q4 20 17 20q5 0 21 -4z" />
    <glyph glyph-name="etatonos" unicode="&#x3ae;" horiz-adv-x="563" 
d="M382 -229v530q0 36 -16 52q-20 21 -75 21h-2q-56 0 -91 -14q-10 -4 -10 -19v-341h-129v488h98l16 -43l38 21q53 30 108 30q86 0 139 -50.5t53 -139.5v-535h-129zM406 778l-91 -237l-72 19l42 223q4 20 17 20q5 0 21 -4z" />
    <glyph glyph-name="iotatonos" unicode="&#x3af;" horiz-adv-x="284" 
d="M271 88v-68q-46 -23 -99 -23q-51 0 -82 31q-30 31 -30 88v372h129v-383zM223 778l-91 -237l-72 19l42 223q4 20 17 20q5 0 21 -4z" />
    <glyph glyph-name="upsilondieresistonos" unicode="&#x3b0;" horiz-adv-x="588" 
d="M322 -8h-11q-108 0 -162 61.5t-54 162.5v172l-82 17v68q46 23 99 23q51 0 82 -31q30 -31 30 -88v-141q0 -61 19 -92t75 -31h4q56 0 80 33.5t24 106.5q0 110 -34 235h129q37 -112 37 -235q0 -128 -62.5 -194.5t-173.5 -66.5zM202 670v-99h-126v121h102q14 0 19 -5t5 -17z
M528 670v-99h-126v121h102q14 0 19 -5t5 -17zM402 778l-91 -237l-72 19l42 223q4 20 17 20q5 0 21 -4z" />
    <glyph glyph-name="alpha" unicode="&#x3b1;" horiz-adv-x="626" 
d="M420 379l23 95q3 14 20 14h100l-61 -244l43 -149l68 -11v-69q-37 -17 -82 -17q-84 0 -115 106q-11 -22 -22 -37.5t-31 -34.5t-50 -29.5t-68 -10.5q-97 0 -156 69t-59 182q0 114 64 183.5t155 69.5q121 0 171 -117zM372 275q-45 101 -110 101q-52 0 -76 -37t-24 -95
q0 -133 100 -133q72 0 110 98q10 26 10 34.5t-10 31.5z" />
    <glyph glyph-name="beta" unicode="&#x3b2;" horiz-adv-x="593" 
d="M187 38v-267h-129v713q0 112 61 173.5t179 61.5h3q104 0 167 -48.5t63 -136.5q0 -96 -67 -155q99 -45 99 -154q0 -98 -60 -165.5t-163 -67.5q-61 0 -129 34zM383 434q18 31 18 81q0 92 -100 92h-3q-111 0 -111 -125v-331q0 -14 10 -19q46 -21 110 -21q59 0 91.5 26
t32.5 88q0 60 -38.5 79.5t-114.5 21.5h-23v91h95q17 0 21.5 2t11.5 15z" />
    <glyph glyph-name="gamma" unicode="&#x3b3;" horiz-adv-x="532" 
d="M142 474l77 -197q35 -91 53 -161q16 65 49 157l73 201q6 14 20 14h118l-197 -490v-227h-129v227l-206 490h122q14 0 20 -14z" />
    <glyph glyph-name="delta" unicode="&#x3b4;" horiz-adv-x="559" 
d="M529 234q0 -110 -72.5 -176t-175.5 -66h-3q-103 0 -175.5 66t-72.5 176q0 136 107 191l28 14q-59 46 -59 122q0 68 53 113t136 45q89 0 172 -54l-30 -77l-47 10q-42 9 -71 9q-83 0 -83 -60q0 -28 30 -47t73 -35.5t86.5 -39.5t73.5 -71.5t30 -119.5zM397 234
q0 30 -7.5 51.5t-28 38.5t-40.5 27t-60 28q-11 6 -17.5 4.5t-22.5 -14.5q-59 -49 -59 -135q0 -58 29.5 -90t86.5 -32h3q57 0 86.5 32t29.5 90z" />
    <glyph glyph-name="epsilon" unicode="&#x3b5;" horiz-adv-x="459" 
d="M256 384h-3q-93 0 -93 -58v-2q0 -13 4 -25q3 -9 11 -9h134v-91h-114q-35 0 -35 -37v-2q0 -30 21.5 -42t66.5 -12h3q49 0 101 19l66 23l41 -72q-41 -38 -104 -61t-125 -23q-101 0 -150.5 38t-49.5 98q0 72 53 121l-18 25q-29 40 -29 86q0 62 55.5 99t146.5 37
q46 0 102 -15t92 -39l-30 -77l-47 9q-52 10 -99 10z" />
    <glyph glyph-name="zeta" unicode="&#x3b6;" horiz-adv-x="455" 
d="M30 236q0 65 17.5 120.5t50 98.5t63.5 71.5t72 58.5l32 23h-195v101h369v-56q0 -22 -19 -36q-130 -95 -194 -182.5t-64 -186.5q0 -41 16 -69t42 -41t57 -20.5t62.5 -13.5t57.5 -15t42 -28.5t16 -50.5q0 -53 -43 -144l-49 -102l-93 35l31 84q27 75 27 92q0 14 -22 21
t-55 9t-72 14t-72 32.5t-55 68t-22 116.5z" />
    <glyph glyph-name="eta" unicode="&#x3b7;" horiz-adv-x="563" 
d="M382 -229v530q0 36 -16 52q-20 21 -75 21h-2q-56 0 -91 -14q-10 -4 -10 -19v-341h-129v488h98l16 -43l38 21q53 30 108 30q86 0 139 -50.5t53 -139.5v-535h-129z" />
    <glyph glyph-name="theta" unicode="&#x3b8;" horiz-adv-x="559" 
d="M281 604h-3q-66 0 -92.5 -49.5t-26.5 -149.5v-4h241v4q0 100 -26.5 149.5t-92.5 49.5zM279 719h1q138 0 193.5 -92t55.5 -268v-11q0 -179 -57 -267t-192 -89h-1q-135 1 -192 89t-57 267v11q0 176 55.5 268t193.5 92zM278 105h3q66 0 92.5 49.5t26.5 149.5v6h-241v-6
q0 -100 26.5 -149.5t92.5 -49.5z" />
    <glyph glyph-name="iota" unicode="&#x3b9;" horiz-adv-x="284" 
d="M271 88v-68q-46 -23 -99 -23q-51 0 -82 31q-30 31 -30 88v372h129v-383z" />
    <glyph glyph-name="kappa" unicode="&#x3ba;" horiz-adv-x="552" 
d="M457 392l-98 -107l191 -285h-128q-17 0 -25 12l-126 190q-46 -37 -84 -55v-147h-129v488h129v-224l182 191q37 41 93 41q44 0 82 -19v-68z" />
    <glyph glyph-name="lambda" unicode="&#x3bb;" horiz-adv-x="586" 
d="M358 105l-39 104q-44 117 -51 141q-18 -69 -49 -145l-77 -191q-6 -14 -20 -14h-119l207 493l-28 68q-10 25 -21.5 35.5t-36.5 10.5q-24 0 -49 -5l-24 -5l-28 79q72 43 138 43q57 0 85 -34.5t71 -141.5l178 -444l88 -11v-69q-42 -21 -92 -21q-59 0 -85 24.5t-48 82.5z" />
    <glyph glyph-name="mu" unicode="&#x3bc;" horiz-adv-x="588" 
d="M395 43l-30 -16q-66 -35 -116 -35q-35 0 -62 9v-230h-129v717h129v-302q0 -36 16 -53q19 -20 76 -20q56 0 90 13q10 4 10 20v342h129v-387l67 -13v-69q-42 -21 -92 -21q-48 0 -88 45z" />
    <glyph glyph-name="nu" unicode="&#x3bd;" horiz-adv-x="557" 
d="M278 111l3 2q50 33 82 94.5t32 135.5q0 59 -31 125l124 28q39 -52 39 -153q0 -106 -64 -198.5t-149 -144.5h-97q-13 0 -18 11l-199 477h121q10 0 13 -2.5t7 -11.5l77 -191q44 -110 60 -172z" />
    <glyph glyph-name="xi" unicode="&#x3be;" horiz-adv-x="445" 
d="M245 608h-155v101h339v-56q0 -14 -3 -20.5t-16 -15.5q-127 -85 -158 -115q-40 -39 -40 -75v-2q0 -13 4 -25q3 -9 11 -9h135v-91h-138q-61 0 -61 -89q0 -42 29 -64.5t70.5 -30l83 -15t70.5 -29.5t29 -62q0 -53 -43 -144l-49 -102l-93 35l31 84q27 73 27 92
q0 15 -29.5 21.5t-72 12.5t-85 19t-72 50t-29.5 97q0 53 25 101.5t71 77.5l-16 18q-27 31 -27 72q0 47 46.5 91.5t115.5 72.5z" />
    <glyph glyph-name="omicron" unicode="&#x3bf;" horiz-adv-x="559" 
d="M529 244q0 -117 -72.5 -184.5t-175.5 -67.5h-3q-103 0 -175.5 67.5t-72.5 184.5q0 116 72.5 184t175.5 68h3q103 0 175.5 -68t72.5 -184zM397 244q0 131 -116 131h-3q-116 0 -116 -131q0 -132 116 -132h3q116 0 116 132z" />
    <glyph glyph-name="pi" unicode="&#x3c0;" horiz-adv-x="629" 
d="M403 125v262h-177v-387h-129v387h-79v101h593v-101h-79v-283l76 -17v-68q-42 -21 -93 -21q-56 0 -84 33.5t-28 93.5z" />
    <glyph glyph-name="rho" unicode="&#x3c1;" horiz-adv-x="573" 
d="M215 24l-28 14v-267h-129v494q0 99 68 165t173 66h3q99 -2 170 -67t71 -185q0 -114 -59.5 -183t-153.5 -69q-51 0 -115 32zM187 257v-106q0 -14 10 -19q46 -21 100 -21q58 0 86 30t28 103q0 70 -27.5 100.5t-84.5 30.5q-59 0 -85.5 -34t-26.5 -84z" />
    <glyph glyph-name="sigma1" unicode="&#x3c2;" horiz-adv-x="496" 
d="M386 -236l-93 35l31 84q27 73 27 92q0 13 -24 20t-59.5 9.5t-77 15.5t-77 34.5t-59.5 71t-24 120.5q0 110 70.5 180t168.5 70q81 0 132.5 -39.5t65.5 -103.5l-85 -43l-22 22q-50 49 -97 49q-44 0 -72.5 -34.5t-28.5 -98.5q0 -57 32.5 -88.5t79 -41t93 -16.5t79 -28
t32.5 -64q0 -53 -43 -144z" />
    <glyph glyph-name="sigma" unicode="&#x3c3;" horiz-adv-x="617" 
d="M405 240q0 127 -120 127h-3q-120 0 -120 -127q0 -62 31 -95t89 -33h3q58 0 89 33t31 95zM617 387h-66q-55 0 -71 5q23 -15 40 -57.5t17 -94.5q0 -114 -74 -181t-178 -67h-3q-104 0 -178 67t-74 181q0 121 73 184.5t179 63.5h335v-101z" />
    <glyph glyph-name="tau" unicode="&#x3c4;" horiz-adv-x="488" 
d="M161 160v227h-143v101h452v-101h-180v-224q0 -60 52 -60q24 0 68 8l21 3l28 -73q-25 -20 -64 -34.5t-79 -14.5q-75 0 -115 44.5t-40 123.5z" />
    <glyph glyph-name="upsilon" unicode="&#x3c5;" horiz-adv-x="593" 
d="M327 -8h-11q-108 0 -162 61.5t-54 162.5v172l-82 17v68q46 23 99 23q51 0 82 -31q30 -31 30 -88v-141q0 -61 19 -92t75 -31h4q56 0 80 33.5t24 106.5q0 110 -34 235h129q37 -112 37 -235q0 -128 -62.5 -194.5t-173.5 -66.5z" />
    <glyph glyph-name="phi" unicode="&#x3c6;" horiz-adv-x="841" 
d="M356 151v183q0 14 -10 19q-44 22 -85 22q-99 0 -99 -131q0 -133 99 -133q39 0 85 21q10 5 10 19zM485 -229h-129v267l-28 -16q-53 -30 -100 -30q-92 0 -145 68t-53 184q0 114 54.5 183t144.5 69q47 0 100 -31l27 -16v260h129v-260l27 16q53 31 100 31q90 0 144.5 -69
t54.5 -183q0 -116 -53 -184t-145 -68q-47 0 -100 30l-28 16v-267zM485 334v-183q0 -14 10 -19q45 -21 85 -21q99 0 99 133q0 131 -99 131q-41 0 -85 -22q-10 -5 -10 -19z" />
    <glyph glyph-name="chi" unicode="&#x3c7;" horiz-adv-x="594" 
d="M360 -135l-63 186h-1l-92 -270q-4 -10 -21 -10h-131l156 367l-103 250l-87 17v68q46 23 89 23q56 0 86.5 -23t57.5 -92l52 -160l87 256q4 11 21 11h125l-145 -353l117 -271l77 -11v-69q-42 -21 -92 -21q-59 0 -85.5 23.5t-47.5 78.5z" />
    <glyph glyph-name="psi" unicode="&#x3c8;" horiz-adv-x="792" 
d="M100 388l-82 17v68q46 23 100 23q50 0 81 -31q30 -30 30 -88v-97q0 -98 26 -130.5t106 -32.5v592h129v-592q80 0 110 32.5t30 108.5q0 105 -34 230h129q37 -112 37 -226q0 -266 -272 -266v-225h-129v225q-142 4 -201.5 68t-59.5 212v112z" />
    <glyph glyph-name="omega" unicode="&#x3c9;" horiz-adv-x="837" 
d="M807 256q0 -118 -58.5 -191t-155.5 -73q-63 0 -131 39l-44 25l-43 -25q-66 -39 -131 -39q-98 0 -156 72.5t-58 191.5q0 114 37 232h129q-34 -125 -34 -234q0 -141 94 -141h3q50 0 85 14q10 4 10 19v228h129v-228q0 -15 10 -19q35 -14 85 -14h3q94 0 94 141q0 109 -34 234
h129q37 -118 37 -232z" />
    <glyph glyph-name="iotadieresis" unicode="&#x3ca;" horiz-adv-x="249" 
d="M271 88v-68q-46 -23 -99 -23q-51 0 -82 31q-30 31 -30 88v372h129v-383zM85 670v-99h-126v121h102q14 0 19 -5t5 -17zM290 670v-99h-126v121h102q14 0 19 -5t5 -17z" />
    <glyph glyph-name="upsilondieresis" unicode="&#x3cb;" horiz-adv-x="588" 
d="M322 -8h-11q-108 0 -162 61.5t-54 162.5v172l-82 17v68q46 23 99 23q51 0 82 -31q30 -31 30 -88v-141q0 -61 19 -92t75 -31h4q56 0 80 33.5t24 106.5q0 110 -34 235h129q37 -112 37 -235q0 -128 -62.5 -194.5t-173.5 -66.5zM274 670v-99h-126v121h102q14 0 19 -5t5 -17z
M479 670v-99h-126v121h102q14 0 19 -5t5 -17z" />
    <glyph glyph-name="omicrontonos" unicode="&#x3cc;" horiz-adv-x="559" 
d="M529 244q0 -117 -72.5 -184.5t-175.5 -67.5h-3q-103 0 -175.5 67.5t-72.5 184.5q0 116 72.5 184t175.5 68h3q103 0 175.5 -68t72.5 -184zM397 244q0 131 -116 131h-3q-116 0 -116 -131q0 -132 116 -132h3q116 0 116 132zM406 778l-91 -237l-72 19l42 223q4 20 17 20
q5 0 21 -4z" />
    <glyph glyph-name="upsilontonos" unicode="&#x3cd;" horiz-adv-x="588" 
d="M322 -8h-11q-108 0 -162 61.5t-54 162.5v172l-82 17v68q46 23 99 23q51 0 82 -31q30 -31 30 -88v-141q0 -61 19 -92t75 -31h4q56 0 80 33.5t24 106.5q0 110 -34 235h129q37 -112 37 -235q0 -128 -62.5 -194.5t-173.5 -66.5zM414 778l-91 -237l-72 19l42 223q4 20 17 20
q5 0 21 -4z" />
    <glyph glyph-name="omegatonos" unicode="&#x3ce;" horiz-adv-x="837" 
d="M807 256q0 -118 -58.5 -191t-155.5 -73q-63 0 -131 39l-44 25l-43 -25q-66 -39 -131 -39q-98 0 -156 72.5t-58 191.5q0 114 37 232h129q-34 -125 -34 -234q0 -141 94 -141h3q50 0 85 14q10 4 10 19v228h129v-228q0 -15 10 -19q35 -14 85 -14h3q94 0 94 141q0 109 -34 234
h129q37 -118 37 -232zM531 778l-91 -237l-72 19l42 223q4 20 17 20q5 0 21 -4z" />
    <glyph glyph-name="uni03D0" unicode="&#x3d0;" horiz-adv-x="593" 
d="M454 407q53 -20 81 -68t28 -110q0 -98 -66.5 -167.5t-174.5 -69.5q-271 0 -271 353v13q0 154 79.5 257.5t201.5 103.5q86 0 142.5 -50.5t56.5 -128.5q0 -86 -77 -133zM296 308l-108 -45q2 -63 35.5 -108.5t94.5 -45.5q53 0 84 37t31 98q0 83 -65 83q-25 0 -72 -19z
M332 602q-63 0 -102.5 -58t-44.5 -167l128 56q49 21 70 44.5t21 57.5q0 27 -18 47t-54 20z" />
    <glyph glyph-name="theta1" unicode="&#x3d1;" horiz-adv-x="608" 
d="M254 512q0 -60 46.5 -86t148.5 -31q-2 121 -24.5 168t-82.5 47q-39 0 -63.5 -26t-24.5 -72zM348 -8h-3q-69 0 -106 24.5t-76 90.5l-72 120l-73 15v68q46 23 99 23q35 0 53.5 -20t60.5 -95l22 -39q23 -41 40.5 -57.5t46.5 -16.5h3q56 0 80.5 46.5t26.5 152.5
q-168 5 -241 54t-73 162q0 81 54 140t152 59q47 0 84 -13t61.5 -33t42 -53t27 -63t14.5 -73.5t6 -74.5t1 -76q0 -175 -61.5 -258t-168.5 -83z" />
    <glyph glyph-name="phi1" unicode="&#x3d5;" horiz-adv-x="841" 
d="M356 -229v257l-24 -13q-43 -23 -89 -23q-92 0 -152.5 68t-60.5 193q0 76 24 142.5t55 100.5l127 -28q-34 -41 -54 -99t-20 -116q0 -86 30 -114t94 -28q33 0 60 9q10 3 10 19v126q0 102 59 166.5t162 64.5h3q97 -2 164 -66.5t67 -185.5q0 -111 -58.5 -181.5t-139.5 -70.5
q-52 0 -100 23l-28 13v-257h-129zM485 257v-118q0 -17 10 -19q34 -9 85 -9q99 0 99 133q0 67 -28.5 99t-73.5 32q-46 0 -69 -34.5t-23 -83.5z" />
    <glyph glyph-name="uni0400" unicode="&#x400;" horiz-adv-x="611" 
d="M68 663h478v-116h-340v-151h307v-115h-307v-165h350v-116h-488v663zM397 717l-225 116l51 76q8 12 16 12q6 0 16 -7l183 -140z" />
    <glyph glyph-name="afii10023" unicode="&#x401;" horiz-adv-x="611" 
d="M68 663h478v-116h-340v-151h307v-115h-307v-165h350v-116h-488v663zM266 845v-99h-126v121h102q14 0 19 -5t5 -17zM471 845v-99h-126v121h102q14 0 19 -5t5 -17z" />
    <glyph glyph-name="afii10051" unicode="&#x402;" horiz-adv-x="748" 
d="M451 -107l-24 75l54 25q51 24 70 58.5t19 92.5q0 156 -154 156q-48 0 -87 -6q-17 -3 -17 -17v-277h-138v547h-158v116h600v-116h-304v-143q66 18 122 18q129 0 201.5 -72t72.5 -206q0 -121 -69 -186t-188 -65z" />
    <glyph glyph-name="afii10052" unicode="&#x403;" horiz-adv-x="567" 
d="M206 547v-547h-138v663h469v-116h-331zM455 833l-225 -116l-41 57l183 140q10 7 16 7q8 0 16 -12z" />
    <glyph glyph-name="afii10053" unicode="&#x404;" horiz-adv-x="686" 
d="M606 198l54 -86q-119 -122 -302 -122q-147 0 -234.5 97t-87.5 250q0 154 93.5 245t232.5 91q97 0 169 -37.5t110 -99.5l-69 -77l-53 33q-80 49 -158 49q-66 0 -112.5 -37.5t-58.5 -105.5h266v-120h-266q14 -74 57.5 -115t115.5 -41q85 0 168 40z" />
    <glyph glyph-name="afii10054" unicode="&#x405;" horiz-adv-x="592" 
d="M37 60l35 90l68 -15q107 -24 171 -24q52 0 83 21.5t31 61.5q0 31 -22.5 47t-83.5 34l-68 20q-105 31 -156 76.5t-51 119.5q0 87 71 134.5t182 47.5q116 0 226 -45l-21 -93l-53 6q-93 11 -144 11q-132 0 -132 -60q0 -26 24.5 -42t81.5 -32l62 -18q119 -34 166.5 -79
t47.5 -121q0 -97 -66.5 -153.5t-185.5 -56.5q-64 0 -138 20t-128 50z" />
    <glyph glyph-name="afii10055" unicode="&#x406;" horiz-adv-x="280" 
d="M71 0v663h138v-663h-138z" />
    <glyph glyph-name="afii10056" unicode="&#x407;" horiz-adv-x="280" 
d="M71 0v663h138v-663h-138zM101 845v-99h-126v121h102q14 0 19 -5t5 -17zM306 845v-99h-126v121h102q14 0 19 -5t5 -17z" />
    <glyph glyph-name="afii10057" unicode="&#x408;" horiz-adv-x="513" 
d="M23 54l28 84l58 -11q72 -14 112 -14q52 0 72 23q18 22 18 74v453h138v-449q0 -110 -56 -167q-57 -57 -151 -57q-119 0 -219 64z" />
    <glyph glyph-name="afii10058" unicode="&#x409;" horiz-adv-x="1109" 
d="M109 137l123 502q4 14 11 19t22 5h407v-262h176q235 0 235 -201q0 -97 -62 -148.5t-180 -51.5h-307v543h-187l-104 -425q-16 -63 -52.5 -95.5t-88.5 -32.5q-47 0 -82 22v83l54 9q28 5 35 33zM672 281v-165h161q60 0 84.5 19.5t24.5 64.5q0 43 -21.5 62t-78.5 19h-170z
" />
    <glyph glyph-name="afii10059" unicode="&#x40a;" horiz-adv-x="1096" 
d="M517 663h138v-262h176q235 0 235 -201q0 -97 -62 -148.5t-180 -51.5h-307v281h-311v-281h-138v663h138v-262h311v262zM655 281v-165h161q60 0 84.5 19.5t24.5 64.5q0 43 -21.5 62t-78.5 19h-170z" />
    <glyph glyph-name="afii10060" unicode="&#x40b;" horiz-adv-x="770" 
d="M312 266v-266h-138v547h-158v116h600v-116h-304v-146q72 14 130 14q134 0 201 -62q65 -62 65 -174v-179h-138v165q0 67 -33.5 97.5t-125.5 30.5q-51 0 -83 -7q-16 -3 -16 -20z" />
    <glyph glyph-name="afii10061" unicode="&#x40c;" horiz-adv-x="678" 
d="M652 0h-144q-19 0 -27 13l-178 268h-97v-281h-138v663h138v-267h39q44 0 64 8.5t45 38.5l194 233l94 -80l-161 -190q-28 -33 -64 -56zM492 833l-225 -116l-41 57l183 140q10 7 16 7q9 0 16 -12z" />
    <glyph glyph-name="uni040D" unicode="&#x40d;" horiz-adv-x="744" 
d="M543 0l1 452q-27 -41 -109 -143l-237 -297q-10 -12 -25 -12h-105v663h134v-453q52 71 89 118l257 323q10 12 26 12h102v-663h-133zM439 717l-225 116l51 76q7 12 16 12q6 0 16 -7l183 -140z" />
    <glyph glyph-name="afii10062" unicode="&#x40e;" horiz-adv-x="672" 
d="M20 663h141q13 0 19 -11l111 -197q38 -69 69 -137q22 57 61 136l97 197q5 12 20 12h134l-289 -559q-59 -114 -175 -114q-80 0 -130 30l11 86l62 4q54 3 78.5 15t44.5 47l17 30zM353 730q-71 0 -115 41t-53 108l81 13q26 -69 87 -69t86 69l82 -13q-9 -67 -53 -108
t-115 -41z" />
    <glyph glyph-name="afii10145" unicode="&#x40f;" horiz-adv-x="723" 
d="M436 0v-156q0 -22 -24 -22h-78l-40 178h-226v663h138v-547h311v547h138v-663h-219z" />
    <glyph glyph-name="afii10017" unicode="&#x410;" horiz-adv-x="705" 
d="M542 12l-48 121h-292l-44 -121q-3 -8 -6 -10t-12 -2h-127l255 663h136q14 0 20 -13l268 -650h-131q-14 0 -19 12zM278 341l-35 -97h207l-46 119q-46 117 -61 167q-15 -50 -65 -189z" />
    <glyph glyph-name="afii10018" unicode="&#x411;" horiz-adv-x="647" 
d="M206 281v-165h161q60 0 84.5 19.5t24.5 64.5q0 43 -21.5 62t-78.5 19h-170zM68 663h478v-116h-340v-151h176q235 0 235 -196q0 -97 -62 -148.5t-180 -51.5h-307v663z" />
    <glyph glyph-name="afii10019" unicode="&#x412;" horiz-adv-x="656" 
d="M68 663h280q107 0 167 -40.5t60 -123.5q0 -72 -62 -141q104 -56 104 -164q0 -194 -242 -194h-307v663zM206 279v-163h161q60 0 84.5 19.5t24.5 64.5q0 43 -20.5 61t-73.5 18h-176zM206 388h181q23 0 33 17q18 28 18 67q0 43 -22.5 59t-77.5 16h-132v-159z" />
    <glyph glyph-name="afii10020" unicode="&#x413;" horiz-adv-x="567" 
d="M206 547v-547h-138v663h469v-116h-331z" />
    <glyph glyph-name="afii10021" unicode="&#x414;" horiz-adv-x="814" 
d="M553 543h-190l-105 -427h295v427zM653 0h-492l-19 -130h-88q-24 0 -24 22v224h66q24 0 29 21l123 502q6 24 33 24h410v-547h93v-224q0 -22 -24 -22h-88z" />
    <glyph glyph-name="afii10022" unicode="&#x415;" horiz-adv-x="611" 
d="M68 663h478v-116h-340v-151h307v-115h-307v-165h350v-116h-488v663z" />
    <glyph glyph-name="afii10024" unicode="&#x416;" horiz-adv-x="1048" 
d="M151 680l149 -222q25 -37 47.5 -49.5t66.5 -12.5h41v267h138v-267h41q44 0 66.5 12.5t47.5 49.5l146 218l109 -68l-135 -198q-23 -36 -57 -60l211 -350h-142q-20 0 -27 13l-156 268h-104v-281h-138v281h-104l-156 -268q-7 -13 -27 -13h-142l211 350q-34 24 -57 60
l-138 202z" />
    <glyph glyph-name="afii10025" unicode="&#x417;" horiz-adv-x="635" 
d="M162 275v115h212q29 0 41 14q17 20 17 53q0 43 -31.5 68t-93.5 25q-68 0 -146 -21l-68 -19l-42 94q125 69 265 69q109 0 181 -53.5t72 -144.5q0 -81 -66 -128q92 -48 92 -140q0 -99 -79.5 -158t-190.5 -59q-178 0 -299 100l44 85l68 -28q87 -36 176 -36q141 0 141 89
q0 75 -103 75h-190z" />
    <glyph glyph-name="afii10026" unicode="&#x418;" horiz-adv-x="744" 
d="M543 0l1 452q-27 -41 -109 -143l-237 -297q-10 -12 -25 -12h-105v663h134v-453q52 71 89 118l257 323q10 12 26 12h102v-663h-133z" />
    <glyph glyph-name="afii10027" unicode="&#x419;" horiz-adv-x="744" 
d="M543 0l1 452q-27 -41 -109 -143l-237 -297q-10 -12 -25 -12h-105v663h134v-453q52 71 89 118l257 323q10 12 26 12h102v-663h-133zM372 730q-71 0 -115 41t-53 108l81 13q26 -69 87 -69t86 69l82 -13q-9 -67 -53 -108t-115 -41z" />
    <glyph glyph-name="afii10028" unicode="&#x41a;" horiz-adv-x="678" 
d="M652 0h-144q-19 0 -27 13l-178 268h-97v-281h-138v663h138v-267h39q44 0 64 8.5t45 38.5l194 233l94 -80l-161 -190q-28 -33 -64 -56z" />
    <glyph glyph-name="afii10029" unicode="&#x41b;" horiz-adv-x="740" 
d="M109 137l123 502q4 14 11 19t22 5h407v-663h-138v543h-187l-104 -425q-16 -63 -52.5 -95.5t-88.5 -32.5q-47 0 -82 22v83l54 9q28 5 35 33z" />
    <glyph glyph-name="afii10030" unicode="&#x41c;" horiz-adv-x="851" 
d="M673 663h110v-663h-134v454h-2l-172 -221h-82q-15 0 -24 11l-166 210h-2v-454h-133v663h111q16 0 27 -15l219 -274h6l215 274q11 15 27 15z" />
    <glyph glyph-name="afii10031" unicode="&#x41d;" horiz-adv-x="723" 
d="M517 0v281h-311v-281h-138v663h138v-262h311v262h138v-663h-138z" />
    <glyph glyph-name="afii10032" unicode="&#x41e;" horiz-adv-x="740" 
d="M369 -10q-136 0 -234.5 94.5t-98.5 246.5t98 247t235 95h2q137 0 235 -95t98 -247t-98.5 -246.5t-234.5 -94.5h-2zM180 331q0 -98 50.5 -152.5t138.5 -54.5h2q88 0 138.5 54.5t50.5 152.5q0 99 -50 153t-139 54h-2q-89 0 -139 -54t-50 -153z" />
    <glyph glyph-name="afii10033" unicode="&#x41f;" horiz-adv-x="713" 
d="M68 0v663h577v-663h-138v543h-301v-543h-138z" />
    <glyph glyph-name="afii10034" unicode="&#x420;" horiz-adv-x="643" 
d="M206 211v-211h-138v663h259q156 0 222 -66q56 -58 56 -158q0 -110 -64 -171q-62 -57 -181 -57h-154zM206 326h190q30 0 42 18q26 36 26 95q0 55 -27 80q-28 27 -102 27h-129v-220z" />
    <glyph glyph-name="afii10035" unicode="&#x421;" horiz-adv-x="682" 
d="M604 205l54 -70q-56 -64 -135 -104.5t-169 -40.5q-143 0 -230.5 96.5t-87.5 244.5q0 154 93.5 248t228.5 94q103 0 176 -52.5t108 -146.5l-89 -57l-61 56q-74 68 -144 68q-73 0 -120.5 -53.5t-47.5 -155.5q0 -96 49.5 -153t139.5 -57q63 0 134 34z" />
    <glyph glyph-name="afii10036" unicode="&#x422;" horiz-adv-x="615" 
d="M376 547v-547h-138v547h-221v116h580v-116h-221z" />
    <glyph glyph-name="afii10037" unicode="&#x423;" horiz-adv-x="672" 
d="M20 663h141q13 0 19 -11l111 -197q38 -69 69 -137q22 57 61 136l97 197q5 12 20 12h134l-289 -559q-59 -114 -175 -114q-80 0 -130 30l11 86l62 4q54 3 78.5 15t44.5 47l17 30z" />
    <glyph glyph-name="afii10038" unicode="&#x424;" horiz-adv-x="780" 
d="M325 -10v82q-134 11 -211.5 80.5t-77.5 188.5t77.5 188.5t211.5 80.5v73h130v-73q134 -11 211.5 -80.5t77.5 -188.5t-77.5 -189t-211.5 -80v-82h-130zM612 341q0 71 -36.5 109.5t-120.5 46.5v-313q86 8 121.5 46t35.5 111zM168 341q0 -73 35.5 -111t121.5 -46v313
q-84 -8 -120.5 -46.5t-36.5 -109.5z" />
    <glyph glyph-name="afii10039" unicode="&#x425;" horiz-adv-x="682" 
d="M651 663l-233 -320l259 -343h-145q-16 0 -23 10l-176 237l-169 -238q-6 -9 -21 -9h-138l247 342l-244 321h145q15 0 24 -11l161 -215l155 215q9 11 23 11h135z" />
    <glyph glyph-name="afii10040" unicode="&#x426;" horiz-adv-x="768" 
d="M607 0h-539v663h138v-547h301v547h138v-547h93v-224q0 -22 -24 -22h-78z" />
    <glyph glyph-name="afii10041" unicode="&#x427;" horiz-adv-x="660" 
d="M454 0v255l-34 -9q-58 -15 -118 -15q-119 0 -183 59q-61 58 -61 169v204h138v-204q0 -53 27.5 -83t114.5 -30q46 0 83 6l18 3q15 3 15 17v291h138v-663h-138z" />
    <glyph glyph-name="afii10042" unicode="&#x428;" horiz-adv-x="1030" 
d="M962 663v-663h-894v663h138v-547h240v547h138v-547h240v547h138z" />
    <glyph glyph-name="afii10043" unicode="&#x429;" horiz-adv-x="1085" 
d="M924 0h-856v663h138v-547h240v547h138v-547h240v547h138v-547h93v-224q0 -22 -24 -22h-78z" />
    <glyph glyph-name="afii10044" unicode="&#x42a;" horiz-adv-x="747" 
d="M20 547v116h286v-262h176q235 0 235 -201q0 -97 -62 -148.5t-180 -51.5h-307v547h-148zM306 281v-165h161q60 0 84.5 19.5t24.5 64.5q0 43 -21.5 62t-78.5 19h-170z" />
    <glyph glyph-name="afii10045" unicode="&#x42b;" horiz-adv-x="887" 
d="M375 0h-307v663h138v-262h176q235 0 235 -201q0 -97 -62 -148.5t-180 -51.5zM206 281v-165h161q60 0 84.5 19.5t24.5 64.5q0 43 -21.5 62t-78.5 19h-170zM681 0v663h138v-663h-138z" />
    <glyph glyph-name="afii10046" unicode="&#x42c;" horiz-adv-x="647" 
d="M375 0h-307v663h138v-262h176q235 0 235 -201q0 -97 -62 -148.5t-180 -51.5zM206 281v-165h161q60 0 84.5 19.5t24.5 64.5q0 43 -21.5 62t-78.5 19h-170z" />
    <glyph glyph-name="afii10047" unicode="&#x42d;" horiz-adv-x="684" 
d="M24 112l54 86l75 -36q83 -40 168 -40q72 0 115.5 41t57.5 115h-266v120h266q-12 68 -58.5 105.5t-112.5 37.5q-78 0 -158 -49l-53 -33l-69 77q38 62 110 99.5t169 37.5q139 0 232.5 -91t93.5 -245q0 -153 -87.5 -250t-234.5 -97q-183 0 -302 122z" />
    <glyph glyph-name="afii10048" unicode="&#x42e;" horiz-adv-x="1001" 
d="M68 0v663h138v-267h116q17 131 107 204t211 73h2q134 0 228.5 -92t94.5 -250t-94 -249.5t-229 -91.5h-2q-126 0 -216 74t-104 217h-114v-281h-138zM459 331q0 -105 47 -157.5t134 -52.5h2q87 0 134 52.5t47 157.5t-47 157.5t-134 52.5h-2q-87 0 -134 -52.5t-47 -157.5z
" />
    <glyph glyph-name="afii10049" unicode="&#x42f;" horiz-adv-x="671" 
d="M300 210l-114 -196q-6 -10 -10 -12t-15 -2h-139l151 250q-51 32 -80.5 82.5t-29.5 114.5q0 114 70 165t209 51h261v-663h-138v223h-139q-9 0 -12 -0.5t-6.5 -3t-7.5 -9.5zM266 338h199v208h-127q-80 0 -110 -26q-24 -23 -24 -73q0 -57 23 -91q12 -18 39 -18z" />
    <glyph glyph-name="afii10065" unicode="&#x430;" horiz-adv-x="551" 
d="M342 275v32q0 38 -18 56q-21 21 -72 21q-49 0 -119 -24l-41 -14l-40 70q104 80 215 80q103 0 156 -56q48 -50 48 -141v-198l67 -13v-69q-42 -21 -92 -21q-48 0 -86 43l-26 -14q-66 -35 -125 -35q-79 0 -129 47t-50 117q0 65 45.5 101.5t124.5 36.5h3q70 0 139 -19z
M342 133v57q0 10 -11 10h-140q-38 0 -38 -39q0 -29 20.5 -46.5t59.5 -17.5q51 0 96 19q13 5 13 17z" />
    <glyph glyph-name="afii10066" unicode="&#x431;" horiz-adv-x="575" 
d="M169 422l38 20q58 30 120 30q97 0 157.5 -63t60.5 -167q0 -108 -65.5 -179t-183.5 -71h-4q-58 0 -101.5 16.5t-78.5 55.5t-53.5 109t-18.5 171q0 177 66 265q83 110 242 110q80 0 145 -25v-70l-129 -14q-114 -12 -157 -67q-33 -43 -38 -121zM295 359q-43 0 -91 -12
l-20 -5q-15 -3 -15 -19v-17q0 -32 4.5 -61t16.5 -62t39.5 -53t68.5 -20q56 0 84 37.5t28 94.5q0 117 -115 117z" />
    <glyph glyph-name="afii10067" unicode="&#x432;" horiz-adv-x="549" 
d="M58 488h269q76 0 117.5 -31t41.5 -92q0 -62 -50 -101q83 -34 83 -123q0 -141 -164 -141h-297v488zM187 205v-104h122q44 0 62 12.5t18 40.5q0 27 -15.5 39t-53.5 12h-133zM187 391v-97h141q19 0 25 9q8 11 8 36q0 29 -15.5 40.5t-52.5 11.5h-106z" />
    <glyph glyph-name="afii10068" unicode="&#x433;" horiz-adv-x="449" 
d="M419 488v-101h-232v-387h-129v488h361z" />
    <glyph glyph-name="afii10069" unicode="&#x434;" horiz-adv-x="661" 
d="M558 113h73v-202q0 -20 -20 -20h-68l-24 109h-377l-24 -109h-68q-20 0 -20 20v202h69q18 0 22 18l78 340q4 17 24 17h335v-375zM303 375l-60 -262h186v262h-126z" />
    <glyph glyph-name="afii10070" unicode="&#x435;" horiz-adv-x="543" 
d="M511 263q0 -30 -5 -46q-4 -13 -21 -13h-323q5 -46 38 -72t91 -26q46 0 113 23l55 19l41 -72q-45 -38 -103.5 -61t-117.5 -23q-107 0 -178 70.5t-71 180.5q0 113 70.5 183t173.5 70t170 -67.5t67 -165.5zM162 295h221q-4 40 -33.5 64t-76.5 24q-48 0 -77 -24t-34 -64z" />
    <glyph glyph-name="afii10072" unicode="&#x436;" horiz-adv-x="857" 
d="M298 204l-122 -190q-9 -14 -28 -14h-128l173 257q-33 25 -61 62l-89 114l94 69l111 -146q25 -33 42 -42t55 -9h19v183h129v-183h19q38 0 55 9t42 42l111 146l94 -69l-89 -114q-28 -37 -61 -62l173 -257h-128q-19 0 -28 14l-122 190h-66v-204h-129v204h-66z" />
    <glyph glyph-name="afii10073" unicode="&#x437;" horiz-adv-x="520" 
d="M148 203v91h158q12 0 18 8q8 10 8 27q0 54 -90 54q-52 0 -101 -13l-58 -16l-32 76q100 66 207 66q88 0 146 -41t58 -108q0 -59 -46 -91q64 -32 64 -105q0 -71 -63.5 -114.5t-155.5 -43.5q-129 0 -231 83l41 72l58 -20q63 -22 122 -22q97 0 97 55q0 42 -66 42h-134z" />
    <glyph glyph-name="afii10074" unicode="&#x438;" horiz-adv-x="586" 
d="M407 0v183q0 61 4 133q-36 -58 -83 -115l-158 -192q-8 -9 -23 -9h-89v488h121v-184q0 -61 -4 -133q36 58 83 115l157 193q8 9 20 9h93v-488h-121z" />
    <glyph glyph-name="afii10075" unicode="&#x439;" horiz-adv-x="586" 
d="M407 0v183q0 61 4 133q-36 -58 -83 -115l-158 -192q-8 -9 -23 -9h-89v488h121v-184q0 -61 -4 -133q36 58 83 115l157 193q8 9 20 9h93v-488h-121zM290 555q-71 0 -115 41t-53 108l81 13q26 -69 87 -69t86 69l82 -13q-9 -67 -53 -108t-115 -41z" />
    <glyph glyph-name="afii10076" unicode="&#x43a;" horiz-adv-x="567" 
d="M391 14l-122 190h-82v-204h-129v488h129v-183h35q38 0 55 9t42 42l111 146l94 -69l-89 -114q-28 -37 -61 -62l173 -257h-128q-19 0 -28 14z" />
    <glyph glyph-name="afii10077" unicode="&#x43b;" horiz-adv-x="592" 
d="M20 19v69l52 10q19 4 23 23l80 350q4 17 24 17h335v-488h-129v375h-123l-62 -271q-25 -112 -115 -112q-52 0 -85 27z" />
    <glyph glyph-name="afii10078" unicode="&#x43c;" horiz-adv-x="678" 
d="M468 265l-70 -116h-96q-23 0 -34 17l-58 96q-24 41 -39 73q3 -31 3 -79v-256h-116v488h121q20 0 29 -14l131 -217l131 217q8 14 29 14h121v-488h-118v256q0 36 4 79q-16 -34 -38 -70z" />
    <glyph glyph-name="afii10079" unicode="&#x43d;" horiz-adv-x="588" 
d="M401 0v202h-214v-202h-129v488h129v-185h214v185h129v-488h-129z" />
    <glyph glyph-name="afii10080" unicode="&#x43e;" horiz-adv-x="559" 
d="M529 244q0 -117 -72.5 -184.5t-175.5 -67.5h-3q-103 0 -175.5 67.5t-72.5 184.5q0 116 72.5 184t175.5 68h3q103 0 175.5 -68t72.5 -184zM397 244q0 131 -116 131h-3q-116 0 -116 -131q0 -132 116 -132h3q116 0 116 132z" />
    <glyph glyph-name="afii10081" unicode="&#x43f;" horiz-adv-x="568" 
d="M381 0v375h-194v-375h-129v488h452v-488h-129z" />
    <glyph glyph-name="afii10082" unicode="&#x440;" horiz-adv-x="573" 
d="M215 24l-28 14v-267h-129v717h98l18 -45l43 21q65 32 112 32q92 0 153 -70t61 -182q0 -114 -59.5 -183t-153.5 -69q-51 0 -115 32zM187 334v-183q0 -14 10 -19q46 -21 100 -21q58 0 86 30t28 103q0 71 -28 101t-86 30q-56 0 -100 -22q-10 -5 -10 -19z" />
    <glyph glyph-name="afii10083" unicode="&#x441;" horiz-adv-x="516" 
d="M454 156l43 -70q-44 -41 -104.5 -67.5t-120.5 -26.5q-109 0 -175.5 69.5t-66.5 184.5q0 110 70.5 180t168.5 70q82 0 142 -46.5t79 -118.5l-85 -43l-45 44q-50 49 -97 49q-44 0 -72.5 -34.5t-28.5 -98.5q0 -73 30.5 -107t93.5 -34q45 0 110 26z" />
    <glyph glyph-name="afii10084" unicode="&#x442;" horiz-adv-x="529" 
d="M329 387v-387h-129v387h-170v101h469v-101h-170z" />
    <glyph glyph-name="afii10085" unicode="&#x443;" horiz-adv-x="532" 
d="M142 474l77 -191q41 -103 53 -149q19 66 49 145l73 195q6 14 20 14h118l-291 -724l-124 29l90 202l-207 493h122q14 0 20 -14z" />
    <glyph glyph-name="afii10086" unicode="&#x444;" horiz-adv-x="879" 
d="M375 -229v267q-40 -25 -66 -35.5t-61 -10.5q-90 0 -150 71.5t-60 181.5q0 112 57.5 181.5t146.5 69.5q48 0 104 -33l29 -17v263h129v-263l29 17q56 33 104 33q89 0 146.5 -69.5t57.5 -181.5q0 -110 -60 -181.5t-150 -71.5q-35 0 -61 10.5t-66 35.5v-267h-129zM504 337
v-185q0 -16 10 -21q38 -19 85 -19q110 0 110 132q0 133 -110 133q-51 0 -85 -21q-10 -6 -10 -19zM375 152v185q0 13 -10 19q-34 21 -85 21q-110 0 -110 -133q0 -132 110 -132q47 0 85 19q10 5 10 21z" />
    <glyph glyph-name="afii10087" unicode="&#x445;" horiz-adv-x="529" 
d="M526 0h-137q-14 0 -21 10l-110 155h-1l-102 -155q-7 -10 -21 -10h-131l176 252l-172 236h135q16 0 23 -11l99 -142l97 142q7 11 21 11h125l-165 -239z" />
    <glyph glyph-name="afii10088" unicode="&#x446;" horiz-adv-x="611" 
d="M475 0h-417v488h129v-375h202v375h129v-375h73v-202q0 -20 -20 -20h-72z" />
    <glyph glyph-name="afii10089" unicode="&#x447;" horiz-adv-x="532" 
d="M306 261l17 3q13 2 17.5 5.5t4.5 11.5v207h129v-488h-129v170l-28 -13q-47 -22 -100 -22q-84 0 -135.5 50.5t-51.5 139.5v163h129v-157q0 -38 18.5 -56t76.5 -18q25 0 52 4z" />
    <glyph glyph-name="afii10090" unicode="&#x448;" horiz-adv-x="867" 
d="M369 113v375h129v-375h182v375h129v-488h-751v488h129v-375h182z" />
    <glyph glyph-name="afii10091" unicode="&#x449;" horiz-adv-x="902" 
d="M766 0h-708v488h129v-375h182v375h129v-375h182v375h129v-375h73v-202q0 -20 -20 -20h-72z" />
    <glyph glyph-name="afii10092" unicode="&#x44a;" horiz-adv-x="598" 
d="M140 0v387h-120v101h249v-174h116q183 0 183 -155q0 -78 -48.5 -118.5t-141.5 -40.5h-238zM373 213h-104v-112h98q42 0 58.5 13t16.5 45q0 28 -15 41t-54 13z" />
    <glyph glyph-name="afii10093" unicode="&#x44b;" horiz-adv-x="737" 
d="M58 0v488h129v-174h116q183 0 183 -155q0 -78 -48.5 -118.5t-141.5 -40.5h-238zM291 213h-104v-112h98q42 0 58.5 13t16.5 45q0 28 -15 41t-54 13zM550 0v488h129v-488h-129z" />
    <glyph glyph-name="afii10094" unicode="&#x44c;" horiz-adv-x="516" 
d="M58 0v488h129v-174h116q183 0 183 -155q0 -78 -48.5 -118.5t-141.5 -40.5h-238zM291 213h-104v-112h98q42 0 58.5 13t16.5 45q0 28 -15 41t-54 13z" />
    <glyph glyph-name="afii10095" unicode="&#x44d;" horiz-adv-x="540" 
d="M251 106q56 0 88.5 26.5t38.5 71.5h-202v91h201q-21 87 -130 87q-45 0 -111 -23l-55 -19l-41 72q96 84 212 84q114 0 186 -70t72 -181v-2q0 -110 -71 -180.5t-182 -70.5q-121 0 -217 84l41 72l55 -19q67 -23 115 -23z" />
    <glyph glyph-name="afii10096" unicode="&#x44e;" horiz-adv-x="789" 
d="M759 244q0 -116 -71 -184t-171 -68h-3q-92 0 -159 53.5t-80 155.5h-88v-201h-129v488h129v-174h93q19 88 84 135t150 47h3q100 0 171 -68t71 -184zM627 244q0 137 -114 137h-3q-114 0 -114 -137q0 -138 114 -138h3q114 0 114 138z" />
    <glyph glyph-name="afii10097" unicode="&#x44f;" horiz-adv-x="552" 
d="M264 164l-88 -151q-8 -13 -23 -13h-127l115 186q-85 45 -85 145q0 157 201 157h237v-488h-129v164h-101zM365 388h-102q-42 0 -61.5 -15.5t-19.5 -50.5q0 -36 14 -50q8 -8 29 -8h140v124z" />
    <glyph glyph-name="uni0450" unicode="&#x450;" horiz-adv-x="543" 
d="M511 263q0 -30 -5 -46q-4 -13 -21 -13h-323q5 -46 38 -72t91 -26q46 0 113 23l55 19l41 -72q-45 -38 -103.5 -61t-117.5 -23q-107 0 -178 70.5t-71 180.5q0 113 70.5 183t173.5 70t170 -67.5t67 -165.5zM162 295h221q-4 40 -33.5 64t-76.5 24q-48 0 -77 -24t-34 -64z
M349 542l-225 116l51 76q7 12 16 12q6 0 16 -7l183 -140z" />
    <glyph glyph-name="afii10071" unicode="&#x451;" horiz-adv-x="543" 
d="M511 263q0 -30 -5 -46q-4 -13 -21 -13h-323q5 -46 38 -72t91 -26q46 0 113 23l55 19l41 -72q-45 -38 -103.5 -61t-117.5 -23q-107 0 -178 70.5t-71 180.5q0 113 70.5 183t173.5 70t170 -67.5t67 -165.5zM162 295h221q-4 40 -33.5 64t-76.5 24q-48 0 -77 -24t-34 -64z
M232 670v-99h-126v121h102q14 0 19 -5t5 -17zM437 670v-99h-126v121h102q14 0 19 -5t5 -17z" />
    <glyph glyph-name="afii10099" unicode="&#x452;" horiz-adv-x="562" 
d="M187 453l23 13q54 30 108 30q86 0 139 -50.5t53 -139.5v-342q0 -95 -33 -136t-123 -41q-49 0 -88 16v70l57 11q36 7 47 18.5t11 41.5v357q0 36 -16 52q-20 21 -75 21h-2q-56 0 -91 -14q-10 -4 -10 -19v-341h-129v556h-74v68l74 13v72h129v-72h154v-81h-154v-103z" />
    <glyph glyph-name="afii10100" unicode="&#x453;" horiz-adv-x="449" 
d="M419 488v-101h-232v-387h-129v488h361zM398 658l-225 -116l-41 57l183 140q10 7 16 7q9 0 16 -12z" />
    <glyph glyph-name="afii10101" unicode="&#x454;" horiz-adv-x="530" 
d="M289 106q48 0 115 23l55 19l41 -72q-96 -84 -217 -84q-111 0 -182 70.5t-71 180.5v2q0 111 72 181t186 70q116 0 212 -84l-41 -72l-55 19q-66 23 -111 23q-109 0 -130 -87h201v-91h-202q6 -45 38.5 -71.5t88.5 -26.5z" />
    <glyph glyph-name="afii10102" unicode="&#x455;" horiz-adv-x="478" 
d="M406 377l-48 5q-74 8 -113 8q-48 0 -69 -7t-21 -27q0 -10 8.5 -17t19.5 -11t34 -10l65 -16q89 -22 126 -53.5t37 -95.5q0 -73 -52 -117t-149 -44q-54 0 -112 15t-100 38l27 79l54 -10q84 -16 132 -16q82 0 82 47q0 19 -13 28t-52 18l-63 15q-81 20 -121 52.5t-40 93.5
q0 68 56.5 106t148.5 38q99 0 183 -38z" />
    <glyph glyph-name="afii10103" unicode="&#x456;" horiz-adv-x="249" 
d="M60 0v488h129v-488h-129zM60 566v127h102q15 0 21 -5.5t6 -19.5v-102h-129z" />
    <glyph glyph-name="afii10104" unicode="&#x457;" horiz-adv-x="249" 
d="M85 670v-99h-126v121h102q14 0 19 -5t5 -17zM290 670v-99h-126v121h102q14 0 19 -5t5 -17zM60 0v488h129v-488h-129z" />
    <glyph glyph-name="afii10105" unicode="&#x458;" horiz-adv-x="248" 
d="M188 488v-544q0 -95 -33 -136t-123 -41q-49 0 -88 16v70l57 11q36 7 47 18.5t11 41.5v564h129zM59 566v127h102q15 0 21 -5.5t6 -19.5v-102h-129z" />
    <glyph glyph-name="afii10106" unicode="&#x459;" horiz-adv-x="863" 
d="M638 213h-104v-112h98q42 0 58.5 13t16.5 45q0 28 -15 41t-54 13zM199 488h335v-174h116q183 0 183 -155q0 -78 -48.5 -118.5t-141.5 -40.5h-238v375h-123l-62 -271q-25 -112 -115 -112q-52 0 -85 27v69l52 10q19 4 23 23l80 350q4 17 24 17z" />
    <glyph glyph-name="afii10107" unicode="&#x45a;" horiz-adv-x="859" 
d="M401 0v207h-214v-207h-129v488h129v-180h214v180h129v-180h116q183 0 183 -152q0 -156 -190 -156h-238zM634 207h-104v-106h98q42 0 58.5 12t16.5 43q0 28 -15 39.5t-54 11.5z" />
    <glyph glyph-name="afii10108" unicode="&#x45b;" horiz-adv-x="562" 
d="M187 453l23 13q54 30 108 30q86 0 139 -50.5t53 -139.5v-306h-129v301q0 36 -16 52q-20 21 -75 21h-2q-56 0 -91 -14q-10 -4 -10 -19v-341h-129v556h-74v68l74 13v72h129v-72h154v-81h-154v-103z" />
    <glyph glyph-name="afii10109" unicode="&#x45c;" horiz-adv-x="567" 
d="M391 14l-122 190h-82v-204h-129v488h129v-183h35q38 0 55 9t42 42l111 146l94 -69l-89 -114q-28 -37 -61 -62l173 -257h-128q-19 0 -28 14zM432 658l-225 -116l-41 57l183 140q10 7 16 7q9 0 16 -12z" />
    <glyph glyph-name="uni045D" unicode="&#x45d;" horiz-adv-x="586" 
d="M407 0v183q0 61 4 133q-36 -58 -83 -115l-158 -192q-8 -9 -23 -9h-89v488h121v-184q0 -61 -4 -133q36 58 83 115l157 193q8 9 20 9h93v-488h-121zM382 542l-225 116l51 76q8 12 16 12q6 0 16 -7l183 -140z" />
    <glyph glyph-name="afii10110" unicode="&#x45e;" horiz-adv-x="532" 
d="M142 474l77 -191q41 -103 53 -149q19 66 49 145l73 195q6 14 20 14h118l-291 -724l-124 29l90 202l-207 493h122q14 0 20 -14zM266 555q-71 0 -115 41t-53 108l81 13q26 -69 87 -69t86 69l82 -13q-9 -67 -53 -108t-115 -41z" />
    <glyph glyph-name="afii10193" unicode="&#x45f;" horiz-adv-x="566" 
d="M341 0v-132q0 -20 -20 -20h-72l-34 152h-157v488h129v-375h192v375h129v-488h-167z" />
    <glyph glyph-name="afii10050" unicode="&#x490;" horiz-adv-x="568" 
d="M409 663l27 124h78q24 0 24 -22v-224h-332v-541h-138v663h341z" />
    <glyph glyph-name="afii10098" unicode="&#x491;" horiz-adv-x="452" 
d="M422 387h-235v-387h-129v488h246l26 121h72q20 0 20 -20v-202z" />
    <glyph glyph-name="uni0492" unicode="&#x492;" horiz-adv-x="629" 
d="M20 255v111h110v297h469v-122h-331v-175h175v-111h-175v-255h-138v255h-110z" />
    <glyph glyph-name="uni0493" unicode="&#x493;" horiz-adv-x="499" 
d="M335 269v-91h-98v-178h-129v178h-78v91h78v219h361v-101h-232v-118h98z" />
    <glyph glyph-name="uni049A" unicode="&#x49a;" horiz-adv-x="702" 
d="M602 116h64v-224q0 -22 -24 -22h-78l-29 130h-17q-19 0 -27 13l-172 268h-113v-281h-138v663h138v-267h95q23 0 35 13l226 271l94 -80l-165 -196q-28 -33 -64 -56l148 -219q9 -13 27 -13z" />
    <glyph glyph-name="uni049B" unicode="&#x49b;" horiz-adv-x="589" 
d="M374 257l87 -130q9 -14 28 -14h70v-202q0 -20 -20 -20h-72l-24 109h-24q-19 0 -28 14l-122 190h-82v-204h-129v488h129v-183h35q38 0 55 9t42 42l111 146l94 -69l-89 -114q-28 -37 -61 -62z" />
    <glyph glyph-name="uni04A2" unicode="&#x4a2;" horiz-adv-x="778" 
d="M517 0v281h-311v-281h-138v663h138v-262h311v262h138v-547h93v-224q0 -22 -24 -22h-78l-29 130h-100z" />
    <glyph glyph-name="uni04A3" unicode="&#x4a3;" horiz-adv-x="633" 
d="M401 0v202h-214v-202h-129v488h129v-185h214v185h129v-375h70v-202q0 -20 -20 -20h-72l-24 109h-83z" />
    <glyph glyph-name="uni04AE" unicode="&#x4ae;" horiz-adv-x="669" 
d="M669 663l-264 -452v-211h-138v211l-267 452h141q13 0 19 -11l87 -153q31 -55 91 -173q23 48 93 175l84 150q7 12 20 12h134z" />
    <glyph glyph-name="uni04AF" unicode="&#x4af;" horiz-adv-x="552" 
d="M152 474l77 -197q35 -91 53 -161q16 65 49 157l73 201q6 14 20 14h118l-197 -490v-227h-129v227l-206 490h122q14 0 20 -14z" />
    <glyph glyph-name="uni04B0" unicode="&#x4b0;" horiz-adv-x="669" 
d="M669 663l-264 -418v-19h120v-105h-120v-121h-138v121h-120v105h120v19l-267 418h141q13 0 19 -11l87 -142q55 -90 91 -164q26 55 93 166l84 139q7 12 20 12h134z" />
    <glyph glyph-name="uni04B1" unicode="&#x4b1;" horiz-adv-x="552" 
d="M152 474l76 -186q31 -77 54 -160q25 91 50 156l72 190q6 14 20 14h118l-197 -474v-39h108v-91h-108v-113h-129v113h-108v91h108v39l-206 474h122q14 0 20 -14z" />
    <glyph glyph-name="uni04BA" unicode="&#x4ba;" horiz-adv-x="650" 
d="M310 317q-48 0 -87 -6q-17 -3 -17 -17v-294h-138v663h138v-245q72 14 142 14q254 0 254 -228v-204h-138v195q0 58 -30.5 90t-123.5 32z" />
    <glyph glyph-name="uni04BB" unicode="&#x4bb;" horiz-adv-x="562" 
d="M187 453l23 13q54 30 108 30q86 0 139 -50.5t53 -139.5v-306h-129v301q0 36 -16 52q-20 21 -75 21h-2q-56 0 -91 -14q-10 -4 -10 -19v-341h-129v709h129v-256z" />
    <glyph glyph-name="uni04D8" unicode="&#x4d8;" horiz-adv-x="721" 
d="M52 369q5 17 29 17h455q-25 152 -191 152q-85 0 -155 -28l-74 -29l-52 91q118 101 287 101q151 0 242.5 -91t91.5 -238q0 -159 -95.5 -256.5t-234.5 -97.5q-135 0 -222 91.5t-87 225.5q0 44 6 62zM357 124q151 0 178 147h-344q6 -65 48.5 -106t117.5 -41z" />
    <glyph glyph-name="afii10846" unicode="&#x4d9;" horiz-adv-x="541" 
d="M30 225q0 30 5 46q4 13 21 13h323q-5 46 -38 72t-91 26q-46 0 -113 -23l-55 -19l-41 72q45 38 103.5 61t117.5 23q107 0 178 -70.5t71 -180.5q0 -113 -70.5 -183t-173.5 -70t-170 67.5t-67 165.5zM379 193h-221q4 -40 33.5 -64t76.5 -24q48 0 77 24t34 64z" />
    <glyph glyph-name="uni04E8" unicode="&#x4e8;" horiz-adv-x="740" 
d="M369 -10q-136 0 -234.5 94.5t-98.5 246.5t98 247t235 95h2q137 0 235 -95t98 -247t-98.5 -246.5t-234.5 -94.5h-2zM371 116q80 0 130.5 42.5t62.5 122.5h-389q13 -79 63.5 -122t130.5 -43h2zM369 546q-76 0 -125.5 -39t-65.5 -111h383q-15 72 -64.5 111t-125.5 39h-2z
" />
    <glyph glyph-name="uni04E9" unicode="&#x4e9;" horiz-adv-x="571" 
d="M541 244q0 -116 -75 -184t-179 -68h-3q-104 0 -179 68t-75 184q0 115 75.5 183.5t178.5 68.5h3q103 0 178.5 -68.5t75.5 -183.5zM287 103q107 0 127 101h-257q20 -101 127 -101h3zM284 384q-100 0 -125 -89h253q-25 89 -125 89h-3z" />
    <glyph glyph-name="Wgrave" unicode="&#x1e80;" horiz-adv-x="1016" 
d="M797 0h-141q-18 0 -22 14l-51 168q-60 194 -78 288q-11 -66 -76 -292l-51 -178h-142q-18 0 -22 14l-206 649h129q13 0 17 -12l87 -284q30 -96 62 -224q23 120 73 288l69 232h112q13 0 17 -12l89 -293q36 -119 56 -215q35 143 69 251l81 257q3 12 16 12h123zM600 719
l-225 116l51 76q8 12 16 12q6 0 16 -7l183 -140z" />
    <glyph glyph-name="wgrave" unicode="&#x1e81;" horiz-adv-x="811" 
d="M813 488l-169 -488h-128q-16 0 -20 12l-50 161q-26 86 -42 149q-10 -45 -40 -149l-51 -173h-128q-15 0 -20 12l-166 476h120q14 0 19 -13l48 -149q31 -95 57 -193q17 71 53 195l47 160h108q10 0 14 -2.5t7 -11.5l47 -150q41 -134 55 -192q18 68 57 189l49 153q4 14 19 14
h114zM503 542l-225 116l51 76q7 12 16 12q6 0 16 -7l183 -140z" />
    <glyph glyph-name="Wacute" unicode="&#x1e82;" horiz-adv-x="1016" 
d="M797 0h-141q-18 0 -22 14l-51 168q-60 194 -78 288q-11 -66 -76 -292l-51 -178h-142q-18 0 -22 14l-206 649h129q13 0 17 -12l87 -284q30 -96 62 -224q23 120 73 288l69 232h112q13 0 17 -12l89 -293q36 -119 56 -215q35 143 69 251l81 257q3 12 16 12h123zM645 835
l-225 -116l-41 57l183 140q10 7 16 7q8 0 16 -12z" />
    <glyph glyph-name="wacute" unicode="&#x1e83;" horiz-adv-x="811" 
d="M813 488l-169 -488h-128q-16 0 -20 12l-50 161q-26 86 -42 149q-10 -45 -40 -149l-51 -173h-128q-15 0 -20 12l-166 476h120q14 0 19 -13l48 -149q31 -95 57 -193q17 71 53 195l47 160h108q10 0 14 -2.5t7 -11.5l47 -150q41 -134 55 -192q18 68 57 189l49 153q4 14 19 14
h114zM543 658l-225 -116l-41 57l183 140q10 7 16 7q8 0 16 -12z" />
    <glyph glyph-name="Wdieresis" unicode="&#x1e84;" horiz-adv-x="1016" 
d="M797 0h-141q-18 0 -22 14l-51 168q-60 194 -78 288q-11 -66 -76 -292l-51 -178h-142q-18 0 -22 14l-206 649h129q13 0 17 -12l87 -284q30 -96 62 -224q23 120 73 288l69 232h112q13 0 17 -12l89 -293q36 -119 56 -215q35 143 69 251l81 257q3 12 16 12h123zM466 847v-99
h-126v121h102q14 0 19 -5t5 -17zM671 847v-99h-126v121h102q14 0 19 -5t5 -17z" />
    <glyph glyph-name="wdieresis" unicode="&#x1e85;" horiz-adv-x="811" 
d="M813 488l-169 -488h-128q-16 0 -20 12l-50 161q-26 86 -42 149q-10 -45 -40 -149l-51 -173h-128q-15 0 -20 12l-166 476h120q14 0 19 -13l48 -149q31 -95 57 -193q17 71 53 195l47 160h108q10 0 14 -2.5t7 -11.5l47 -150q41 -134 55 -192q18 68 57 189l49 153q4 14 19 14
h114zM366 670v-99h-126v121h102q14 0 19 -5t5 -17zM571 670v-99h-126v121h102q14 0 19 -5t5 -17z" />
    <glyph glyph-name="Ygrave" unicode="&#x1ef2;" horiz-adv-x="669" 
d="M669 663l-264 -452v-211h-138v211l-267 452h141q13 0 19 -11l87 -153q31 -55 91 -173q23 48 93 175l84 150q7 12 20 12h134zM415 719l-225 116l51 76q7 12 16 12q6 0 16 -7l183 -140z" />
    <glyph glyph-name="ygrave" unicode="&#x1ef3;" horiz-adv-x="531" 
d="M142 474l77 -191q41 -103 53 -149q19 66 49 145l73 195q6 14 20 14h118l-291 -724l-124 29l90 202l-207 493h122q14 0 20 -14zM345 542l-225 116l51 76q7 12 16 12q6 0 16 -7l183 -140z" />
    <glyph glyph-name="endash" unicode="&#x2013;" horiz-adv-x="598" 
d="M549 189h-500v109h500v-109z" />
    <glyph glyph-name="emdash" unicode="&#x2014;" horiz-adv-x="1098" 
d="M1049 189h-1000v109h1000v-109z" />
    <glyph glyph-name="afii00208" unicode="&#x2015;" horiz-adv-x="1098" 
d="M1049 189h-1000v109h1000v-109z" />
    <glyph glyph-name="quoteleft" unicode="&#x2018;" horiz-adv-x="231" 
d="M207 642l-66 -111q-4 -8 -4 -10q0 -4 9 -10l15 -9q12 -8 15 -12.5t3 -18.5v-93h-111q-27 0 -27 25v67q0 57 21.5 96.5t99.5 110.5z" />
    <glyph glyph-name="quoteright" unicode="&#x2019;" horiz-adv-x="231" 
d="M24 399l66 111q4 8 4 10q0 4 -9 10l-15 9q-12 8 -15 12.5t-3 18.5v93h111q27 0 27 -25v-67q0 -57 -21.5 -96.5t-99.5 -110.5z" />
    <glyph glyph-name="quotesinglbase" unicode="&#x201a;" horiz-adv-x="238" 
d="M21 -202l66 111q4 8 4 10q0 4 -9 10l-15 9q-12 8 -15 12.5t-3 18.5v93h111q27 0 27 -25v-67q0 -57 -21.5 -96.5t-99.5 -110.5z" />
    <glyph glyph-name="quotedblleft" unicode="&#x201c;" horiz-adv-x="428" 
d="M404 642l-66 -111q-4 -8 -4 -10q0 -4 9 -10l15 -9q12 -8 15 -12.5t3 -18.5v-93h-111q-27 0 -27 25v67q0 57 21.5 96.5t99.5 110.5zM207 642l-66 -111q-4 -8 -4 -10q0 -4 9 -10l15 -9q12 -8 15 -12.5t3 -18.5v-93h-111q-27 0 -27 25v67q0 57 21.5 96.5t99.5 110.5z" />
    <glyph glyph-name="quotedblright" unicode="&#x201d;" horiz-adv-x="428" 
d="M24 399l66 111q4 8 4 10q0 4 -9 10l-15 9q-12 8 -15 12.5t-3 18.5v93h111q27 0 27 -25v-67q0 -57 -21.5 -96.5t-99.5 -110.5zM221 399l66 111q4 8 4 10q0 4 -9 10l-15 9q-12 8 -15 12.5t-3 18.5v93h111q27 0 27 -25v-67q0 -57 -21.5 -96.5t-99.5 -110.5z" />
    <glyph glyph-name="quotedblbase" unicode="&#x201e;" horiz-adv-x="435" 
d="M21 -202l66 111q4 8 4 10q0 4 -9 10l-15 9q-12 8 -15 12.5t-3 18.5v93h111q27 0 27 -25v-67q0 -57 -21.5 -96.5t-99.5 -110.5zM218 -202l66 111q4 8 4 10q0 4 -9 10l-15 9q-12 8 -15 12.5t-3 18.5v93h111q27 0 27 -25v-67q0 -57 -21.5 -96.5t-99.5 -110.5z" />
    <glyph glyph-name="dagger" unicode="&#x2020;" horiz-adv-x="583" 
d="M232 663h119v-118q0 -40 -5 -80l-5 -48l74 8q42 5 80 5h42v-112h-42q-37 0 -80 5l-74 9l5 -47q5 -52 5 -79v-184q0 -41 -22 -251h-75q-22 210 -22 251v184q0 27 5 79l5 47l-74 -9q-42 -5 -80 -5h-42v112h42q38 0 80 -5l74 -8l-5 48q-5 40 -5 80v118z" />
    <glyph glyph-name="daggerdbl" unicode="&#x2021;" horiz-adv-x="583" 
d="M232 -229v123q0 29 5 69l5 48l-74 -8q-40 -5 -76 -5h-46v112h55q22 0 67 -5l74 -9q-10 70 -10 118t10 118l-74 -9q-45 -5 -67 -5h-55v112h46q36 0 76 -5l74 -8l-5 48q-5 40 -5 66v132h119v-132q0 -26 -5 -66l-5 -48l74 8q40 5 76 5h46v-112h-55q-22 0 -67 5l-74 9
q10 -70 10 -118t-10 -118l74 9q45 5 67 5h55v-112h-46q-36 0 -76 5l-74 8l5 -48q5 -40 5 -69v-123h-119z" />
    <glyph glyph-name="bullet" unicode="&#x2022;" horiz-adv-x="363" 
d="M298 362v-190h-233v221h199q20 0 27 -6.5t7 -24.5z" />
    <glyph glyph-name="ellipsis" unicode="&#x2026;" horiz-adv-x="711" 
d="M188 112v-112h-138v137h111q27 0 27 -25zM424 112v-112h-138v137h111q27 0 27 -25zM660 112v-112h-138v137h111q27 0 27 -25z" />
    <glyph glyph-name="perthousand" unicode="&#x2030;" horiz-adv-x="1358" 
d="M149 499q0 -37 19.5 -56.5t55.5 -19.5t56 19.5t20 56.5t-19.5 57t-55.5 20t-56 -20t-20 -57zM403 499q0 -77 -53 -125t-125 -48q-73 0 -126 47.5t-53 125.5t53 126t125 48q73 0 126 -48t53 -126zM659 163q0 -37 19.5 -56.5t55.5 -19.5t56 19.5t20 56.5t-19.5 57t-55.5 20
t-56 -20t-20 -57zM913 163q0 -77 -53 -125t-125 -48q-73 0 -126 47.5t-53 125.5t53 126t125 48q73 0 126 -48t53 -126zM1058 163q0 -37 20 -56.5t55 -19.5q36 0 56 19.5t20 56.5t-19.5 57t-55.5 20t-56 -20t-20 -57zM1312 163q0 -77 -53 -125t-125 -48q-73 0 -126 47.5
t-53 125.5t53 126t125 48q73 0 126 -48t53 -126zM375 0h-119l327 663h120z" />
    <glyph glyph-name="guilsinglleft" unicode="&#x2039;" horiz-adv-x="369" 
d="M41 223v55l228 180l58 -58l-147 -155v-2l147 -154l-58 -59l-218 172q-10 8 -10 21z" />
    <glyph glyph-name="guilsinglright" unicode="&#x203a;" horiz-adv-x="369" 
d="M328 265v-55l-228 -180l-58 58l147 155v2l-147 154l58 59l218 -172q10 -8 10 -21z" />
    <glyph glyph-name="fraction" unicode="&#x2044;" horiz-adv-x="407" 
d="M99 0h-119l327 663h120z" />
    <glyph glyph-name="Euro" unicode="&#x20ac;" 
d="M31 411l71 13q21 116 96.5 182.5t176.5 66.5q81 0 143 -42.5t98 -119.5l-82 -54l-55 47q-30 25 -52.5 36t-51.5 11q-50 0 -86.5 -32.5t-48.5 -94.5h190v-72h-199v-23q0 -17 2 -27h197v-72h-185q12 -57 50.5 -86t93.5 -29q64 0 124 34l57 32l52 -66q-40 -56 -110 -90.5
t-137 -34.5q-106 0 -180 65t-92 175h-72v59l63 12q-1 10 -1 30v21h-62v59z" />
    <glyph glyph-name="litre" unicode="&#x2113;" horiz-adv-x="279" 
d="M271 88v-68q-46 -23 -99 -23q-51 0 -82 31q-30 31 -30 88v593h129v-604z" />
    <glyph glyph-name="numero" unicode="&#x2116;" horiz-adv-x="1127" 
d="M839 498q0 -37 19.5 -56.5t54.5 -19.5h2q35 0 54.5 19.5t19.5 56.5q0 36 -19.5 55.5t-54.5 19.5h-2q-35 0 -54.5 -19.5t-19.5 -55.5zM1093 498q0 -80 -53.5 -127.5t-124.5 -47.5h-2q-71 0 -124.5 47.5t-53.5 127.5t53.5 127.5t124.5 47.5h2q71 0 124.5 -47.5t53.5 -127.5
zM540 211v452h133v-663h-103q-16 0 -26 12l-257 323q-37 47 -89 118v-453h-133v663h104q15 0 25 -12l237 -297q82 -102 109 -143z" />
    <glyph glyph-name="trademark" unicode="&#x2122;" horiz-adv-x="730" 
d="M615 663h66v-311h-83v178l-67 -91h-45q-10 0 -15 6l-65 85v-178h-82v311h67q8 0 14 -7l99 -130h1l95 130q6 7 15 7zM200 585v-233h-89v233h-91v78h269v-78h-89z" />
    <glyph glyph-name="Ohm" unicode="&#x2126;" horiz-adv-x="748" 
d="M334 73v-73h-279v111h131q-142 115 -142 259q0 123 97.5 213t232.5 90t232 -90t97 -213q0 -70 -32 -130t-109 -129h130v-111h-279v73q0 17 1.5 21t10.5 14l57 65q78 89 78 187q0 86 -53 132t-133 46q-82 0 -134.5 -47t-52.5 -131q0 -48 22 -98.5t56 -88.5l57 -65
q9 -11 10.5 -15t1.5 -20z" />
    <glyph glyph-name="estimated" unicode="&#x212e;" horiz-adv-x="869" 
d="M816 323h-617q-8 0 -8 -6v-187q0 -9 12 -21q95 -98 234 -98q72 0 135 29.5t109 80.5h56q-55 -61 -133.5 -96t-167.5 -35q-159 0 -271 99.5t-112 241.5t112 242t271 100q156 0 268 -100t112 -242v-8zM677 347v190q0 9 -13 22q-42 44 -102 69t-125 25q-137 0 -234 -97
q-12 -12 -12 -24v-185q0 -5 8 -5h470q8 0 8 5z" />
    <glyph glyph-name="arrowleft" unicode="&#x2190;" horiz-adv-x="789" 
d="M66 283l200 200l54 -54l-115 -135h526v-100h-528l117 -139l-54 -54l-209 209v50q0 14 9 23z" />
    <glyph glyph-name="arrowup" unicode="&#x2191;" horiz-adv-x="789" 
d="M436 571l199 -200l-53 -53l-132 114v-525h-106v527l-136 -116l-54 53l209 210h50q13 0 23 -10z" />
    <glyph glyph-name="arrowright" unicode="&#x2192;" horiz-adv-x="789" 
d="M722 205l-200 -200l-54 54l115 135h-526v100h528l-117 139l54 54l209 -209v-50q0 -14 -9 -23z" />
    <glyph glyph-name="arrowdown" unicode="&#x2193;" horiz-adv-x="789" 
d="M353 -84l-199 200l54 54l132 -115v526h106v-528l136 117l53 -53l-208 -210h-51q-14 0 -23 9z" />
    <glyph glyph-name="uni2196" unicode="&#x2196;" horiz-adv-x="789" 
d="M184 504h282v-76l-173 -14l370 -370l-75 -75l-371 372l-15 -177h-76v295l36 37q8 8 22 8z" />
    <glyph glyph-name="uni2197" unicode="&#x2197;" horiz-adv-x="789" 
d="M663 449v-285h-76l-15 177l-371 -372l-75 75l370 369l-173 15v76h295l36 -36q9 -9 9 -19z" />
    <glyph glyph-name="uni2198" unicode="&#x2198;" horiz-adv-x="789" 
d="M607 -31h-285v76l176 15l-371 371l75 74l370 -370l14 174h76v-295l-36 -37q-8 -8 -19 -8z" />
    <glyph glyph-name="uni2199" unicode="&#x2199;" horiz-adv-x="789" 
d="M126 24v285h76l15 -176l371 372l75 -76l-370 -369l173 -15v-76h-295l-36 36q-9 9 -9 19z" />
    <glyph glyph-name="partialdiff" unicode="&#x2202;" horiz-adv-x="652" 
d="M136 530l-34 89q79 54 178 54q136 0 222.5 -101t86.5 -261v-5q0 -137 -74 -226.5t-206 -89.5q-108 0 -178.5 65.5t-70.5 162.5q0 95 62 150.5t156 55.5q62 0 148 -36l19 -8q-7 84 -53 127.5t-124 43.5q-46 0 -82 -9zM447 261q0 17 -17 26q-48 26 -121 26q-113 0 -113 -93
q0 -48 31.5 -78t83.5 -30q62 0 99 41.5t37 107.5z" />
    <glyph glyph-name="increment" unicode="&#x2206;" horiz-adv-x="684" 
d="M38 0v80v7t0.5 5.5t1 5t2.5 7t4 9.5t6 14.5t8 20.5l199 514h137q14 0 19 -13l204 -491q5 -11 10 -23.5l7 -17.5t4.5 -11.5t3.5 -8t1.5 -5.5t0.5 -6v-7v-80h-608zM254 116h170q42 0 74 -3q-20 39 -58 134l-57 142q-30 74 -49 140q-11 -40 -48 -141l-52 -141
q-45 -116 -54 -134q31 3 74 3z" />
    <glyph glyph-name="product" unicode="&#x220f;" horiz-adv-x="796" 
d="M504 -229v776h-212v-776h-136v776h-122v116h727v-116h-122v-776h-135z" />
    <glyph glyph-name="summation" unicode="&#x2211;" horiz-adv-x="648" 
d="M44 590v73h555v-116h-374l273 -306v-42l-273 -313h384v-115h-564v72q0 21 14 37l296 343l-296 330q-15 16 -15 37z" />
    <glyph glyph-name="minus" unicode="&#x2212;" horiz-adv-x="558" 
d="M484 191h-411v110h411v-110z" />
    <glyph glyph-name="radical" unicode="&#x221a;" horiz-adv-x="763" 
d="M456 314l184 465q4 10 6.5 12t12.5 2h120l-321 -793h-118q-14 0 -19 11l-159 374h-95v103h176q13 0 19 -14l91 -221q24 -57 41 -119q22 78 62 180z" />
    <glyph glyph-name="infinity" unicode="&#x221e;" horiz-adv-x="745" 
d="M232 240q23 0 40.5 17.5t27 38t21.5 58.5q3 9 3 15q0 7 -6 15q-31 43 -75 43q-33 0 -54.5 -25t-21.5 -72q0 -39 17 -64.5t48 -25.5zM364 457q54 77 145 77q80 0 132 -59t52 -146q0 -85 -50.5 -143.5t-128.5 -58.5q-76 0 -134 76q-55 -76 -145 -76q-80 0 -131.5 59
t-51.5 146q0 85 50.5 143.5t128.5 58.5q77 0 133 -77zM513 421q-23 0 -40.5 -17.5t-27 -38.5t-21.5 -59q-3 -9 -3 -14q0 -8 6 -16q32 -42 75 -42q33 0 54 24.5t21 71.5q0 39 -16.5 65t-47.5 26z" />
    <glyph glyph-name="integral" unicode="&#x222b;" horiz-adv-x="662" 
d="M351 -51q0 47 -27 119t-59.5 136t-59.5 140.5t-27 130.5q0 94 57 146t146 52q70 0 137 -36l-24 -78q-60 10 -94 10q-90 0 -90 -87q0 -47 27 -119t60 -136t60 -140.5t27 -130.5q0 -94 -55.5 -145.5t-147.5 -51.5q-72 0 -137 35l23 78q54 -9 94 -9q90 0 90 86z" />
    <glyph glyph-name="approxequal" unicode="&#x2248;" horiz-adv-x="558" 
d="M356 282q-33 0 -86 23.5t-73 23.5q-36 0 -63 -49l-75 26q9 56 49.5 94t93.5 38q35 0 88 -23t72 -23q37 0 63 48l74 -26q-9 -56 -49.5 -94t-93.5 -38zM356 58q-33 0 -86 23.5t-73 23.5q-37 0 -63 -48l-75 26q9 56 49.5 94t93.5 38q35 0 88 -23.5t72 -23.5q36 0 63 48
l74 -25q-9 -56 -49.5 -94.5t-93.5 -38.5z" />
    <glyph glyph-name="notequal" unicode="&#x2260;" horiz-adv-x="558" 
d="M254 90l-35 -84l-72 27l24 57h-98v110h144l39 91h-183v110h228l38 87l71 -27l-26 -60h100v-110h-146l-38 -91h184v-110h-230z" />
    <glyph glyph-name="lessequal" unicode="&#x2264;" horiz-adv-x="558" 
d="M484 0h-411v110h411v-110zM73 393l411 138v-117l-225 -65v-2l225 -65v-117l-411 138v90z" />
    <glyph glyph-name="greaterequal" unicode="&#x2265;" horiz-adv-x="558" 
d="M484 0h-411v110h411v-110zM73 531l411 -138v-90l-411 -138v117l225 65v2l-225 65v117z" />
    <glyph glyph-name="lozenge" unicode="&#x25ca;" horiz-adv-x="649" 
d="M324 114l140 217l-140 218l-140 -217zM393 0h-123q-14 0 -21 10l-184 284q-15 22 -15 38q0 14 15 37l190 294h125q14 0 21 -11l183 -283q12 -19 14 -38q0 -15 -14 -37z" />
    <glyph glyph-name="commaaccent" unicode="&#xf6c3;" horiz-adv-x="418" 
d="M201 -294l-60 13l20 223h81q17 0 25.5 -20t8.5 -38v-5q-1 -23 -32 -86z" />
    <glyph glyph-name="apple" unicode="&#xf8ff;" horiz-adv-x="536" 
d="M208 357q0 13 9.5 22t21.5 9q13 0 21.5 -9t8.5 -22t-8.5 -21.5t-21.5 -8.5q-12 0 -21.5 9t-9.5 21zM405 357q0 13 9.5 22t21.5 9q13 0 21.5 -9t8.5 -22t-8.5 -21.5t-21.5 -8.5q-12 0 -21.5 9t-9.5 21zM78 161q0 13 8.5 21.5t21.5 8.5q12 0 21.5 -9t9.5 -21
q0 -13 -9.5 -22t-21.5 -9q-13 0 -21.5 9t-8.5 22zM78 357q0 13 8.5 22t21.5 9q12 0 21.5 -9t9.5 -22q0 -12 -9.5 -21t-21.5 -9q-13 0 -21.5 8.5t-8.5 21.5zM275 357q0 13 8.5 22t21.5 9q12 0 21.5 -9t9.5 -22q0 -12 -9.5 -21t-21.5 -9q-13 0 -21.5 8.5t-8.5 21.5zM340 620
q0 12 9 21t22 9q11 0 20.5 -9t9.5 -21q0 -13 -9 -22t-21 -9q-13 0 -22 8.5t-9 22.5zM78 620q0 12 8.5 21t21.5 9q12 0 21.5 -9t9.5 -21q0 -13 -9.5 -22t-21.5 -9q-13 0 -21.5 9t-8.5 22zM275 620q0 12 8.5 21t21.5 9q12 0 21.5 -9t9.5 -21q0 -13 -9.5 -22t-21.5 -9
q-13 0 -21.5 9t-8.5 22zM405 620q0 12 9.5 21t21.5 9q13 0 21.5 -9t8.5 -21q0 -13 -8.5 -22t-21.5 -9q-12 0 -21.5 9t-9.5 22zM208 620q0 12 9.5 21t21.5 9q13 0 21.5 -9t8.5 -21q0 -13 -8.5 -22t-21.5 -9q-12 0 -21.5 9t-9.5 22zM340 357q0 13 9 22t22 9q11 0 20.5 -9
t9.5 -22q0 -12 -9 -21t-21 -9q-13 0 -22 8.5t-9 21.5zM208 30q0 12 9.5 21.5t21.5 9.5t21 -9.5t9 -21.5q0 -13 -8.5 -21.5t-21.5 -8.5q-12 0 -21.5 9t-9.5 21zM78 30q0 12 9 21.5t21 9.5t21.5 -9.5t9.5 -21.5t-9.5 -21t-21.5 -9q-13 0 -21.5 8.5t-8.5 21.5zM208 95
q0 13 9.5 21.5t21.5 8.5q13 0 21.5 -8.5t8.5 -21.5t-8.5 -21.5t-21.5 -8.5q-12 0 -21.5 9t-9.5 21zM78 95q0 13 8.5 21.5t21.5 8.5q12 0 21.5 -8.5t9.5 -21.5q0 -12 -9.5 -21t-21.5 -9q-13 0 -21.5 8.5t-8.5 21.5zM144 620q0 12 9 21t21 9q13 0 21.5 -9t8.5 -21
q0 -13 -8.5 -22t-21.5 -9q-12 0 -21 9t-9 22zM78 489q0 12 8.5 20.5t21.5 8.5q12 0 21.5 -8.5t9.5 -20.5q0 -13 -9.5 -22t-21.5 -9q-13 0 -21.5 9t-8.5 22zM275 489q0 12 8.5 20.5t21.5 8.5q12 0 21.5 -8.5t9.5 -20.5q0 -13 -9.5 -22t-21.5 -9q-13 0 -21.5 9t-8.5 22z
M208 489q0 12 9.5 20.5t21.5 8.5q13 0 21.5 -8.5t8.5 -20.5q0 -13 -8.5 -22t-21.5 -9q-12 0 -21.5 9t-9.5 22zM405 489q0 12 9.5 20.5t21.5 8.5q13 0 21.5 -8.5t8.5 -20.5q0 -13 -8.5 -22t-21.5 -9q-12 0 -21.5 9t-9.5 22zM340 489q0 12 9 20.5t22 8.5q12 0 21 -8.5t9 -20.5
q0 -13 -9.5 -22t-20.5 -9q-13 0 -22 9t-9 22zM144 30q0 12 9 21.5t21 9.5t21 -9.5t9 -21.5q0 -13 -8.5 -21.5t-21.5 -8.5q-12 0 -21 8.5t-9 21.5zM78 292q0 12 8.5 21t21.5 9q12 0 21.5 -9t9.5 -21t-9.5 -21t-21.5 -9q-13 0 -21.5 8.5t-8.5 21.5zM78 554q0 12 8.5 21t21.5 9
q12 0 21.5 -9t9.5 -21t-9.5 -21t-21.5 -9q-13 0 -21.5 8.5t-8.5 21.5zM405 292q0 12 9.5 21t21.5 9q13 0 21.5 -9t8.5 -21q0 -13 -8.5 -21.5t-21.5 -8.5q-12 0 -21.5 9t-9.5 21zM78 423q0 13 8.5 21.5t21.5 8.5q12 0 21.5 -9t9.5 -21t-9.5 -20.5t-21.5 -8.5q-13 0 -21.5 8
t-8.5 21zM208 423q0 12 9.5 21t21.5 9q13 0 21.5 -8.5t8.5 -21.5t-8.5 -21t-21.5 -8q-12 0 -21.5 8.5t-9.5 20.5zM208 227q0 12 9.5 20.5t21.5 8.5q13 0 21.5 -8.5t8.5 -20.5q0 -13 -8.5 -21.5t-21.5 -8.5q-12 0 -21.5 9t-9.5 21zM405 227q0 12 9.5 20.5t21.5 8.5
q13 0 21.5 -8.5t8.5 -20.5q0 -13 -8.5 -21.5t-21.5 -8.5q-12 0 -21.5 9t-9.5 21zM78 227q0 12 8.5 20.5t21.5 8.5q12 0 21.5 -8.5t9.5 -20.5t-9.5 -21t-21.5 -9q-13 0 -21.5 8.5t-8.5 21.5zM275 227q0 12 8.5 20.5t21.5 8.5q12 0 21.5 -8.5t9.5 -20.5t-9.5 -21t-21.5 -9
q-13 0 -21.5 8.5t-8.5 21.5zM340 227q0 12 9 20.5t22 8.5q12 0 21 -8.5t9 -20.5t-9 -21t-21 -9q-13 0 -22 8.5t-9 21.5z" />
    <glyph glyph-name="grave.cap" horiz-adv-x="416" 
d="M300 719l-225 116l51 76q7 12 16 12q6 0 16 -7l183 -140z" />
    <glyph glyph-name="acute.cap" horiz-adv-x="416" 
d="M341 835l-225 -116l-41 57l183 140q10 7 16 7q8 0 16 -12z" />
    <glyph glyph-name="dieresis.cap" horiz-adv-x="415" 
d="M168 847v-99h-126v121h102q14 0 19 -5t5 -17zM373 847v-99h-126v121h102q14 0 19 -5t5 -17z" />
    <glyph glyph-name="circumflex.cap" horiz-adv-x="414" 
d="M334 719l-127 94l-128 -94l-52 50l128 127q13 13 31 13h41q18 0 31 -13l128 -127z" />
    <glyph glyph-name="tilde.cap" horiz-adv-x="414" 
d="M321 880l69 -19q-8 -53 -38 -88t-78 -35q-31 0 -73 23t-56 23q-15 0 -26.5 -11.5t-25.5 -37.5l-69 19q7 53 37.5 88t77.5 35q31 0 73 -23t57 -23q24 0 52 49z" />
    <glyph glyph-name="macron.cap" horiz-adv-x="415" 
d="M366 762h-317v97h317v-97z" />
    <glyph glyph-name="breve.cap" horiz-adv-x="415" 
d="M208 732q-71 0 -115 41t-53 108l81 13q26 -69 87 -69t86 69l82 -13q-9 -67 -53 -108t-115 -41z" />
    <glyph glyph-name="dotaccent.cap" horiz-adv-x="418" 
d="M274 834v-102h-131v125h106q15 0 20 -5t5 -18z" />
    <glyph glyph-name="ring.cap" horiz-adv-x="416" 
d="M208 972q56 0 93 -34.5t37 -90.5t-37 -90.5t-93 -34.5t-93 34.5t-37 90.5t37 90.5t93 34.5zM208 796q53 0 53 51t-53 51q-54 0 -54 -51t54 -51z" />
    <glyph glyph-name="hungarumlaut.cap" horiz-adv-x="414" 
d="M225 895l-176 -161l-58 48l135 171q8 11 15 11q8 0 15 -7zM423 895l-176 -161l-58 48l135 171q8 11 15 11q8 0 15 -7z" />
    <glyph glyph-name="caron.cap" horiz-adv-x="414" 
d="M207 826l127 94l52 -50l-128 -127q-13 -13 -31 -13h-41q-18 0 -31 13l-128 127l52 50z" />
    <glyph glyph-name="afii10066.locl" horiz-adv-x="566" 
d="M155 400v4q-99 35 -99 136q0 82 62 130.5t162 48.5q118 0 205 -68l-27 -79l-65 16q-63 15 -106 15q-100 0 -100 -61q0 -25 20 -41t66 -29l90 -25q85 -24 124 -68q49 -56 49 -149q0 -110 -70.5 -174t-181.5 -64q-110 0 -180 62.5t-70 173.5q0 77 38 123q28 35 83 49z
M404 229q0 54 -31 84.5t-88 30.5t-88 -30.5t-31 -84.5q0 -55 31 -86t88 -31t88 31t31 86z" />
    <glyph glyph-name="afii10068.alt" horiz-adv-x="478" 
d="M124 382l-48 -5l-20 81q84 38 183 38q92 0 148.5 -38t56.5 -106q0 -61 -40 -93.5t-121 -52.5l-63 -15q-39 -9 -52 -18t-13 -28q0 -47 82 -47q48 0 132 16l54 10l27 -79q-42 -23 -100 -38t-112 -15q-97 0 -149 44t-52 117q0 64 37 95.5t126 53.5l65 16q23 6 34 10t19.5 11
t8.5 17q0 20 -21 27t-69 7q-39 0 -113 -8z" />
    <glyph glyph-name="afii10069.alt" horiz-adv-x="558" 
d="M399 456q53 50 95 50t66 -18v-73l-90 -15q-14 -2 -8 -14q20 -38 20 -84q0 -85 -62.5 -139.5t-155.5 -54.5q-21 0 -61 8q-11 2 -15 -8l-6 -14q-4 -9 -4 -14q0 -9 14 -9h143q182 0 182 -138q0 -82 -73 -133t-184 -51q-109 0 -179.5 46t-70.5 116q0 58 62 93q-20 23 -20 46
q0 29 34 68l32 37q-72 54 -72 147q0 85 62.5 139.5t155.5 54.5q78 0 135 -40zM361 302q0 43 -26.5 66t-70.5 23q-45 0 -71 -23t-26 -66t26 -66.5t71 -23.5t71 23.5t26 66.5zM335 -32h-171q-16 0 -23 -10q-9 -12 -9 -28q0 -33 33 -53t97 -20q61 0 97 19t36 54q0 21 -13 29.5
t-47 8.5z" />
    <glyph glyph-name="afii10081.alt" horiz-adv-x="562" 
d="M381 0v301q0 36 -16 52q-20 21 -75 21h-2q-56 0 -91 -14q-10 -4 -10 -19v-341h-129v488h98l16 -43l38 21q53 30 108 30q86 0 139 -50.5t53 -139.5v-306h-129z" />
    <glyph glyph-name="afii10084.alt" horiz-adv-x="866" 
d="M684 0v307q0 36 -18 51q-20 16 -69 16h-2q-49 0 -84 -14q-10 -4 -10 -19v-341h-130v307q0 36 -18 51q-20 16 -69 16h-2q-49 0 -84 -14q-10 -4 -10 -19v-341h-129v488h98l16 -43l22 13q65 38 124 38q85 0 142 -64l36 20q79 44 136 44q81 0 134 -55q47 -50 47 -134v-307
h-130z" />
    <glyph glyph-name="tonos.cap" horiz-adv-x="416" 
d="M302 661l-91 -237l-75 20l42 223q4 20 17 20q5 0 21 -4z" />
    <glyph glyph-name="xi.salt" horiz-adv-x="440" 
d="M211 411h151v-91h-133q-66 0 -66 -89q0 -50 29 -78t70.5 -36.5t83 -16t70.5 -28.5t29 -62q0 -53 -43 -144l-49 -102l-93 35l31 84q27 73 27 92q0 13 -21.5 20t-53.5 9t-69 12t-69 26.5t-53.5 55.5t-21.5 97q0 59 27.5 107.5t66.5 71.5l-19 24q-48 61 -48 138q0 81 65 132
t158 51q37 0 84.5 -15t83.5 -39l-30 -77l-47 10q-45 9 -75 9h-3q-103 0 -103 -110v-2q0 -43 9 -71q3 -9 5 -11t7 -2z" />
    <glyph glyph-name="zero.otab" 
d="M444 244q0 131 -117 131q-119 0 -119 -131q0 -132 117 -132q119 0 119 132zM578 244q0 -116 -73.5 -184t-177.5 -68q-106 0 -179.5 67.5t-73.5 184.5q0 116 73 184t178 68t179 -68t74 -184z" />
    <glyph glyph-name="one.otab" 
d="M130 0v102h162v255q-37 -19 -67 -27l-83 -24l-35 86l196 83q31 13 50 13h68v-386h128v-102h-419z" />
    <glyph glyph-name="two.otab" 
d="M139 331l-43 77q115 88 235 88q90 0 145 -44.5t55 -112.5q0 -57 -37 -97.5t-131 -92.5l-86 -47h270v-102h-437v83q0 15 12 24l192 130q47 31 64 50.5t17 42.5q0 24 -20.5 37.5t-53.5 13.5q-46 0 -133 -32z" />
    <glyph glyph-name="three.otab" 
d="M233 210h128q16 0 26 11q25 29 25 69q0 89 -97 89q-64 0 -181 -45l-41 80q120 82 234 82q94 0 153 -50t59 -130q0 -81 -72 -141q94 -45 94 -148q0 -97 -69 -154t-172 -57q-66 0 -132.5 26t-117.5 68l40 74l56 -20q92 -33 147 -33t85 28t30 72q0 47 -25.5 62.5t-88.5 15.5
h-65q-16 0 -16 12v89z" />
    <glyph glyph-name="four.otab" 
d="M65 114l288 360q11 14 30 14h122v-382h90v-102h-90v-159h-129v159h-321v81q0 17 10 29zM184 106h192v239q-31 -46 -50 -68l-89 -111q-39 -47 -53 -60z" />
    <glyph glyph-name="five.otab" 
d="M110 -16l56 -20q92 -33 146 -33q116 0 116 112q0 45 -32 71t-87 26q-49 0 -107 -21q-11 -4 -17 -4q-8 0 -20 6l-31 15q-17 9 -22 17t-5 25v310h414v-103h-300v-86q0 -49 -6 -82q60 26 131 26q93 0 154 -55t61 -146q0 -97 -65.5 -161.5t-175.5 -64.5q-65 0 -133 26.5
t-119 68.5z" />
    <glyph glyph-name="six.otab" 
d="M543 619l-34 -77q-59 18 -113 18q-86 0 -137.5 -46.5t-56.5 -138.5l19 8q95 39 151 39q94 0 152 -55.5t58 -148.5q0 -95 -68 -160.5t-172 -65.5q-129 0 -201.5 89.5t-72.5 223.5v4q0 160 87 261t221 101q89 0 167 -52zM200 266q0 -68 38.5 -115t103.5 -47q54 0 84 32
t30 83q0 100 -115 100q-59 0 -118 -24q-14 -6 -18.5 -11.5t-4.5 -17.5z" />
    <glyph glyph-name="seven.otab" 
d="M320 -177h-136q3 96 22 162t70 150q112 184 160 245h-359v108h502v-62q0 -35 -14 -57l-136 -218q-43 -69 -67 -131t-30.5 -99t-11.5 -98z" />
    <glyph glyph-name="eight.otab" 
d="M66 199q0 98 101 154q-75 52 -75 133t67.5 133t166.5 52q97 0 165 -50t68 -133q0 -79 -82 -141q108 -49 108 -144q0 -90 -72.5 -150.5t-185.5 -60.5q-115 0 -188 58.5t-73 148.5zM397 392q44 48 44 86q0 40 -33.5 63t-85.5 23q-46 0 -76 -20.5t-30 -52.5t28.5 -51.5
t88.5 -38.5l38 -13q17 -6 26 4zM236 301q-45 -41 -45 -89q0 -47 37.5 -78t99.5 -31q56 0 91.5 26.5t35.5 63.5q0 17 -8.5 29.5t-30.5 24.5t-41.5 19.5t-59.5 20.5l-53 19q-14 5 -26 -5z" />
    <glyph glyph-name="nine.otab" 
d="M116 -129l34 76q60 -21 120 -21q83 0 128 49t50 137l-24 -10q-89 -37 -147 -37q-92 0 -151 56.5t-59 148.5q0 95 69.5 160.5t171.5 65.5q129 0 201.5 -89.5t72.5 -223.5v-5q0 -162 -81 -262t-213 -100q-98 0 -172 55zM450 221q0 68 -37.5 115t-102.5 47q-55 0 -86 -30.5
t-31 -79.5q0 -105 116 -105q51 0 108 19q21 7 27 14t6 20z" />
    <glyph glyph-name="dollar.otab" 
d="M498 377l-48 5q-40 4 -72 6v-86q86 -22 122.5 -54t36.5 -95q0 -65 -41 -107t-118 -51l-15 -111h-62v110q-104 10 -177 52l27 77l54 -10q57 -11 96 -14v104l-10 3q-81 20 -121 52.5t-40 93.5q0 62 46 98.5t125 43.5l15 110h62v-110q76 -8 140 -36zM247 356q0 -13 12.5 -20
t41.5 -15v68q-54 -4 -54 -33zM419 145q0 15 -9 24t-32 16v-83q41 11 41 43z" />
    <glyph glyph-name="cent.otab" 
d="M505 139l36 -67q-61 -56 -157 -77l-15 -111h-62v110q-84 11 -135.5 69t-51.5 154q0 87 53 148t134 72l15 113h62v-116q57 -14 95.5 -50.5t54.5 -86.5l-70 -44l-48 48q-20 20 -32 28v-230q31 2 69 18zM238 219q0 -99 69 -120v238q-69 -23 -69 -118z" />
    <glyph glyph-name="Euro.otab" 
d="M41 174v43l67 10v29h-67v43l74 10q20 87 85 137t147 50q77 0 137 -45t84 -121q-54 -24 -81 -37l-39 40q-52 52 -103 52q-34 0 -61 -20t-38 -55h138v-54h-146v-11q0 -12 1 -17h145v-54h-136q26 -70 116 -70q40 0 108 25l63 23q28 -44 41 -66q-43 -40 -104 -67t-118 -27
q-93 0 -155.5 48t-82.5 134h-75z" />
    <glyph glyph-name="florin.otab" 
d="M548 465l-20 -73q-51 7 -78 7q-76 0 -76 -73v-134h126v-74h-126v-180q0 -88 -47 -131.5t-127 -43.5q-62 0 -120 30l19 73q51 -7 78 -7q36 0 56 19t20 54v186h-92v56l92 16v130q0 89 46.5 132t127.5 43q66 0 121 -30z" />
    <glyph glyph-name="sterling.otab" 
d="M497 317l-48 30q-66 40 -114 40q-38 0 -58.5 -17t-20.5 -45q0 -21 10 -48h154v-71h-131q6 -22 6 -37q0 -35 -34 -68h291v-101h-437v62q0 12 9 21l24 22q28 25 28 50q0 11 -11 51h-80v54l60 12q-10 30 -10 62q0 75 55.5 118.5t145.5 43.5q70 0 128.5 -32.5t91.5 -86.5z
" />
    <glyph glyph-name="yen.otab" 
d="M131 168v58h107l-170 262h130q10 0 15 -9l118 -197l111 197q4 9 16 9h125l-164 -262h110v-58h-134v-24h134v-57h-134v-87h-129v87h-135v57h135v24h-135z" />
    <glyph glyph-name="numbersign.otab" 
d="M94 289v79h110l22 120h97l-22 -120h91l22 120h97l-22 -120h67v-79h-80l-16 -91h96v-79h-110l-20 -119h-97l20 119h-91l-20 -119h-97l20 119h-67v79h81l16 91h-97zM288 289l-16 -91h91l16 91h-91z" />
    <glyph glyph-name="percent.otab" horiz-adv-x="832" 
d="M134 352q0 -28 15.5 -42t41.5 -14t41.5 14t15.5 42q0 27 -16 42t-41 15t-41 -15t-16 -42zM340 352q0 -64 -45 -104t-104 -40t-104 40t-45 104q0 63 45 103.5t104 40.5t104 -40.5t45 -103.5zM351 0h-112l242 488h112zM584 136q0 -28 15.5 -42t41.5 -14t41.5 14t15.5 42
q0 27 -16 42t-41 15t-41 -15t-16 -42zM790 136q0 -64 -45 -104t-104 -40t-104 40t-45 104q0 63 45 103.5t104 40.5t104 -40.5t45 -103.5z" />
    <glyph glyph-name="perthousand.otab" horiz-adv-x="1163" 
d="M134 352q0 -28 15.5 -42t41.5 -14t41.5 14t15.5 42q0 27 -16 42t-41 15t-41 -15t-16 -42zM340 352q0 -64 -45 -104t-104 -40t-104 40t-45 104q0 63 45 103.5t104 40.5t104 -40.5t45 -103.5zM351 0h-112l242 488h112zM584 136q0 -28 15.5 -42t41.5 -14t41.5 14t15.5 42
q0 27 -16 42t-41 15t-41 -15t-16 -42zM790 136q0 -64 -45 -104t-104 -40t-104 40t-45 104q0 63 45 103.5t104 40.5t104 -40.5t45 -103.5zM915 136q0 -28 15.5 -42t41.5 -14t41.5 14t15.5 42q0 27 -16 42t-41 15t-41 -15t-16 -42zM1121 136q0 -64 -45 -104t-104 -40t-104 40
t-45 104q0 63 45 103.5t104 40.5t104 -40.5t45 -103.5z" />
    <glyph glyph-name="zero.lprop" horiz-adv-x="661" 
d="M611 337v-11q0 -156 -76 -246t-204 -90q-129 0 -205 89.5t-76 246.5v11q0 156 75.5 246t203.5 90q129 0 205.5 -89.5t76.5 -246.5zM470 326v11q0 108 -34 158t-105 50t-105.5 -50t-34.5 -158v-11q0 -108 34 -158t105 -50q72 0 106 49.5t34 158.5z" />
    <glyph glyph-name="one.lprop" horiz-adv-x="546" 
d="M68 0v112h169v406h-1q-35 -15 -75 -28l-83 -26l-39 95l214 94q23 10 46 10h73v-551h139v-112h-443z" />
    <glyph glyph-name="two.lprop" horiz-adv-x="573" 
d="M341 216l-118 -104h304v-112h-475v69q0 22 17 40l200 200q62 63 83 92.5t21 65.5q0 83 -99 83q-51 0 -131 -29l-62 -23l-42 82q130 93 249 93q97 0 161 -53t64 -146q0 -65 -36 -118t-136 -140z" />
    <glyph glyph-name="three.lprop" horiz-adv-x="599" 
d="M225 388h125q22 0 29 11q17 26 17 66q0 85 -99 85q-57 0 -142 -30l-59 -21l-42 83q126 91 250 91q98 0 161.5 -49t63.5 -133q0 -74 -70 -141q92 -44 92 -147q0 -98 -68.5 -155.5t-180.5 -57.5q-161 0 -273 106l44 77l58 -22q106 -40 164 -40q53 0 84.5 25t31.5 71
q0 41 -19 57t-66 16h-83q-18 0 -18 15v93z" />
    <glyph glyph-name="four.lprop" horiz-adv-x="636" 
d="M173 260h204v260q-17 -26 -50 -68l-98 -126q-42 -52 -56 -66zM54 281l287 362q16 20 38 20h132v-403h87v-111h-87v-149h-134v149h-339v91q0 21 16 41z" />
    <glyph glyph-name="five.lprop" horiz-adv-x="587" 
d="M135 293l-37 21q-16 9 -20 16t-4 20v313h423v-116h-303v-73q0 -53 -4 -81q59 27 132 27q98 0 159.5 -55.5t61.5 -147.5q0 -98 -65.5 -162.5t-183.5 -64.5q-68 0 -138 27.5t-121 72.5l43 78l74 -27q83 -30 135 -30q55 0 86.5 28.5t31.5 79.5q0 48 -33.5 70.5t-86.5 22.5
t-114 -22q-19 -6 -36 3z" />
    <glyph glyph-name="six.lprop" horiz-adv-x="627" 
d="M540 619l-34 -86q-92 22 -132 22q-79 0 -126.5 -44.5t-54.5 -132.5l22 10q79 36 148 36q93 0 154 -55.5t61 -150.5q0 -97 -69.5 -162.5t-176.5 -65.5q-133 0 -206.5 89.5t-73.5 226.5v5q0 164 88 263t220 99q97 0 180 -54zM191 263q0 -68 38.5 -111t99.5 -43
q53 0 85.5 30t32.5 81q0 96 -115 96q-59 0 -117 -24q-17 -7 -20.5 -12t-3.5 -17z" />
    <glyph glyph-name="seven.lprop" horiz-adv-x="552" 
d="M281 0h-139q3 95 24 166.5t68 145.5q93 146 158 234h-363v117h513v-61q0 -30 -16 -58l-136 -218q-100 -160 -109 -326z" />
    <glyph glyph-name="eight.lprop" horiz-adv-x="633" 
d="M45 199q0 91 99 154q-73 50 -73 133q0 81 68 134t175 53q110 0 178.5 -52t68.5 -130q0 -79 -81 -143q107 -51 107 -150q0 -87 -76 -147.5t-193 -60.5q-119 0 -196 57t-77 152zM201 488q0 -14 6.5 -24.5t14 -17.5t27.5 -15.5t33.5 -13t44.5 -14.5l41 -14q11 -4 15 -3
t14 10q40 38 40 78q0 39 -34.5 61.5t-90.5 22.5q-48 0 -79.5 -18t-31.5 -52zM176 212q0 -46 39.5 -75t102.5 -29q56 0 94.5 25t38.5 63q0 28 -25 42t-116 44l-63 21q-14 4 -18.5 2.5t-12.5 -8.5q-40 -37 -40 -85z" />
    <glyph glyph-name="nine.lprop" horiz-adv-x="629" 
d="M297 345q53 0 110 20q23 8 27.5 13.5t4.5 20.5q0 70 -39 113t-101 43q-53 0 -85.5 -30t-32.5 -77q0 -51 31 -77t85 -26zM267 238q-95 0 -156.5 56.5t-61.5 152.5t70.5 161t177.5 65q133 0 206.5 -89.5t73.5 -227.5v-5q0 -163 -70.5 -262t-212.5 -99q-118 0 -205 65l35 80
l40 -10q76 -18 109 -18q83 0 122 43t42 135l-22 -11q-69 -34 -148 -36z" />
    <glyph glyph-name="dollar.lprop" horiz-adv-x="607" 
d="M77 151l69 -16q56 -13 115 -21v181l-6 2q-106 31 -156 76t-50 119q0 79 58 125.5t154 53.5l15 120h72v-121q93 -8 177 -42l-21 -94l-53 6q-67 8 -103 10v-148q116 -34 162.5 -79.5t46.5 -121.5q0 -87 -55.5 -142.5t-153.5 -65.5l-15 -122h-72v121q-127 13 -219 70z
M426 194q0 27 -17.5 43.5t-60.5 31.5v-153q78 14 78 78zM179 493q0 -24 19.5 -38t62.5 -28v122q-82 -9 -82 -56z" />
    <glyph glyph-name="cent.lprop" horiz-adv-x="533" 
d="M460 158l42 -70q-78 -75 -177 -91l-15 -126h-72v124q-94 12 -148 79.5t-54 171.5q0 100 57.5 167.5t144.5 79.5l15 130h72v-132q62 -13 106 -55t60 -101l-82 -41l-45 43q-21 21 -39 32v-259q33 6 77 24zM166 248q0 -110 72 -135v266q-72 -24 -72 -131z" />
    <glyph glyph-name="Euro.lprop" horiz-adv-x="661" 
d="M40 411l71 13q21 116 96.5 182.5t176.5 66.5q81 0 143 -42.5t98 -119.5l-82 -54l-55 47q-30 25 -52.5 36t-51.5 11q-50 0 -86.5 -32.5t-48.5 -94.5h190v-72h-199v-23q0 -17 2 -27h197v-72h-185q12 -57 50.5 -86t93.5 -29q64 0 124 34l57 32l52 -66q-40 -56 -110 -90.5
t-137 -34.5q-106 0 -180 65t-92 175h-72v59l63 12q-1 10 -1 30v21h-62v59z" />
    <glyph glyph-name="florin.lprop" 
d="M136 314l119 20v143q0 95 51.5 145.5t142.5 50.5q68 0 135 -35l-23 -76l-36 4q-44 4 -60 4q-41 0 -62.5 -19t-21.5 -65v-150h151v-97h-151v-283q0 -94 -52 -144.5t-143 -50.5q-70 0 -134 35l22 76q52 -9 97 -9q41 0 62.5 19.5t21.5 65.5v291h-119v75z" />
    <glyph glyph-name="sterling.lprop" horiz-adv-x="650" 
d="M589 112v-112h-497v68q0 21 15 38l29 35q27 33 29 64q0 17 -16 74h-92v67l69 17q-18 57 -18 101q0 92 65 150.5t169 58.5q85 0 150 -45.5t98 -113.5l-80 -55l-60 47q-57 44 -111 44q-46 0 -73 -24.5t-27 -63.5q0 -35 15 -88h193v-95h-165q13 -42 13 -66q0 -40 -36 -78
l-22 -23h352z" />
    <glyph glyph-name="yen.lprop" horiz-adv-x="648" 
d="M505 663h132l-204 -376h102v-82h-140v-32h140v-82h-140v-91h-138v91h-138v82h138v32h-138v82h98l-206 376h139q14 0 19 -11l88 -167q38 -74 70 -151q28 68 71 151l88 167q6 11 19 11z" />
    <glyph glyph-name="numbersign.lprop" horiz-adv-x="644" 
d="M397 477l33 186h105l-33 -186h80v-98h-98l-17 -97h115v-97h-132l-32 -185h-105l32 185h-100l-32 -185h-105l32 185h-79v97h96l17 97h-113v98h131l33 186h105l-33 -186h100zM279 379l-17 -97h100l17 97h-100z" />
    <glyph glyph-name="percent.lprop" horiz-adv-x="959" 
d="M149 499q0 -37 19.5 -56.5t55.5 -19.5t56 19.5t20 56.5t-19.5 57t-55.5 20t-56 -20t-20 -57zM403 499q0 -77 -53 -125t-125 -48q-73 0 -126 47.5t-53 125.5t53 126t125 48q73 0 126 -48t53 -126zM659 163q0 -37 19.5 -56.5t55.5 -19.5t56 19.5t20 56.5t-19.5 57t-55.5 20
t-56 -20t-20 -57zM913 163q0 -77 -53 -125t-125 -48q-73 0 -126 47.5t-53 125.5t53 126t125 48q73 0 126 -48t53 -126zM375 0h-119l327 663h120z" />
    <glyph glyph-name="perthousand.lprop" horiz-adv-x="1358" 
d="M149 499q0 -37 19.5 -56.5t55.5 -19.5t56 19.5t20 56.5t-19.5 57t-55.5 20t-56 -20t-20 -57zM403 499q0 -77 -53 -125t-125 -48q-73 0 -126 47.5t-53 125.5t53 126t125 48q73 0 126 -48t53 -126zM659 163q0 -37 19.5 -56.5t55.5 -19.5t56 19.5t20 56.5t-19.5 57t-55.5 20
t-56 -20t-20 -57zM913 163q0 -77 -53 -125t-125 -48q-73 0 -126 47.5t-53 125.5t53 126t125 48q73 0 126 -48t53 -126zM1058 163q0 -37 20 -56.5t55 -19.5q36 0 56 19.5t20 56.5t-19.5 57t-55.5 20t-56 -20t-20 -57zM1312 163q0 -77 -53 -125t-125 -48q-73 0 -126 47.5
t-53 125.5t53 126t125 48q73 0 126 -48t53 -126zM375 0h-119l327 663h120z" />
    <glyph glyph-name="zero.oprop" horiz-adv-x="572" 
d="M404 244q0 131 -117 131q-119 0 -119 -131q0 -132 117 -132q119 0 119 132zM538 244q0 -116 -73.5 -184t-177.5 -68q-106 0 -179.5 67.5t-73.5 184.5q0 116 73 184t178 68t179 -68t74 -184z" />
    <glyph glyph-name="one.oprop" horiz-adv-x="510" 
d="M68 0v102h162v255q-37 -19 -67 -27l-83 -24l-35 86l196 83q31 13 50 13h68v-386h128v-102h-419z" />
    <glyph glyph-name="two.oprop" horiz-adv-x="551" 
d="M89 331l-43 77q115 88 235 88q90 0 145 -44.5t55 -112.5q0 -57 -37 -97.5t-131 -92.5l-86 -47h270v-102h-437v83q0 15 12 24l192 130q47 31 64 50.5t17 42.5q0 24 -20.5 37.5t-53.5 13.5q-46 0 -133 -32z" />
    <glyph glyph-name="three.oprop" horiz-adv-x="551" 
d="M177 210h128q16 0 26 11q25 29 25 69q0 89 -97 89q-64 0 -181 -45l-41 80q120 82 234 82q94 0 153 -50t59 -130q0 -81 -72 -141q94 -45 94 -148q0 -97 -69 -154t-172 -57q-66 0 -132.5 26t-117.5 68l40 74l56 -20q92 -33 147 -33t85 28t30 72q0 47 -25.5 62.5t-88.5 15.5
h-65q-16 0 -16 12v89z" />
    <glyph glyph-name="four.oprop" horiz-adv-x="602" 
d="M46 114l288 360q10 14 30 14h122v-382h90v-102h-90v-159h-129v159h-321v81q0 17 10 29zM165 106h192v239q-31 -46 -50 -68l-89 -111q-39 -47 -53 -60z" />
    <glyph glyph-name="five.oprop" horiz-adv-x="558" 
d="M67 -16l56 -20q92 -33 146 -33q116 0 116 112q0 45 -32 71t-87 26q-49 0 -107 -21q-11 -4 -17 -4q-8 0 -20 6l-31 15q-17 9 -22 17t-5 25v310h414v-103h-300v-86q0 -49 -6 -82q60 26 131 26q93 0 154 -55t61 -146q0 -97 -65.5 -161.5t-175.5 -64.5q-65 0 -133 26.5
t-119 68.5z" />
    <glyph glyph-name="six.oprop" horiz-adv-x="612" 
d="M527 619l-34 -77q-59 18 -113 18q-86 0 -137.5 -46.5t-56.5 -138.5l19 8q95 39 151 39q94 0 152 -55.5t58 -148.5q0 -95 -68 -160.5t-172 -65.5q-129 0 -201.5 89.5t-72.5 223.5v4q0 160 87 261t221 101q89 0 167 -52zM184 266q0 -68 38.5 -115t103.5 -47q54 0 84 32
t30 83q0 100 -115 100q-59 0 -118 -24q-14 -6 -18.5 -11.5t-4.5 -17.5z" />
    <glyph glyph-name="seven.oprop" horiz-adv-x="543" 
d="M268 -177h-136q3 96 22 162t70 150q112 184 160 245h-359v108h502v-62q0 -35 -14 -57l-136 -218q-43 -69 -67 -131t-30.5 -99t-11.5 -98z" />
    <glyph glyph-name="eight.oprop" horiz-adv-x="615" 
d="M48 199q0 98 101 154q-75 52 -75 133t67.5 133t166.5 52q97 0 165 -50t68 -133q0 -79 -82 -141q108 -49 108 -144q0 -90 -72.5 -150.5t-185.5 -60.5q-115 0 -188 58.5t-73 148.5zM379 392q44 48 44 86q0 40 -33.5 63t-85.5 23q-46 0 -76 -20.5t-30 -52.5t28.5 -51.5
t88.5 -38.5l38 -13q17 -6 26 4zM218 301q-45 -41 -45 -89q0 -47 37.5 -78t99.5 -31q56 0 91.5 26.5t35.5 63.5q0 17 -8.5 29.5t-30.5 24.5t-41.5 19.5t-59.5 20.5l-53 19q-14 5 -26 -5z" />
    <glyph glyph-name="nine.oprop" horiz-adv-x="613" 
d="M97 -129l34 76q60 -21 120 -21q83 0 128 49t50 137l-24 -10q-89 -37 -147 -37q-92 0 -151 56.5t-59 148.5q0 95 69.5 160.5t171.5 65.5q129 0 201.5 -89.5t72.5 -223.5v-5q0 -162 -81 -262t-213 -100q-98 0 -172 55zM431 221q0 68 -37.5 115t-102.5 47q-55 0 -86 -30.5
t-31 -79.5q0 -105 116 -105q51 0 108 19q21 7 27 14t6 20z" />
    <glyph glyph-name="dollar.oprop" horiz-adv-x="563" 
d="M449 377l-48 5q-41 4 -72 6v-86q86 -22 122.5 -54t36.5 -95q0 -65 -41 -107t-118 -51l-15 -111h-62v110q-104 10 -177 52l27 77l54 -10q57 -11 96 -14v104l-10 3q-81 20 -121 52.5t-40 93.5q0 62 46 98.5t125 43.5l15 110h62v-110q76 -8 140 -36zM198 356q0 -13 12.5 -20
t41.5 -15v68q-54 -4 -54 -33zM370 145q0 15 -9 24t-32 16v-83q41 11 41 43z" />
    <glyph glyph-name="cent.oprop" horiz-adv-x="511" 
d="M435 139l36 -67q-61 -56 -157 -77l-15 -111h-62v110q-84 11 -135.5 69t-51.5 154q0 87 53 148t134 72l15 113h62v-116q57 -14 95.5 -50.5t54.5 -86.5l-70 -44l-48 48q-20 20 -32 28v-230q31 2 69 18zM168 219q0 -99 69 -120v238q-69 -23 -69 -118z" />
    <glyph glyph-name="Euro.oprop" horiz-adv-x="639" 
d="M50 174v43l67 10v29h-67v43l74 10q20 87 85 137t147 50q77 0 137 -45t84 -121q-54 -24 -81 -37l-39 40q-52 52 -103 52q-34 0 -61 -20t-38 -55h138v-54h-146v-11q0 -12 1 -17h145v-54h-136q26 -70 116 -70q40 0 108 25l63 23q28 -44 41 -66q-43 -40 -104 -67t-118 -27
q-93 0 -155.5 48t-82.5 134h-75z" />
    <glyph glyph-name="florin.oprop" horiz-adv-x="495" 
d="M461 465l-20 -73q-51 7 -78 7q-76 0 -76 -73v-134h126v-74h-126v-180q0 -88 -47 -131.5t-127 -43.5q-62 0 -120 30l19 73q51 -7 78 -7q36 0 56 19t20 54v186h-92v56l92 16v130q0 89 46.5 132t127.5 43q66 0 121 -30z" />
    <glyph glyph-name="sterling.oprop" horiz-adv-x="575" 
d="M463 317l-48 30q-66 40 -114 40q-38 0 -58.5 -17t-20.5 -45q0 -21 10 -48h154v-71h-131q6 -22 6 -37q0 -35 -34 -68h291v-101h-437v62q0 12 9 21l24 22q28 25 28 50q0 11 -11 51h-80v54l60 12q-10 30 -10 62q0 75 55.5 118.5t145.5 43.5q70 0 128.5 -32.5t91.5 -86.5z
" />
    <glyph glyph-name="yen.oprop" horiz-adv-x="590" 
d="M100 168v58h107l-170 262h130q10 0 15 -9l118 -197l111 197q5 9 16 9h125l-164 -262h110v-58h-134v-24h134v-57h-134v-87h-129v87h-135v57h135v24h-135z" />
    <glyph glyph-name="numbersign.oprop" horiz-adv-x="652" 
d="M94 289v79h110l22 120h97l-22 -120h91l22 120h97l-22 -120h67v-79h-80l-16 -91h96v-79h-110l-20 -119h-97l20 119h-91l-20 -119h-97l20 119h-67v79h81l16 91h-97zM288 289l-16 -91h91l16 91h-91z" />
    <glyph glyph-name="percent.oprop" horiz-adv-x="832" 
d="M134 352q0 -28 15.5 -42t41.5 -14t41.5 14t15.5 42q0 27 -16 42t-41 15t-41 -15t-16 -42zM340 352q0 -64 -45 -104t-104 -40t-104 40t-45 104q0 63 45 103.5t104 40.5t104 -40.5t45 -103.5zM351 0h-112l242 488h112zM584 136q0 -28 15.5 -42t41.5 -14t41.5 14t15.5 42
q0 27 -16 42t-41 15t-41 -15t-16 -42zM790 136q0 -64 -45 -104t-104 -40t-104 40t-45 104q0 63 45 103.5t104 40.5t104 -40.5t45 -103.5z" />
    <glyph glyph-name="perthousand.oprop" horiz-adv-x="1163" 
d="M134 352q0 -28 15.5 -42t41.5 -14t41.5 14t15.5 42q0 27 -16 42t-41 15t-41 -15t-16 -42zM340 352q0 -64 -45 -104t-104 -40t-104 40t-45 104q0 63 45 103.5t104 40.5t104 -40.5t45 -103.5zM351 0h-112l242 488h112zM584 136q0 -28 15.5 -42t41.5 -14t41.5 14t15.5 42
q0 27 -16 42t-41 15t-41 -15t-16 -42zM790 136q0 -64 -45 -104t-104 -40t-104 40t-45 104q0 63 45 103.5t104 40.5t104 -40.5t45 -103.5zM915 136q0 -28 15.5 -42t41.5 -14t41.5 14t15.5 42q0 27 -16 42t-41 15t-41 -15t-16 -42zM1121 136q0 -64 -45 -104t-104 -40t-104 40
t-45 104q0 63 45 103.5t104 40.5t104 -40.5t45 -103.5z" />
    <glyph glyph-name="arrowleft.cap" horiz-adv-x="789" 
d="M66 369l200 200l54 -54l-115 -135h526v-100h-528l117 -139l-54 -54l-209 209v50q0 14 9 23z" />
    <glyph glyph-name="arrowup.cap" horiz-adv-x="789" 
d="M436 657l199 -200l-53 -53l-132 114v-525h-106v527l-136 -116l-54 53l209 210h50q13 0 23 -10z" />
    <glyph glyph-name="arrowright.cap" horiz-adv-x="789" 
d="M722 291l-200 -200l-54 54l115 135h-526v100h528l-117 139l54 54l209 -209v-50q0 -14 -9 -23z" />
    <glyph glyph-name="arrowdown.cap" horiz-adv-x="789" 
d="M353 2l-199 200l54 54l132 -115v526h106v-528l136 117l53 -53l-208 -210h-51q-14 0 -23 9z" />
    <glyph glyph-name="uni2196.cap" horiz-adv-x="789" 
d="M184 590h282v-76l-173 -14l370 -370l-75 -75l-371 372l-15 -177h-76v295l36 37q8 8 22 8z" />
    <glyph glyph-name="uni2197.cap" horiz-adv-x="789" 
d="M663 535v-285h-76l-15 177l-371 -372l-75 75l370 369l-173 15v76h295l36 -36q9 -9 9 -19z" />
    <glyph glyph-name="uni2198.cap" horiz-adv-x="789" 
d="M607 55h-285v76l176 15l-371 371l75 74l370 -370l14 174h76v-295l-36 -37q-8 -8 -19 -8z" />
    <glyph glyph-name="uni2199.cap" horiz-adv-x="789" 
d="M126 110v285h76l15 -176l371 372l75 -76l-370 -369l173 -15v-76h-295l-36 36q-9 9 -9 19z" />
    <glyph glyph-name="periodcentered.cap" horiz-adv-x="239" 
d="M188 374v-112h-138v137h111q27 0 27 -25z" />
    <glyph glyph-name="bullet.cap" horiz-adv-x="363" 
d="M298 410v-190h-233v221h199q20 0 27 -6.5t7 -24.5z" />
    <glyph glyph-name="at.cap" horiz-adv-x="777" 
d="M668 145l31 -57q-51 -42 -134 -70t-168 -28q-157 0 -256 98t-99 244q0 153 104.5 247t250.5 94q143 0 237.5 -90.5t94.5 -217.5q0 -95 -49.5 -148t-122.5 -53q-64 0 -93 38l-24 -13q-42 -22 -81 -22q-52 0 -85 31.5t-33 77.5q0 44 31 67.5t83 23.5q48 0 84 -11v24
q0 19 -13.5 31t-38.5 12q-27 0 -68 -12l-33 -11l-27 49q68 53 140 53q60 0 96.5 -33.5t36.5 -96.5v-91q0 -42 38 -42q30 0 49.5 28t19.5 91q0 95 -66.5 159.5t-175.5 64.5t-180.5 -65.5t-71.5 -177.5q0 -120 71.5 -189t192.5 -69q81 0 178 35zM434 302h-83q-21 0 -21 -23
q0 -17 12 -27.5t34 -10.5q25 0 51 8q8 2 10 5t2 10v33q0 5 -5 5z" />
    <glyph glyph-name="parenleft.cap" horiz-adv-x="356" 
d="M60 331q0 135 58.5 258t157.5 202l59 -50q-70 -100 -103.5 -196.5t-33.5 -213.5t33.5 -214t103.5 -197l-59 -49q-99 78 -157.5 201.5t-58.5 258.5z" />
    <glyph glyph-name="parenright.cap" horiz-adv-x="356" 
d="M296 331q0 -135 -58.5 -258.5t-157.5 -201.5l-59 49q70 100 103.5 197t33.5 214t-33.5 213.5t-103.5 196.5l59 50q99 -79 157.5 -202t58.5 -258z" />
    <glyph glyph-name="bracketleft.cap" horiz-adv-x="352" 
d="M74 -115v892h259v-116h-134v-660h134v-116h-259z" />
    <glyph glyph-name="bracketright.cap" horiz-adv-x="352" 
d="M278 777v-892h-259v116h134v660h-134v116h259z" />
    <glyph glyph-name="braceleft.cap" horiz-adv-x="381" 
d="M40 288v87q57 18 80.5 38.5t23.5 54.5q0 25 -12 95.5t-12 99.5q0 61 40 93t105 32q41 0 105 -16v-79l-104 -21q-19 -4 -19 -23q0 -11 11 -80t11 -101q0 -48 -27 -80t-97 -57q70 -24 97 -56t27 -81q0 -32 -11 -100.5t-11 -79.5q0 -19 19 -23l104 -22v-78q-57 -16 -105 -16
q-65 0 -105 31.5t-40 93.5q0 29 12 99t12 95q0 34 -23 54.5t-81 39.5z" />
    <glyph glyph-name="braceright.cap" horiz-adv-x="381" 
d="M341 375v-87q-58 -19 -81 -39.5t-23 -54.5q0 -25 12 -95t12 -99q0 -62 -40 -93.5t-105 -31.5q-48 0 -105 16v78l104 22q19 4 19 23q0 11 -11 79.5t-11 100.5q0 49 27 81t97 56q-70 25 -97 57t-27 80q0 32 11 101t11 80q0 19 -19 23l-104 21v79q64 16 105 16q65 0 105 -32
t40 -93q0 -29 -12 -99.5t-12 -95.5q0 -34 23.5 -54.5t80.5 -38.5z" />
    <glyph glyph-name="questiondown.cap" horiz-adv-x="528" 
d="M247 473h86l12 -68q5 -26 5 -40q0 -17 -8 -27.5t-29 -22.5l-36 -21q-37 -22 -51 -30.5t-31.5 -23.5t-22.5 -28t-5 -32q0 -32 24.5 -50t66.5 -18q55 0 131 28l60 22l46 -78q-50 -42 -115.5 -68t-128.5 -26q-92 0 -155.5 51t-63.5 140q0 137 195 204zM223 561v102h132v-123
h-110q-13 0 -17.5 5t-4.5 16z" />
    <glyph glyph-name="exclamdown.cap" horiz-adv-x="280" 
d="M67 554v109h136v-130h-114q-13 0 -17.5 4.5t-4.5 16.5zM177 468l16 -144q8 -80 8 -106v-218h-132v218q0 26 8 106l16 144h84z" />
    <glyph glyph-name="guillemotleft.cap" horiz-adv-x="641" 
d="M41 310v55l228 180l58 -58l-147 -155v-2l147 -154l-58 -59l-218 172q-10 8 -10 21zM312 310v55l228 180l58 -58l-147 -155v-2l147 -154l-58 -59l-218 172q-10 8 -10 21z" />
    <glyph glyph-name="guillemotright.cap" horiz-adv-x="640" 
d="M609 352v-55l-228 -180l-58 58l147 155v2l-147 154l58 59l218 -172q10 -8 10 -21zM338 352v-55l-228 -180l-58 58l147 155v2l-147 154l58 59l218 -172q10 -8 10 -21z" />
    <glyph glyph-name="guilsinglleft.cap" horiz-adv-x="369" 
d="M41 310v55l228 180l58 -58l-147 -155v-2l147 -154l-58 -59l-218 172q-10 8 -10 21z" />
    <glyph glyph-name="guilsinglright.cap" horiz-adv-x="369" 
d="M328 352v-55l-228 -180l-58 58l147 155v2l-147 154l58 59l218 -172q10 -8 10 -21z" />
    <glyph glyph-name="hyphen.cap" horiz-adv-x="423" 
d="M374 276h-325v109h325v-109z" />
    <glyph glyph-name="uni00AD.cap" horiz-adv-x="423" 
d="M374 276h-325v109h325v-109z" />
    <glyph glyph-name="endash.cap" horiz-adv-x="598" 
d="M549 276h-500v109h500v-109z" />
    <glyph glyph-name="emdash.cap" horiz-adv-x="1098" 
d="M1049 276h-1000v109h1000v-109z" />
    </font>
</defs>
</svg>
