<?xml version="1.0" standalone="no"?>
<!DOCTYPE svg PUBLIC "-//W3C//DTD SVG 20010904//EN"
 "http://www.w3.org/TR/2001/REC-SVG-20010904/DTD/svg10.dtd">
<svg version="1.0" xmlns="http://www.w3.org/2000/svg"
 width="768.000000pt" height="768.000000pt" viewBox="0 0 768.000000 768.000000"
 preserveAspectRatio="xMidYMid meet">
<metadata>
Created by potrace 1.11, written by Peter Selinger 2001-2013
</metadata>
<g transform="translate(0.000000,768.000000) scale(0.100000,-0.100000)"
fill="#000000" stroke="none">
<path d="M3215 5594 c-548 -53 -1062 -173 -1484 -347 -62 -25 -71 -32 -54 -38
15 -5 49 3 109 27 484 190 1107 315 1728 346 29 2 51 8 54 16 5 16 -164 15
-353 -4z"/>
<path d="M3450 5383 c-1002 -69 -1836 -338 -2357 -760 -620 -501 -633 -1133
-34 -1635 330 -276 816 -500 1386 -638 437 -106 865 -154 1375 -154 401 0 663
21 1013 79 985 165 1777 579 2069 1080 85 147 122 279 122 440 0 145 -18 223
-79 352 -144 305 -441 567 -890 788 -500 245 -1105 394 -1810 445 -125 9 -680
11 -795 3z m680 -103 c887 -47 1647 -260 2185 -614 418 -275 621 -584 602
-916 -37 -643 -1001 -1232 -2289 -1399 -315 -41 -397 -46 -793 -46 -407 1
-569 11 -880 56 -833 120 -1534 411 -1926 799 -185 183 -279 364 -299 575 -20
197 43 385 189 567 517 648 1835 1049 3211 978z"/>
<path d="M3557 5200 c-816 -38 -1588 -241 -2114 -554 -275 -164 -499 -389
-588 -590 -221 -500 221 -1034 1140 -1376 767 -285 1799 -374 2715 -234 827
126 1506 413 1870 790 172 179 248 327 266 521 13 144 -52 334 -166 485 -222
292 -696 570 -1267 741 -555 167 -1228 246 -1856 217z m-1179 -457 c-8 -10
-58 -145 -112 -301 -53 -156 -100 -291 -103 -300 -5 -14 -3 -15 8 -4 9 8 59
12 172 12 147 0 158 -1 146 -16 -8 -9 -27 -56 -44 -103 l-30 -86 -283 -5
c-155 -3 -282 -2 -282 2 0 4 56 171 125 372 69 200 125 368 125 374 0 5 -6 15
-14 21 -8 7 -12 21 -9 31 5 19 15 20 161 20 147 0 154 -1 140 -17z m848 8 c-5
-7 24 -575 38 -748 l5 -62 -115 -3 -115 -3 3 93 3 93 -119 -3 -119 -3 -48 -85
-49 -85 -129 -5 c-128 -5 -130 -5 -117 15 36 57 427 715 432 729 3 9 1 22 -5
30 -6 7 -9 21 -5 30 5 14 28 16 176 16 94 0 167 -4 164 -9z m621 -34 c4 -60
70 -385 75 -367 2 8 34 103 69 210 l65 195 124 3 c118 3 123 2 108 -15 -8 -10
-75 -193 -148 -408 -73 -214 -134 -391 -134 -392 -1 -1 -50 -3 -110 -4 l-109
-2 -44 219 c-23 121 -43 237 -43 259 -1 31 -20 -16 -89 -215 l-88 -255 -110
-5 -111 -5 110 320 c60 176 119 346 130 378 19 54 19 59 4 76 -9 10 -14 25
-10 35 5 14 26 16 158 16 l151 0 2 -43z m971 28 c57 -17 115 -62 138 -106 22
-44 18 -171 -10 -282 -53 -209 -142 -340 -262 -388 -55 -21 -78 -23 -309 -28
-137 -4 -251 -6 -252 -6 -1 1 56 171 128 379 122 357 129 380 113 397 -9 10
-14 25 -11 34 9 22 389 22 465 0z m919 -287 c-9 -7 -31 -56 -50 -107 l-34 -95
-300 -100 c-165 -56 -308 -107 -317 -115 -20 -17 -20 -17 3 43 l19 50 168 58
c93 31 180 58 194 59 72 6 -92 13 -198 9 -67 -3 -122 -5 -122 -4 0 1 59 161
69 187 l11 27 287 0 c232 0 284 -2 270 -12z m-2098 -703 c61 -34 75 -51 96
-121 20 -65 19 -121 -4 -224 -37 -166 -100 -300 -172 -365 -73 -66 -138 -88
-266 -93 -98 -4 -122 -1 -185 19 -118 38 -154 93 -152 234 3 135 86 370 163
457 82 94 181 129 351 125 106 -2 119 -5 169 -32z m-784 -1 c51 -28 69 -49 83
-100 16 -55 15 -88 -3 -159 -19 -72 -49 -136 -82 -176 -29 -34 -92 -69 -124
-69 -16 0 -20 -4 -14 -17 33 -83 97 -265 94 -268 -2 -2 -55 -5 -117 -7 l-112
-3 -9 30 c-53 169 -71 237 -66 245 4 6 -10 10 -33 10 -34 0 -41 -4 -46 -25 -3
-13 -25 -76 -47 -139 l-41 -115 -119 -3 c-77 -2 -118 1 -115 7 2 6 61 176 131
378 118 343 126 369 111 386 -10 11 -14 25 -10 35 6 16 28 17 243 14 219 -3
239 -5 276 -24z m1200 16 c-3 -5 -3 -139 1 -297 5 -189 10 -279 16 -263 5 14
71 148 146 297 l137 273 129 0 c117 0 127 -1 115 -16 -8 -9 -111 -193 -230
-408 l-216 -391 -133 -3 c-74 -1 -139 -7 -145 -12 -12 -10 -28 204 -42 575 -6
160 -8 171 -30 193 -23 23 -29 43 -16 55 11 12 275 8 268 -3z m1193 -7 c-8
-10 -28 -55 -44 -100 l-29 -83 -152 0 -153 0 -15 -37 c-35 -84 -44 -78 120
-75 93 3 145 0 145 -6 0 -6 -3 -12 -8 -14 -4 -1 -21 -39 -37 -83 l-30 -80
-141 -3 -141 -3 -17 -52 c-10 -28 -19 -56 -22 -62 -3 -7 54 -9 162 -7 l165 3
-14 -23 c-8 -13 -24 -52 -36 -88 -12 -36 -25 -70 -29 -77 -6 -9 -82 -13 -285
-15 -243 -3 -277 -1 -271 12 3 8 60 173 126 365 66 193 123 355 125 361 2 6
-3 19 -12 28 -10 10 -14 24 -10 36 6 19 15 20 312 20 291 0 305 -1 291 -17z
m558 2 c123 -36 154 -162 84 -347 -29 -78 -82 -135 -146 -157 l-51 -17 49
-134 c26 -74 48 -138 48 -142 0 -5 -214 -17 -228 -12 -7 2 -81 268 -76 275 3
5 -12 9 -33 9 l-39 0 -28 -87 c-16 -49 -37 -111 -48 -140 l-19 -52 -118 -3
-119 -3 90 260 c49 143 108 313 130 377 39 111 40 119 24 137 -9 10 -14 25
-10 35 5 14 31 16 223 16 163 0 230 -4 267 -15z m-3659 -103 c-8 -9 -20 -29
-26 -43 -9 -24 -31 -34 -203 -92 l-193 -66 178 6 c123 4 177 3 177 -5 0 -6 -4
-12 -10 -14 -5 -1 -24 -43 -43 -93 l-33 -90 -264 -3 c-174 -1 -268 -6 -277
-13 -9 -8 -13 -8 -13 -1 0 11 76 222 82 226 7 6 614 204 627 205 11 1 11 -2
-2 -17z"/>
<path d="M3002 4463 c-17 -32 -48 -86 -67 -120 l-36 -63 26 10 c15 6 44 10 66
10 l39 0 0 91 c0 50 5 99 10 110 6 10 7 19 3 19 -5 0 -23 -26 -41 -57z"/>
<path d="M4576 4551 c-6 -9 -146 -412 -146 -420 0 -3 5 0 12 7 7 7 38 12 70
12 74 0 111 19 142 73 28 48 81 201 91 265 7 41 6 43 -29 57 -38 16 -131 20
-140 6z"/>
<path d="M3332 3563 c-87 -43 -184 -346 -125 -394 10 -9 39 -14 74 -14 94 1
134 42 189 193 41 113 50 185 25 212 -23 25 -115 27 -163 3z"/>
<path d="M2529 3513 c-12 -38 -24 -73 -26 -78 -4 -13 144 -7 170 7 20 11 47
66 47 97 0 24 -50 41 -122 41 l-46 0 -23 -67z"/>
<path d="M5509 3513 c-12 -38 -24 -72 -26 -78 -2 -7 29 -8 89 -3 51 3 94 7 96
7 1 1 13 26 27 57 34 76 26 84 -80 84 l-83 0 -23 -67z"/>
<path d="M7233 3939 c-9 -9 -13 -52 -13 -138 0 -150 -22 -267 -72 -392 -181
-445 -665 -827 -1398 -1101 -258 -96 -679 -199 -1015 -247 -327 -48 -451 -55
-900 -56 -440 0 -558 6 -855 46 -80 10 -181 18 -225 18 l-80 -1 105 -19 c137
-24 379 -55 555 -71 214 -18 810 -15 1035 6 734 68 1331 227 1853 493 421 215
745 502 905 803 104 195 153 442 124 628 -6 35 -9 41 -19 31z"/>
</g>
</svg>
